{
.appVersion = "913";
copyright = "Copyright (c) 2011 The Cabin Project Authors (www.impallari.com impallari@gmail.com)";
customParameters = (
{
name = licenseURL;
value = "http://scripts.sil.org/OFL";
},
{
name = description;
value = "Copyright (c) 2011 by Pablo Impallari. www.impallari.com Copyright (c) 2011 by Igino Marini. www.ikern.com All rights reserved.";
},
{
name = trademark;
value = "Cabin is a trademark of Pablo Impallari. www.impallari.com Igino Marini. www.ikern.com.";
},
{
name = license;
value = "This Font Software is licensed under the SIL Open Font License, Version 1.1. This license is available with a FAQ at: http://scripts.sil.org/OFL";
},
{
name = vendorID;
value = IMPA;
},
{
name = fsType;
value = 0;
},
{
name = "Use Typo Metrics";
value = 1;
}
);
date = "2011-03-21 07:48:50 +0000";
designer = "Pablo Impallari";
designerURL = "http://www.impallari.com";
familyName = Cabin;
featurePrefixes = (
{
automatic = 1;
code = "languagesystem DFLT dflt;\012";
name = Languagesystems;
},
{
automatic = 1;
code = "languagesystem DFLT dflt;\012";
name = Languagesystems;
}
);
features = (
{
automatic = 1;
code = "feature subs;\012feature sups;\012feature frac;\012feature ordn;\012feature c2sc;\012";
name = aalt;
},
{
automatic = 1;
code = "sub zero by zeroinferior;\012sub one by oneinferior;\012sub two by twoinferior;\012sub three by threeinferior;\012sub four by fourinferior;\012sub five by fiveinferior;\012sub six by sixinferior;\012sub seven by seveninferior;\012sub eight by eightinferior;\012sub nine by nineinferior;\012";
name = subs;
},
{
automatic = 1;
code = "sub zero by zerosuperior;\012sub one by onesuperior;\012sub two by twosuperior;\012sub three by threesuperior;\012sub four by foursuperior;\012sub five by fivesuperior;\012sub six by sixsuperior;\012sub seven by sevensuperior;\012sub eight by eightsuperior;\012sub nine by ninesuperior;\012";
name = sups;
},
{
automatic = 1;

glyphs = (
{
glyphname = A;
lastChange = "2016-08-30 22:20:12 +0000";
layers = (
{
anchors = (
{
name = bottom;
position = "{246, 0}";
},
{
name = ogonek;
position = "{511, 10}";
},
{
name = top;
position = "{360, 700}";
}
);
background = {
paths = (
{
closed = 1;
nodes = (
"510 0 LINE",
"408 700 LINE",
"312 700 LINE",
"-37 0 LINE",
"63 0 LINE",
"154 189 LINE",
"385 189 LINE",
"410 0 LINE"
);
},
{
closed = 1;
nodes = (
"369 275 LINE",
"200 275 LINE",
"336 567 LINE"
);
}
);
};
layerId = UUID0;
paths = (
{
closed = 1;
nodes = (
"63 0 LINE",
"154 189 LINE",
"385 189 LINE",
"410 0 LINE",
"510 0 LINE",
"408 700 LINE",
"312 700 LINE",
"-37 0 LINE"
);
},
{
closed = 1;
nodes = (
"336 567 LINE",
"369 275 LINE",
"200 275 LINE"
);
}
);
width = 568;
},
{
anchors = (
{
name = bottom;
position = "{304, 0}";
},
{
name = ogonek;
position = "{546, 10}";
},
{
name = top;
position = "{372, 700}";
}
);
background = {
paths = (
{
closed = 1;
nodes = (
"554 0 LINE",
"439 700 LINE",
"319 700 LINE",
"-43 0 LINE",
"90 0 LINE",
"176 169 LINE",
"394 169 LINE",
"421 0 LINE"
);
},
{
closed = 1;
nodes = (
"372 293 LINE",
"242 293 LINE",
"343 498 LINE"
);
}
);
};
layerId = "D879A026-05F7-4E99-AC55-D533E46CE7AB";
paths = (
{
closed = 1;
nodes = (
"90 0 LINE",
"176 169 LINE",
"394 169 LINE",
"421 0 LINE",
"554 0 LINE",
"439 700 LINE",
"319 700 LINE",
"-43 0 LINE"
);
},
{
closed = 1;
nodes = (
"343 498 LINE",
"372 293 LINE",
"242 293 LINE"
);
}
);
width = 607;
}
);
leftKerningGroup = A;
rightKerningGroup = A;
unicode = 0041;
},
{
glyphname = AE;
lastChange = "2016-08-30 19:21:11 +0000";
layers = (
{
background = {
paths = (
{
closed = 1;
nodes = (
"702 0 LINE",
"717 86 LINE",
"432 86 LINE",
"474 323 LINE",
"687 323 LINE",
"702 409 LINE",
"489 409 LINE",
"525 613 LINE",
"801 613 LINE",
"817 700 LINE",
"379 700 LINE",
"-52 0 LINE",
"43 0 LINE",
"155 180 LINE",
"341 180 LINE",
"310 0 LINE"
);
},
{
closed = 1;
nodes = (
"358 272 LINE",
"214 272 LINE",
"417 611 LINE"
);
}
);
};
layerId = UUID0;
paths = (
{
closed = 1;
nodes = (
"43 0 LINE",
"155 180 LINE",
"341 180 LINE",
"310 0 LINE",
"702 0 LINE",
"717 86 LINE",
"432 86 LINE",
"474 323 LINE",
"687 323 LINE",
"702 409 LINE",
"489 409 LINE",
"525 613 LINE",
"801 613 LINE",
"817 700 LINE",
"379 700 LINE",
"-52 0 LINE"
);
},
{
closed = 1;
nodes = (
"417 611 LINE",
"358 272 LINE",
"214 272 LINE"
);
}
);
width = 788;
},
{
background = {
paths = (
{
closed = 1;
nodes = (
"756 0 LINE",
"778 124 LINE",
"487 124 LINE",
"519 303 LINE",
"736 303 LINE",
"758 427 LINE",
"541 427 LINE",
"567 576 LINE",
"849 576 LINE",
"871 700 LINE",
"395 700 LINE",
"-56 0 LINE",
"78 0 LINE",
"184 169 LINE",
"367 169 LINE",
"337 0 LINE"
);
},
{
closed = 1;
nodes = (
"389 293 LINE",
"265 293 LINE",
"438 573 LINE"
);
}
);
};
layerId = "D879A026-05F7-4E99-AC55-D533E46CE7AB";
paths = (
{
closed = 1;
nodes = (
"78 0 LINE",
"184 169 LINE",
"367 169 LINE",
"337 0 LINE",
"756 0 LINE",
"778 124 LINE",
"487 124 LINE",
"519 303 LINE",
"736 303 LINE",
"758 427 LINE",
"541 427 LINE",
"567 576 LINE",
"849 576 LINE",
"871 700 LINE",
"395 700 LINE",
"-56 0 LINE"
);
},
{
closed = 1;
nodes = (
"438 573 LINE",
"389 293 LINE",
"265 293 LINE"
);
}
);
width = 843;
}
);
rightKerningGroup = E;
unicode = 00C6;
},
{
glyphname = B;
lastChange = "2016-08-30 19:21:11 +0000";
layers = (
{
background = {
paths = (
{
closed = 1;
nodes = (
"253 0 LINE SMOOTH",
"373 0 OFFCURVE",
"513 37 OFFCURVE",
"513 242 CURVE SMOOTH",
"513 299 OFFCURVE",
"490 345 OFFCURVE",
"432 373 CURVE",
"487 429 OFFCURVE",
"515 468 OFFCURVE",
"515 566 CURVE SMOOTH",
"515 679 OFFCURVE",
"432 700 OFFCURVE",
"303 700 CURVE SMOOTH",
"151 700 LINE",
"28 0 LINE"
);
},
{
closed = 1;
nodes = (
"319 615 LINE SMOOTH",
"375 615 OFFCURVE",
"418 609 OFFCURVE",
"418 545 CURVE SMOOTH",
"418 418 OFFCURVE",
"360 409 OFFCURVE",
"303 409 CURVE SMOOTH",
"195 409 LINE",
"231 615 LINE"
);
},
{
closed = 1;
nodes = (
"309 323 LINE SMOOTH",
"366 323 OFFCURVE",
"413 305 OFFCURVE",
"413 229 CURVE SMOOTH",
"413 102 OFFCURVE",
"346 86 OFFCURVE",
"234 86 CURVE SMOOTH",
"138 86 LINE",
"180 323 LINE"
);
}
);
};
layerId = UUID0;
paths = (
{
closed = 1;
nodes = (
"253 0 LINE SMOOTH",
"365 0 OFFCURVE",
"513 37 OFFCURVE",
"513 231 CURVE SMOOTH",
"513 307 OFFCURVE",
"490 343 OFFCURVE",
"432 373 CURVE",
"480 421 OFFCURVE",
"515 468 OFFCURVE",
"515 555 CURVE SMOOTH",
"515 678 OFFCURVE",
"444 700 OFFCURVE",
"303 700 CURVE SMOOTH",
"151 700 LINE",
"28 0 LINE"
);
},
{
closed = 1;
nodes = (
"180 323 LINE",
"309 323 LINE SMOOTH",
"390 323 OFFCURVE",
"413 288 OFFCURVE",
"413 221 CURVE SMOOTH",
"413 102 OFFCURVE",
"339 86 OFFCURVE",
"234 86 CURVE SMOOTH",
"138 86 LINE"
);
},
{
closed = 1;
nodes = (
"231 615 LINE",
"319 615 LINE SMOOTH",
"397 615 OFFCURVE",
"418 600 OFFCURVE",
"418 534 CURVE SMOOTH",
"418 418 OFFCURVE",
"352 409 OFFCURVE",
"303 409 CURVE SMOOTH",
"195 409 LINE"
);
}
);
width = 565;
},
{
background = {
paths = (
{
closed = 1;
nodes = (
"290 0 LINE SMOOTH",
"416 0 OFFCURVE",
"571 53 OFFCURVE",
"571 239 CURVE SMOOTH",
"571 307 OFFCURVE",
"538 348 OFFCURVE",
"479 374 CURVE",
"536 419 OFFCURVE",
"566 482 OFFCURVE",
"566 559 CURVE SMOOTH",
"566 679 OFFCURVE",
"473 700 OFFCURVE",
"336 700 CURVE SMOOTH",
"149 700 LINE",
"26 0 LINE"
);
},
{
closed = 1;
nodes = (
"370 591 LINE SMOOTH",
"416 591 OFFCURVE",
"444 578 OFFCURVE",
"444 526 CURVE SMOOTH",
"444 438 OFFCURVE",
"385 419 OFFCURVE",
"349 419 CURVE SMOOTH",
"228 419 LINE",
"258 591 LINE"
);
},
{
closed = 1;
nodes = (
"335 318 LINE SMOOTH",
"396 318 OFFCURVE",
"439 298 OFFCURVE",
"439 235 CURVE SMOOTH",
"439 142 OFFCURVE",
"386 109 OFFCURVE",
"299 109 CURVE SMOOTH",
"173 109 LINE",
"210 318 LINE"
);
}
);
};
layerId = "D879A026-05F7-4E99-AC55-D533E46CE7AB";
paths = (
{
closed = 1;
nodes = (
"290 0 LINE SMOOTH",
"416 0 OFFCURVE",
"571 57 OFFCURVE",
"571 232 CURVE SMOOTH",
"571 310 OFFCURVE",
"540 346 OFFCURVE",
"479 374 CURVE",
"538 420 OFFCURVE",
"566 487 OFFCURVE",
"566 556 CURVE SMOOTH",
"566 679 OFFCURVE",
"476 700 OFFCURVE",
"336 700 CURVE SMOOTH",
"149 700 LINE",
"26 0 LINE"
);
},
{
closed = 1;
nodes = (
"210 318 LINE",
"335 318 LINE SMOOTH",
"412 318 OFFCURVE",
"439 288 OFFCURVE",
"439 228 CURVE SMOOTH",
"439 145 OFFCURVE",
"386 109 OFFCURVE",
"299 109 CURVE SMOOTH",
"173 109 LINE"
);
},
{
closed = 1;
nodes = (
"258 591 LINE",
"370 591 LINE SMOOTH",
"418 591 OFFCURVE",
"444 578 OFFCURVE",
"444 523 CURVE SMOOTH",
"444 440 OFFCURVE",
"385 419 OFFCURVE",
"349 419 CURVE SMOOTH",
"228 419 LINE"
);
}
);
width = 616;
}
);
leftKerningGroup = I;
unicode = 0042;
},
{
glyphname = C;
lastChange = "2016-08-30 22:32:42 +0000";
layers = (
{
background = {
paths = (
{
closed = 1;
nodes = (
"368 -14 OFFCURVE",
"437 3 OFFCURVE",
"486 26 CURVE",
"492 114 LINE",
"438 95 OFFCURVE",
"384 72 OFFCURVE",
"320 72 CURVE SMOOTH",
"205 72 OFFCURVE",
"151 165 OFFCURVE",
"151 286 CURVE SMOOTH",
"151 464 OFFCURVE",
"251 628 OFFCURVE",
"417 628 CURVE SMOOTH",
"482 628 OFFCURVE",
"528 604 OFFCURVE",
"575 585 CURVE",
"601 673 LINE",
"561 696 OFFCURVE",
"496 714 OFFCURVE",
"432 714 CURVE SMOOTH",
"223 714 OFFCURVE",
"46 536 OFFCURVE",
"46 278 CURVE SMOOTH",
"46 100 OFFCURVE",
"147 -14 OFFCURVE",
"304 -14 CURVE SMOOTH"
);
}
);
};
layerId = UUID0;
paths = (
{
closed = 1;
nodes = (
"367 -14 OFFCURVE",
"437 3 OFFCURVE",
"486 26 CURVE",
"492 114 LINE",
"438 95 OFFCURVE",
"383 72 OFFCURVE",
"323 72 CURVE SMOOTH",
"205 72 OFFCURVE",
"151 162 OFFCURVE",
"151 289 CURVE SMOOTH",
"151 463 OFFCURVE",
"251 628 OFFCURVE",
"418 628 CURVE SMOOTH",
"482 628 OFFCURVE",
"528 604 OFFCURVE",
"575 585 CURVE",
"601 673 LINE",
"561 696 OFFCURVE",
"496 714 OFFCURVE",
"431 714 CURVE SMOOTH",
"223 714 OFFCURVE",
"46 532 OFFCURVE",
"46 284 CURVE SMOOTH",
"46 96 OFFCURVE",
"147 -14 OFFCURVE",
"305 -14 CURVE"
);
}
);
width = 565;
},
{
background = {
paths = (
{
closed = 1;
nodes = (
"386 -14 OFFCURVE",
"461 2 OFFCURVE",
"515 27 CURVE",
"522 149 LINE",
"462 126 OFFCURVE",
"408 109 OFFCURVE",
"337 109 CURVE SMOOTH",
"233 109 OFFCURVE",
"183 186 OFFCURVE",
"183 294 CURVE SMOOTH",
"183 454 OFFCURVE",
"269 591 OFFCURVE",
"422 591 CURVE SMOOTH",
"493 591 OFFCURVE",
"541 574 OFFCURVE",
"593 551 CURVE",
"629 673 LINE",
"584 698 OFFCURVE",
"514 714 OFFCURVE",
"444 714 CURVE SMOOTH",
"224 714 OFFCURVE",
"42 536 OFFCURVE",
"42 282 CURVE SMOOTH",
"42 103 OFFCURVE",
"149 -14 OFFCURVE",
"316 -14 CURVE SMOOTH"
);
}
);
};
layerId = "D879A026-05F7-4E99-AC55-D533E46CE7AB";
paths = (
{
closed = 1;
nodes = (
"384 -14 OFFCURVE",
"461 2 OFFCURVE",
"515 27 CURVE",
"522 149 LINE",
"466 127 OFFCURVE",
"403 109 OFFCURVE",
"346 109 CURVE SMOOTH",
"227 109 OFFCURVE",
"183 186 OFFCURVE",
"183 299 CURVE SMOOTH",
"183 455 OFFCURVE",
"267 591 OFFCURVE",
"430 591 CURVE SMOOTH",
"495 591 OFFCURVE",
"553 569 OFFCURVE",
"593 551 CURVE",
"629 673 LINE",
"584 698 OFFCURVE",
"513 714 OFFCURVE",
"447 714 CURVE SMOOTH",
"224 714 OFFCURVE",
"42 534 OFFCURVE",
"42 287 CURVE SMOOTH",
"42 98 OFFCURVE",
"149 -14 OFFCURVE",
"320 -14 CURVE"
);
}
);
width = 593;
}
);
leftKerningGroup = O;
rightKerningGroup = C;
unicode = 0043;
},
{
glyphname = D;
lastChange = "2016-08-30 19:21:11 +0000";
layers = (
{
background = {
paths = (
{
closed = 1;
nodes = (
"262 0 LINE SMOOTH",
"473 0 OFFCURVE",
"644 163 OFFCURVE",
"644 420 CURVE SMOOTH",
"644 596 OFFCURVE",
"542 700 OFFCURVE",
"385 700 CURVE SMOOTH",
"151 700 LINE",
"28 0 LINE"
);
},
{
closed = 1;
nodes = (
"370 614 LINE SMOOTH",
"484 614 OFFCURVE",
"539 533 OFFCURVE",
"539 413 CURVE SMOOTH",
"539 232 OFFCURVE",
"444 86 OFFCURVE",
"277 86 CURVE SMOOTH",
"138 86 LINE",
"231 614 LINE"
);
}
);
};
layerId = UUID0;
paths = (
{
closed = 1;
nodes = (
"262 0 LINE SMOOTH",
"473 0 OFFCURVE",
"644 167 OFFCURVE",
"644 411 CURVE SMOOTH",
"644 600 OFFCURVE",
"542 700 OFFCURVE",
"385 700 CURVE SMOOTH",
"151 700 LINE",
"28 0 LINE"
);
},
{
closed = 1;
nodes = (
"231 614 LINE",
"370 614 LINE SMOOTH",
"484 614 OFFCURVE",
"539 536 OFFCURVE",
"539 406 CURVE SMOOTH",
"539 235 OFFCURVE",
"444 86 OFFCURVE",
"277 86 CURVE SMOOTH",
"138 86 LINE"
);
}
);
width = 672;
},
{
background = {
paths = (
{
closed = 1;
nodes = (
"278 0 LINE SMOOTH",
"498 0 OFFCURVE",
"678 162 OFFCURVE",
"678 416 CURVE SMOOTH",
"678 594 OFFCURVE",
"568 700 OFFCURVE",
"401 700 CURVE SMOOTH",
"149 700 LINE",
"26 0 LINE"
);
},
{
closed = 1;
nodes = (
"380 577 LINE SMOOTH",
"485 577 OFFCURVE",
"537 510 OFFCURVE",
"537 404 CURVE SMOOTH",
"537 243 OFFCURVE",
"455 123 OFFCURVE",
"300 123 CURVE SMOOTH",
"176 123 LINE",
"256 577 LINE"
);
}
);
};
layerId = "D879A026-05F7-4E99-AC55-D533E46CE7AB";
paths = (
{
closed = 1;
nodes = (
"278 0 LINE SMOOTH",
"498 0 OFFCURVE",
"678 166 OFFCURVE",
"678 408 CURVE SMOOTH",
"678 598 OFFCURVE",
"568 700 OFFCURVE",
"401 700 CURVE SMOOTH",
"149 700 LINE",
"26 0 LINE"
);
},
{
closed = 1;
nodes = (
"256 577 LINE",
"380 577 LINE SMOOTH",
"485 577 OFFCURVE",
"537 514 OFFCURVE",
"537 396 CURVE SMOOTH",
"537 247 OFFCURVE",
"455 123 OFFCURVE",
"300 123 CURVE SMOOTH",
"176 123 LINE"
);
}
);
width = 702;
}
);
leftKerningGroup = I;
rightKerningGroup = D;
unicode = 0044;
},
{
glyphname = Eth;
lastChange = "2016-08-30 19:21:11 +0000";
layers = (
{
background = {
paths = (
{
closed = 1;
nodes = (
"266 0 LINE SMOOTH",
"476 0 OFFCURVE",
"646 163 OFFCURVE",
"646 421 CURVE SMOOTH",
"646 596 OFFCURVE",
"545 700 OFFCURVE",
"389 700 CURVE SMOOTH",
"157 700 LINE",
"100 377 LINE",
"14 377 LINE",
"3 313 LINE",
"89 313 LINE",
"34 0 LINE"
);
},
{
closed = 1;
nodes = (
"374 614 LINE SMOOTH",
"488 614 OFFCURVE",
"543 534 OFFCURVE",
"543 414 CURVE SMOOTH",
"543 231 OFFCURVE",
"450 87 OFFCURVE",
"281 87 CURVE SMOOTH",
"141 87 LINE",
"181 313 LINE",
"297 313 LINE",
"309 377 LINE",
"192 377 LINE",
"234 614 LINE"
);
}
);
};
layerId = UUID0;
paths = (
{
closed = 1;
nodes = (
"266 0 LINE SMOOTH",
"476 0 OFFCURVE",
"646 163 OFFCURVE",
"646 421 CURVE SMOOTH",
"646 596 OFFCURVE",
"545 700 OFFCURVE",
"389 700 CURVE SMOOTH",
"157 700 LINE",
"100 377 LINE",
"14 377 LINE",
"3 313 LINE",
"89 313 LINE",
"34 0 LINE"
);
},
{
closed = 1;
nodes = (
"181 313 LINE",
"297 313 LINE",
"309 377 LINE",
"192 377 LINE",
"234 614 LINE",
"374 614 LINE SMOOTH",
"488 614 OFFCURVE",
"543 534 OFFCURVE",
"543 414 CURVE SMOOTH",
"543 231 OFFCURVE",
"450 87 OFFCURVE",
"281 87 CURVE SMOOTH",
"141 87 LINE"
);
}
);
width = 674;
},
{
background = {
paths = (
{
closed = 1;
nodes = (
"291 0 LINE SMOOTH",
"512 0 OFFCURVE",
"692 162 OFFCURVE",
"692 416 CURVE SMOOTH",
"692 594 OFFCURVE",
"582 700 OFFCURVE",
"415 700 CURVE SMOOTH",
"162 700 LINE",
"108 393 LINE",
"21 393 LINE",
"4 299 LINE",
"92 299 LINE",
"39 0 LINE"
);
},
{
closed = 1;
nodes = (
"393 577 LINE SMOOTH",
"499 577 OFFCURVE",
"550 510 OFFCURVE",
"550 404 CURVE SMOOTH",
"550 243 OFFCURVE",
"468 123 OFFCURVE",
"313 123 CURVE SMOOTH",
"189 123 LINE",
"220 299 LINE",
"336 299 LINE",
"352 393 LINE",
"237 393 LINE",
"269 577 LINE"
);
}
);
};
layerId = "D879A026-05F7-4E99-AC55-D533E46CE7AB";
paths = (
{
closed = 1;
nodes = (
"291 0 LINE SMOOTH",
"512 0 OFFCURVE",
"692 162 OFFCURVE",
"692 416 CURVE SMOOTH",
"692 594 OFFCURVE",
"582 700 OFFCURVE",
"415 700 CURVE SMOOTH",
"162 700 LINE",
"108 393 LINE",
"21 393 LINE",
"4 299 LINE",
"92 299 LINE",
"39 0 LINE"
);
},
{
closed = 1;
nodes = (
"220 299 LINE",
"336 299 LINE",
"352 393 LINE",
"237 393 LINE",
"269 577 LINE",
"393 577 LINE SMOOTH",
"499 577 OFFCURVE",
"550 510 OFFCURVE",
"550 404 CURVE SMOOTH",
"550 243 OFFCURVE",
"468 123 OFFCURVE",
"313 123 CURVE SMOOTH",
"189 123 LINE"
);
}
);
width = 716;
}
);
leftKerningGroup = I;
rightKerningGroup = D;
unicode = 00D0;
},
{
glyphname = E;
lastChange = "2016-08-30 22:22:26 +0000";
layers = (
{
anchors = (
{
name = bottom;
position = "{226, 0}";
},
{
name = ogonek;
position = "{463, 10}";
},
{
name = top;
position = "{345, 700}";
},
{
name = topleft;
position = "{20, 700}";
}
);
background = {
paths = (
{
closed = 1;
nodes = (
"427 0 LINE",
"442 86 LINE",
"139 86 LINE",
"181 323 LINE",
"413 323 LINE",
"428 409 LINE",
"196 409 LINE",
"232 614 LINE",
"527 614 LINE",
"542 700 LINE",
"151 700 LINE",
"28 0 LINE"
);
}
);
};
layerId = UUID0;
paths = (
{
closed = 1;
nodes = (
"427 0 LINE",
"442 86 LINE",
"139 86 LINE",
"181 323 LINE",
"413 323 LINE",
"428 409 LINE",
"196 409 LINE",
"232 614 LINE",
"527 614 LINE",
"542 700 LINE",
"151 700 LINE",
"28 0 LINE"
);
}
);
width = 514;
},
{
anchors = (
{
name = bottom;
position = "{245, 0}";
},
{
name = ogonek;
position = "{499, 10}";
},
{
name = top;
position = "{367, 700}";
},
{
name = topleft;
position = "{20, 700}";
}
);
background = {
paths = (
{
closed = 1;
nodes = (
"469 0 LINE",
"491 124 LINE",
"179 124 LINE",
"211 303 LINE",
"444 303 LINE",
"466 427 LINE",
"233 427 LINE",
"259 576 LINE",
"561 576 LINE",
"583 700 LINE",
"149 700 LINE",
"26 0 LINE"
);
}
);
};
layerId = "D879A026-05F7-4E99-AC55-D533E46CE7AB";
paths = (
{
closed = 1;
nodes = (
"469 0 LINE",
"491 124 LINE",
"179 124 LINE",
"211 303 LINE",
"444 303 LINE",
"466 427 LINE",
"233 427 LINE",
"259 576 LINE",
"561 576 LINE",
"583 700 LINE",
"149 700 LINE",
"26 0 LINE"
);
}
);
width = 555;
}
);
leftKerningGroup = E;
rightKerningGroup = E;
unicode = 0045;
},
{
glyphname = F;
lastChange = "2016-08-30 19:21:11 +0000";
layers = (
{
background = {
paths = (
{
closed = 1;
nodes = (
"522 614 LINE",
"537 700 LINE",
"151 700 LINE",
"28 0 LINE",
"123 0 LINE",
"180 323 LINE",
"404 323 LINE",
"419 409 LINE",
"195 409 LINE",
"231 614 LINE"
);
}
);
};
layerId = UUID0;
paths = (
{
closed = 1;
nodes = (
"123 0 LINE",
"180 323 LINE",
"404 323 LINE",
"419 409 LINE",
"195 409 LINE",
"231 614 LINE",
"522 614 LINE",
"537 700 LINE",
"151 700 LINE",
"28 0 LINE"
);
}
);
width = 487;
},
{
background = {
paths = (
{
closed = 1;
nodes = (
"542 576 LINE",
"564 700 LINE",
"149 700 LINE",
"26 0 LINE",
"154 0 LINE",
"207 303 LINE",
"429 303 LINE",
"451 427 LINE",
"229 427 LINE",
"256 576 LINE"
);
}
);
};
layerId = "D879A026-05F7-4E99-AC55-D533E46CE7AB";
paths = (
{
closed = 1;
nodes = (
"154 0 LINE",
"207 303 LINE",
"429 303 LINE",
"451 427 LINE",
"229 427 LINE",
"256 576 LINE",
"542 576 LINE",
"564 700 LINE",
"149 700 LINE",
"26 0 LINE"
);
}
);
width = 513;
}
);
leftKerningGroup = I;
unicode = 0046;
},
{
glyphname = G;
lastChange = "2016-08-30 22:32:55 +0000";
layers = (
{
background = {
paths = (
{
closed = 1;
nodes = (
"371 -14 OFFCURVE",
"470 10 OFFCURVE",
"524 39 CURVE",
"579 351 LINE",
"394 351 LINE",
"379 265 LINE",
"469 265 LINE",
"438 91 LINE",
"403 76 OFFCURVE",
"362 72 OFFCURVE",
"335 72 CURVE SMOOTH",
"209 72 OFFCURVE",
"151 162 OFFCURVE",
"151 285 CURVE SMOOTH",
"151 459 OFFCURVE",
"243 628 OFFCURVE",
"422 628 CURVE SMOOTH",
"479 628 OFFCURVE",
"543 611 OFFCURVE",
"591 591 CURVE",
"615 674 LINE",
"572 697 OFFCURVE",
"496 714 OFFCURVE",
"434 714 CURVE SMOOTH",
"221 714 OFFCURVE",
"47 536 OFFCURVE",
"47 279 CURVE SMOOTH",
"47 100 OFFCURVE",
"148 -14 OFFCURVE",
"299 -14 CURVE SMOOTH"
);
}
);
};
layerId = UUID0;
paths = (
{
closed = 1;
nodes = (
"371 -14 OFFCURVE",
"470 10 OFFCURVE",
"524 39 CURVE",
"579 351 LINE",
"394 351 LINE",
"379 265 LINE",
"469 265 LINE",
"438 91 LINE",
"403 76 OFFCURVE",
"362 72 OFFCURVE",
"335 72 CURVE SMOOTH",
"209 72 OFFCURVE",
"151 159 OFFCURVE",
"151 290 CURVE SMOOTH",
"151 456 OFFCURVE",
"243 628 OFFCURVE",
"422 628 CURVE SMOOTH",
"479 628 OFFCURVE",
"543 611 OFFCURVE",
"591 591 CURVE",
"615 674 LINE",
"572 697 OFFCURVE",
"497 714 OFFCURVE",
"432 714 CURVE SMOOTH",
"221 714 OFFCURVE",
"47 532 OFFCURVE",
"47 285 CURVE SMOOTH",
"47 97 OFFCURVE",
"148 -14 OFFCURVE",
"300 -14 CURVE"
);
}
);
width = 621;
},
{
background = {
paths = (
{
closed = 1;
nodes = (
"390 -14 OFFCURVE",
"500 10 OFFCURVE",
"553 39 CURVE",
"608 351 LINE",
"412 351 LINE",
"393 245 LINE",
"462 245 LINE",
"440 120 LINE",
"406 113 OFFCURVE",
"377 109 OFFCURVE",
"349 109 CURVE SMOOTH",
"238 109 OFFCURVE",
"184 187 OFFCURVE",
"184 298 CURVE SMOOTH",
"184 452 OFFCURVE",
"264 591 OFFCURVE",
"430 591 CURVE SMOOTH",
"489 591 OFFCURVE",
"560 573 OFFCURVE",
"607 551 CURVE",
"643 673 LINE",
"599 698 OFFCURVE",
"513 714 OFFCURVE",
"448 714 CURVE SMOOTH",
"222 714 OFFCURVE",
"42 535 OFFCURVE",
"42 283 CURVE SMOOTH",
"42 103 OFFCURVE",
"150 -14 OFFCURVE",
"313 -14 CURVE SMOOTH"
);
}
);
};
layerId = "D879A026-05F7-4E99-AC55-D533E46CE7AB";
paths = (
{
closed = 1;
nodes = (
"390 -14 OFFCURVE",
"500 10 OFFCURVE",
"553 39 CURVE",
"608 351 LINE",
"412 351 LINE",
"393 245 LINE",
"462 245 LINE",
"440 120 LINE",
"406 113 OFFCURVE",
"376 109 OFFCURVE",
"350 109 CURVE SMOOTH",
"238 109 OFFCURVE",
"184 184 OFFCURVE",
"184 304 CURVE SMOOTH",
"184 449 OFFCURVE",
"264 591 OFFCURVE",
"430 591 CURVE SMOOTH",
"489 591 OFFCURVE",
"560 573 OFFCURVE",
"607 551 CURVE",
"643 673 LINE",
"599 698 OFFCURVE",
"513 714 OFFCURVE",
"446 714 CURVE SMOOTH",
"222 714 OFFCURVE",
"42 532 OFFCURVE",
"42 289 CURVE SMOOTH",
"42 100 OFFCURVE",
"150 -14 OFFCURVE",
"315 -14 CURVE"
);
}
);
width = 646;
}
);
leftKerningGroup = O;
unicode = 0047;
},
{
glyphname = H;
lastChange = "2016-08-30 19:21:11 +0000";
layers = (
{
background = {
paths = (
{
closed = 1;
nodes = (
"555 0 LINE",
"679 700 LINE",
"584 700 LINE",
"533 411 LINE",
"195 411 LINE",
"246 700 LINE",
"151 700 LINE",
"28 0 LINE",
"123 0 LINE",
"180 321 LINE",
"517 321 LINE",
"460 0 LINE"
);
}
);
};
layerId = UUID0;
paths = (
{
closed = 1;
nodes = (
"123 0 LINE",
"180 321 LINE",
"517 321 LINE",
"460 0 LINE",
"555 0 LINE",
"679 700 LINE",
"584 700 LINE",
"533 411 LINE",
"195 411 LINE",
"246 700 LINE",
"151 700 LINE",
"28 0 LINE"
);
}
);
width = 688;
},
{
background = {
paths = (
{
closed = 1;
nodes = (
"589 0 LINE",
"712 700 LINE",
"584 700 LINE",
"536 427 LINE",
"229 427 LINE",
"277 700 LINE",
"149 700 LINE",
"26 0 LINE",
"154 0 LINE",
"207 303 LINE",
"514 303 LINE",
"461 0 LINE"
);
}
);
};
layerId = "D879A026-05F7-4E99-AC55-D533E46CE7AB";
paths = (
{
closed = 1;
nodes = (
"154 0 LINE",
"207 303 LINE",
"514 303 LINE",
"461 0 LINE",
"589 0 LINE",
"712 700 LINE",
"584 700 LINE",
"536 427 LINE",
"229 427 LINE",
"277 700 LINE",
"149 700 LINE",
"26 0 LINE"
);
}
);
width = 718;
}
);
leftKerningGroup = I;
rightKerningGroup = I;
unicode = 0048;
},
{
glyphname = I;
lastChange = "2016-08-30 22:19:03 +0000";
layers = (
{
anchors = (
{
name = bottom;
position = "{128, 0}";
},
{
name = ogonek;
position = "{229, 10}";
},
{
name = top;
position = "{198, 700}";
},
{
name = topleft;
position = "{20, 700}";
}
);
background = {
paths = (
{
closed = 1;
nodes = (
"123 0 LINE",
"246 700 LINE",
"151 700 LINE",
"28 0 LINE"
);
}
);
};
layerId = UUID0;
paths = (
{
closed = 1;
nodes = (
"123 0 LINE",
"246 700 LINE",
"151 700 LINE",
"28 0 LINE"
);
}
);
width = 255;
},
{
anchors = (
{
name = bottom;
position = "{73, 0}";
},
{
name = ogonek;
position = "{255, 10}";
},
{
name = top;
position = "{215, 700}";
},
{
name = topleft;
position = "{20, 700}";
}
);
background = {
paths = (
{
closed = 1;
nodes = (
"154 0 LINE",
"277 700 LINE",
"149 700 LINE",
"26 0 LINE"
);
}
);
};
layerId = "D879A026-05F7-4E99-AC55-D533E46CE7AB";
paths = (
{
closed = 1;
nodes = (
"154 0 LINE",
"277 700 LINE",
"149 700 LINE",
"26 0 LINE"
);
}
);
width = 283;
}
);
leftKerningGroup = I;
rightKerningGroup = I;
unicode = 0049;
},
{
glyphname = J;
lastChange = "2016-08-25 20:35:28 +0000";
layers = (
{
background = {
paths = (
{
closed = 1;
nodes = (
"-55 -172 LINE SMOOTH",
"44 -172 OFFCURVE",
"102 -122 OFFCURVE",
"118 -32 CURVE SMOOTH",
"247 700 LINE",
"152 700 LINE",
"28 -3 LINE SMOOTH",
"14 -81 OFFCURVE",
"-6 -116 OFFCURVE",
"-65 -116 CURVE SMOOTH",
"-74 -116 LINE",
"-75 -172 LINE"
);
}
);
};
layerId = UUID0;
paths = (
{
closed = 1;
nodes = (
"-55 -172 LINE SMOOTH",
"44 -172 OFFCURVE",
"102 -122 OFFCURVE",
"118 -32 CURVE SMOOTH",
"247 700 LINE",
"152 700 LINE",
"28 -3 LINE SMOOTH",
"14 -81 OFFCURVE",
"-6 -116 OFFCURVE",
"-65 -116 CURVE SMOOTH",
"-74 -116 LINE",
"-76 -172 LINE"
);
}
);
width = 256;
},
{
background = {
paths = (
{
closed = 1;
nodes = (
"-32 -172 LINE SMOOTH",
"61 -172 OFFCURVE",
"131 -124 OFFCURVE",
"149 -24 CURVE SMOOTH",
"277 700 LINE",
"149 700 LINE",
"26 4 LINE SMOOTH",
"16 -51 OFFCURVE",
"0 -76 OFFCURVE",
"-33 -76 CURVE SMOOTH",
"-63 -76 LINE",
"-70 -172 LINE"
);
}
);
};
layerId = "D879A026-05F7-4E99-AC55-D533E46CE7AB";
paths = (
{
closed = 1;
nodes = (
"-32 -172 LINE SMOOTH",
"61 -172 OFFCURVE",
"131 -124 OFFCURVE",
"149 -24 CURVE SMOOTH",
"277 700 LINE",
"149 700 LINE",
"26 4 LINE SMOOTH",
"16 -51 OFFCURVE",
"0 -76 OFFCURVE",
"-33 -76 CURVE SMOOTH",
"-63 -76 LINE",
"-70 -172 LINE"
);
}
);
width = 283;
}
);
unicode = 004A;
},
{
glyphname = K;
lastChange = "2016-08-25 20:35:28 +0000";
layers = (
{
background = {
paths = (
{
closed = 1;
nodes = (
"486 0 LINE",
"322 371 LINE",
"609 700 LINE",
"506 700 LINE",
"219 371 LINE",
"383 0 LINE"
);
},
{
closed = 1;
nodes = (
"123 0 LINE",
"246 700 LINE",
"151 700 LINE",
"28 0 LINE"
);
}
);
};
layerId = UUID0;
paths = (
{
closed = 1;
nodes = (
"486 0 LINE",
"322 371 LINE",
"609 700 LINE",
"506 700 LINE",
"219 371 LINE",
"383 0 LINE"
);
},
{
closed = 1;
nodes = (
"123 0 LINE",
"246 700 LINE",
"151 700 LINE",
"28 0 LINE"
);
}
);
width = 547;
},
{
background = {
paths = (
{
closed = 1;
nodes = (
"553 0 LINE",
"386 370 LINE",
"676 700 LINE",
"531 700 LINE",
"241 370 LINE",
"408 0 LINE"
);
},
{
closed = 1;
nodes = (
"154 0 LINE",
"277 700 LINE",
"149 700 LINE",
"26 0 LINE"
);
}
);
};
layerId = "D879A026-05F7-4E99-AC55-D533E46CE7AB";
paths = (
{
closed = 1;
nodes = (
"553 0 LINE",
"386 370 LINE",
"676 700 LINE",
"531 700 LINE",
"241 370 LINE",
"408 0 LINE"
);
},
{
closed = 1;
nodes = (
"154 0 LINE",
"277 700 LINE",
"149 700 LINE",
"26 0 LINE"
);
}
);
width = 612;
}
);
leftKerningGroup = I;
unicode = 004B;
},
{
glyphname = L;
lastChange = "2016-08-25 20:35:28 +0000";
layers = (
{
background = {
paths = (
{
closed = 1;
nodes = (
"402 0 LINE",
"418 86 LINE",
"138 86 LINE",
"246 700 LINE",
"151 700 LINE",
"28 0 LINE"
);
}
);
};
layerId = UUID0;
paths = (
{
closed = 1;
nodes = (
"402 0 LINE",
"418 86 LINE",
"138 86 LINE",
"246 700 LINE",
"151 700 LINE",
"28 0 LINE"
);
}
);
width = 467;
},
{
background = {
paths = (
{
closed = 1;
nodes = (
"425 0 LINE",
"447 124 LINE",
"176 124 LINE",
"277 700 LINE",
"149 700 LINE",
"26 0 LINE"
);
}
);
};
layerId = "D879A026-05F7-4E99-AC55-D533E46CE7AB";
paths = (
{
closed = 1;
nodes = (
"425 0 LINE",
"447 124 LINE",
"176 124 LINE",
"277 700 LINE",
"149 700 LINE",
"26 0 LINE"
);
}
);
width = 490;
}
);
leftKerningGroup = I;
unicode = 004C;
},
{
glyphname = M;
lastChange = "2016-08-30 19:21:11 +0000";
layers = (
{
background = {
paths = (
{
closed = 1;
nodes = (
"650 0 LINE",
"688 700 LINE",
"608 700 LINE",
"386 353 LINE",
"286 700 LINE",
"206 700 LINE",
"-3 0 LINE",
"97 0 LINE",
"247 529 LINE",
"354 166 LINE",
"586 529 LINE",
"550 0 LINE"
);
}
);
};
layerId = UUID0;
paths = (
{
closed = 1;
nodes = (
"97 0 LINE",
"245 516 LINE",
"354 166 LINE",
"584 516 LINE",
"550 0 LINE",
"650 0 LINE",
"688 700 LINE",
"602 700 LINE",
"386 353 LINE",
"292 700 LINE",
"206 700 LINE",
"-3 0 LINE"
);
}
);
width = 752;
},
{
background = {
paths = (
{
closed = 1;
nodes = (
"712 0 LINE",
"741 700 LINE",
"637 700 LINE",
"419 381 LINE",
"314 700 LINE",
"209 700 LINE",
"-8 0 LINE",
"125 0 LINE",
"264 468 LINE",
"378 147 LINE",
"605 469 LINE",
"579 0 LINE"
);
}
);
};
layerId = "D879A026-05F7-4E99-AC55-D533E46CE7AB";
paths = (
{
closed = 1;
nodes = (
"125 0 LINE",
"263 465 LINE",
"378 147 LINE",
"607 465 LINE",
"579 0 LINE",
"712 0 LINE",
"741 700 LINE",
"631 700 LINE",
"419 381 LINE",
"320 700 LINE",
"209 700 LINE",
"-8 0 LINE"
);
}
);
width = 809;
}
);
unicode = 004D;
},
{
glyphname = N;
lastChange = "2016-08-30 19:21:11 +0000";
layers = (
{
background = {
paths = (
{
closed = 1;
nodes = (
"520 0 LINE",
"644 700 LINE",
"548 700 LINE",
"456 176 LINE",
"251 700 LINE",
"151 700 LINE",
"28 0 LINE",
"123 0 LINE",
"221 553 LINE",
"440 0 LINE"
);
}
);
};
layerId = UUID0;
paths = (
{
closed = 1;
nodes = (
"123 0 LINE",
"221 553 LINE",
"440 0 LINE",
"520 0 LINE",
"644 700 LINE",
"548 700 LINE",
"456 176 LINE",
"251 700 LINE",
"151 700 LINE",
"28 0 LINE"
);
}
);
width = 653;
},
{
background = {
paths = (
{
closed = 1;
nodes = (
"558 0 LINE",
"682 700 LINE",
"554 700 LINE",
"474 248 LINE",
"274 700 LINE",
"149 700 LINE",
"26 0 LINE",
"154 0 LINE",
"239 480 LINE",
"454 0 LINE"
);
}
);
};
layerId = "D879A026-05F7-4E99-AC55-D533E46CE7AB";
paths = (
{
closed = 1;
nodes = (
"154 0 LINE",
"239 480 LINE",
"454 0 LINE",
"558 0 LINE",
"682 700 LINE",
"554 700 LINE",
"474 248 LINE",
"274 700 LINE",
"149 700 LINE",
"26 0 LINE"
);
}
);
width = 688;
}
);
leftKerningGroup = I;
rightKerningGroup = I;
unicode = 004E;
},
{
glyphname = O;
lastChange = "2016-08-30 22:33:14 +0000";
layers = (
{
anchors = (
{
name = bottom;
position = "{296, 0}";
},
{
name = center;
position = "{355, 350}";
},
{
name = ogonek;
position = "{639, 10}";
},
{
name = top;
position = "{426, 700}";
},
{
name = topleft;
position = "{20, 700}";
},
{
name = topright;
position = "{597, 700}";
}
);
background = {
paths = (
{
closed = 1;
nodes = (
"508 -14 OFFCURVE",
"683 165 OFFCURVE",
"683 423 CURVE SMOOTH",
"683 600 OFFCURVE",
"584 714 OFFCURVE",
"429 714 CURVE SMOOTH",
"220 714 OFFCURVE",
"46 535 OFFCURVE",
"46 277 CURVE SMOOTH",
"46 100 OFFCURVE",
"145 -14 OFFCURVE",
"300 -14 CURVE SMOOTH"
);
},
{
closed = 1;
nodes = (
"526 628 OFFCURVE",
"579 535 OFFCURVE",
"579 415 CURVE SMOOTH",
"579 238 OFFCURVE",
"481 72 OFFCURVE",
"316 72 CURVE SMOOTH",
"203 72 OFFCURVE",
"151 165 OFFCURVE",
"151 285 CURVE SMOOTH",
"151 462 OFFCURVE",
"248 628 OFFCURVE",
"414 628 CURVE SMOOTH"
);
}
);
};
layerId = UUID0;
paths = (
{
closed = 1;
nodes = (
"508 -14 OFFCURVE",
"683 170 OFFCURVE",
"683 418 CURVE SMOOTH",
"683 605 OFFCURVE",
"584 714 OFFCURVE",
"426 714 CURVE SMOOTH",
"220 714 OFFCURVE",
"46 530 OFFCURVE",
"46 282 CURVE SMOOTH",
"46 95 OFFCURVE",
"145 -14 OFFCURVE",
"303 -14 CURVE"
);
},
{
closed = 1;
nodes = (
"200 72 OFFCURVE",
"151 166 OFFCURVE",
"151 288 CURVE SMOOTH",
"151 462 OFFCURVE",
"251 628 OFFCURVE",
"410 628 CURVE",
"529 628 OFFCURVE",
"579 535 OFFCURVE",
"579 412 CURVE SMOOTH",
"579 238 OFFCURVE",
"478 72 OFFCURVE",
"319 72 CURVE SMOOTH"
);
}
);
width = 710;
},
{
anchors = (
{
name = bottom;
position = "{309, 0}";
},
{
name = center;
position = "{371, 350}";
},
{
name = ogonek;
position = "{668, 10}";
},
{
name = top;
position = "{447, 700}";
},
{
name = topleft;
position = "{20, 700}";
},
{
name = topright;
position = "{620, 700}";
}
);
background = {
paths = (
{
closed = 1;
nodes = (
"537 -14 OFFCURVE",
"720 164 OFFCURVE",
"720 418 CURVE SMOOTH",
"720 597 OFFCURVE",
"612 714 OFFCURVE",
"445 714 CURVE SMOOTH",
"225 714 OFFCURVE",
"42 536 OFFCURVE",
"42 282 CURVE SMOOTH",
"42 103 OFFCURVE",
"150 -14 OFFCURVE",
"317 -14 CURVE SMOOTH"
);
},
{
closed = 1;
nodes = (
"528 591 OFFCURVE",
"578 514 OFFCURVE",
"578 406 CURVE SMOOTH",
"578 246 OFFCURVE",
"491 109 OFFCURVE",
"338 109 CURVE SMOOTH",
"233 109 OFFCURVE",
"183 186 OFFCURVE",
"183 294 CURVE SMOOTH",
"183 454 OFFCURVE",
"270 591 OFFCURVE",
"423 591 CURVE SMOOTH"
);
}
);
};
layerId = "D879A026-05F7-4E99-AC55-D533E46CE7AB";
paths = (
{
closed = 1;
nodes = (
"537 -14 OFFCURVE",
"720 168 OFFCURVE",
"720 413 CURVE SMOOTH",
"720 601 OFFCURVE",
"612 714 OFFCURVE",
"441 714 CURVE SMOOTH",
"225 714 OFFCURVE",
"42 532 OFFCURVE",
"42 287 CURVE SMOOTH",
"42 99 OFFCURVE",
"150 -14 OFFCURVE",
"321 -14 CURVE"
);
},
{
closed = 1;
nodes = (
"233 109 OFFCURVE",
"183 182 OFFCURVE",
"183 298 CURVE SMOOTH",
"183 451 OFFCURVE",
"271 591 OFFCURVE",
"420 591 CURVE",
"528 591 OFFCURVE",
"578 518 OFFCURVE",
"578 402 CURVE SMOOTH",
"578 249 OFFCURVE",
"490 109 OFFCURVE",
"341 109 CURVE SMOOTH"
);
}
);
width = 742;
}
);
leftKerningGroup = O;
rightKerningGroup = O;
unicode = 004F;
},
{
glyphname = Oslash;
lastChange = "2016-08-30 22:33:27 +0000";
layers = (
{
background = {
paths = (
{
closed = 1;
nodes = (
"510 -12 OFFCURVE",
"684 165 OFFCURVE",
"684 420 CURVE SMOOTH",
"684 499 OFFCURVE",
"664 574 OFFCURVE",
"628 627 CURVE",
"701 716 LINE",
"606 716 LINE",
"572 672 LINE",
"527 702 OFFCURVE",
"481 714 OFFCURVE",
"429 714 CURVE SMOOTH",
"221 714 OFFCURVE",
"47 535 OFFCURVE",
"47 279 CURVE SMOOTH",
"47 203 OFFCURVE",
"65 129 OFFCURVE",
"99 75 CURVE",
"12 -30 LINE",
"108 -30 LINE",
"154 31 LINE",
"200 0 OFFCURVE",
"248 -12 OFFCURVE",
"301 -12 CURVE SMOOTH"
);
},
{
closed = 1;
nodes = (
"558 548 LINE",
"572 517 OFFCURVE",
"578 463 OFFCURVE",
"578 424 CURVE SMOOTH",
"578 240 OFFCURVE",
"483 76 OFFCURVE",
"317 76 CURVE SMOOTH",
"284 76 OFFCURVE",
"255 83 OFFCURVE",
"221 105 CURVE"
);
},
{
closed = 1;
nodes = (
"446 625 OFFCURVE",
"472 618 OFFCURVE",
"506 597 CURVE",
"170 156 LINE",
"159 200 OFFCURVE",
"154 249 OFFCURVE",
"154 287 CURVE SMOOTH",
"154 461 OFFCURVE",
"248 625 OFFCURVE",
"413 625 CURVE SMOOTH"
);
}
);
};
layerId = UUID0;
paths = (
{
closed = 1;
nodes = (
"108 -30 LINE",
"154 31 LINE",
"200 0 OFFCURVE",
"248 -12 OFFCURVE",
"301 -12 CURVE SMOOTH",
"301 -12 LINE",
"510 -12 OFFCURVE",
"684 165 OFFCURVE",
"684 420 CURVE SMOOTH",
"684 499 OFFCURVE",
"664 574 OFFCURVE",
"628 627 CURVE",
"701 716 LINE",
"606 716 LINE",
"572 672 LINE",
"527 702 OFFCURVE",
"481 714 OFFCURVE",
"429 714 CURVE SMOOTH",
"221 714 OFFCURVE",
"47 535 OFFCURVE",
"47 279 CURVE SMOOTH",
"47 203 OFFCURVE",
"65 129 OFFCURVE",
"99 75 CURVE",
"12 -30 LINE"
);
},
{
closed = 1;
nodes = (
"284 76 OFFCURVE",
"255 83 OFFCURVE",
"221 105 CURVE",
"558 548 LINE",
"572 517 OFFCURVE",
"578 463 OFFCURVE",
"578 424 CURVE SMOOTH",
"578 240 OFFCURVE",
"483 76 OFFCURVE",
"317 76 CURVE SMOOTH"
);
},
{
closed = 1;
nodes = (
"159 200 OFFCURVE",
"154 249 OFFCURVE",
"154 287 CURVE SMOOTH",
"154 461 OFFCURVE",
"248 625 OFFCURVE",
"413 625 CURVE",
"446 625 OFFCURVE",
"472 618 OFFCURVE",
"506 597 CURVE",
"170 156 LINE"
);
}
);
width = 711;
},
{
background = {
paths = (
{
closed = 1;
nodes = (
"537 -14 OFFCURVE",
"720 164 OFFCURVE",
"720 418 CURVE SMOOTH",
"720 495 OFFCURVE",
"700 568 OFFCURVE",
"666 615 CURVE",
"751 716 LINE",
"616 716 LINE",
"586 680 LINE",
"548 702 OFFCURVE",
"500 714 OFFCURVE",
"445 714 CURVE SMOOTH",
"225 714 OFFCURVE",
"42 536 OFFCURVE",
"42 281 CURVE SMOOTH",
"42 205 OFFCURVE",
"60 134 OFFCURVE",
"93 87 CURVE",
"-7 -31 LINE",
"128 -31 LINE",
"171 22 LINE",
"210 -1 OFFCURVE",
"260 -14 OFFCURVE",
"317 -14 CURVE SMOOTH"
);
},
{
closed = 1;
nodes = (
"567 502 LINE",
"575 478 OFFCURVE",
"579 441 OFFCURVE",
"579 408 CURVE SMOOTH",
"579 245 OFFCURVE",
"492 109 OFFCURVE",
"338 109 CURVE SMOOTH",
"306 109 OFFCURVE",
"279 115 OFFCURVE",
"261 126 CURVE"
);
},
{
closed = 1;
nodes = (
"453 591 OFFCURVE",
"479 585 OFFCURVE",
"496 575 CURVE",
"192 202 LINE",
"186 224 OFFCURVE",
"182 260 OFFCURVE",
"182 291 CURVE SMOOTH",
"182 455 OFFCURVE",
"270 591 OFFCURVE",
"424 591 CURVE SMOOTH"
);
}
);
};
layerId = "D879A026-05F7-4E99-AC55-D533E46CE7AB";
paths = (
{
closed = 1;
nodes = (
"128 -31 LINE",
"171 22 LINE",
"210 -1 OFFCURVE",
"260 -14 OFFCURVE",
"317 -14 CURVE SMOOTH",
"317 -14 LINE",
"537 -14 OFFCURVE",
"720 164 OFFCURVE",
"720 418 CURVE SMOOTH",
"720 495 OFFCURVE",
"700 568 OFFCURVE",
"666 615 CURVE",
"751 716 LINE",
"616 716 LINE",
"586 680 LINE",
"548 702 OFFCURVE",
"500 714 OFFCURVE",
"445 714 CURVE SMOOTH",
"225 714 OFFCURVE",
"42 536 OFFCURVE",
"42 281 CURVE SMOOTH",
"42 205 OFFCURVE",
"60 134 OFFCURVE",
"93 87 CURVE",
"-7 -31 LINE"
);
},
{
closed = 1;
nodes = (
"306 109 OFFCURVE",
"279 115 OFFCURVE",
"261 126 CURVE",
"567 502 LINE",
"575 478 OFFCURVE",
"579 441 OFFCURVE",
"579 408 CURVE SMOOTH",
"579 245 OFFCURVE",
"492 109 OFFCURVE",
"338 109 CURVE SMOOTH"
);
},
{
closed = 1;
nodes = (
"186 224 OFFCURVE",
"182 260 OFFCURVE",
"182 291 CURVE SMOOTH",
"182 455 OFFCURVE",
"270 591 OFFCURVE",
"424 591 CURVE",
"453 591 OFFCURVE",
"479 585 OFFCURVE",
"496 575 CURVE",
"192 202 LINE"
);
}
);
width = 741;
}
);
leftKerningGroup = O;
rightKerningGroup = O;
unicode = 00D8;
},
{
glyphname = OE;
lastChange = "2016-08-30 22:33:35 +0000";
layers = (
{
background = {
paths = (
{
closed = 1;
nodes = (
"888 0 LINE",
"903 86 LINE",
"620 86 LINE",
"662 323 LINE",
"873 323 LINE",
"888 409 LINE",
"677 409 LINE",
"713 614 LINE",
"988 614 LINE",
"1003 699 LINE",
"635 699 LINE",
"620 617 LINE",
"559 689 OFFCURVE",
"499 714 OFFCURVE",
"426 714 CURVE SMOOTH",
"220 714 OFFCURVE",
"47 535 OFFCURVE",
"47 277 CURVE SMOOTH",
"47 100 OFFCURVE",
"145 -14 OFFCURVE",
"297 -14 CURVE SMOOTH",
"370 -14 OFFCURVE",
"439 11 OFFCURVE",
"526 83 CURVE",
"512 0 LINE"
);
},
{
closed = 1;
nodes = (
"521 628 OFFCURVE",
"573 538 OFFCURVE",
"573 417 CURVE SMOOTH",
"573 238 OFFCURVE",
"479 72 OFFCURVE",
"312 72 CURVE SMOOTH",
"200 72 OFFCURVE",
"149 162 OFFCURVE",
"149 283 CURVE SMOOTH",
"149 462 OFFCURVE",
"243 628 OFFCURVE",
"410 628 CURVE SMOOTH"
);
}
);
};
layerId = UUID0;
paths = (
{
closed = 1;
nodes = (
"370 -14 OFFCURVE",
"439 11 OFFCURVE",
"526 83 CURVE",
"512 0 LINE",
"888 0 LINE",
"903 86 LINE",
"620 86 LINE",
"662 323 LINE",
"873 323 LINE",
"888 409 LINE",
"677 409 LINE",
"713 614 LINE",
"988 614 LINE",
"1003 699 LINE",
"635 699 LINE",
"620 617 LINE",
"559 689 OFFCURVE",
"499 714 OFFCURVE",
"426 714 CURVE SMOOTH",
"220 714 OFFCURVE",
"47 535 OFFCURVE",
"47 277 CURVE SMOOTH",
"47 100 OFFCURVE",
"145 -14 OFFCURVE",
"297 -14 CURVE SMOOTH"
);
},
{
closed = 1;
nodes = (
"200 72 OFFCURVE",
"149 162 OFFCURVE",
"149 283 CURVE SMOOTH",
"149 462 OFFCURVE",
"243 628 OFFCURVE",
"410 628 CURVE",
"521 628 OFFCURVE",
"573 538 OFFCURVE",
"573 417 CURVE SMOOTH",
"573 238 OFFCURVE",
"479 72 OFFCURVE",
"312 72 CURVE SMOOTH"
);
}
);
width = 975;
},
{
background = {
paths = (
{
closed = 1;
nodes = (
"942 0 LINE",
"964 124 LINE",
"673 124 LINE",
"705 303 LINE",
"922 303 LINE",
"944 427 LINE",
"727 427 LINE",
"753 576 LINE",
"1035 576 LINE",
"1057 700 LINE",
"643 700 LINE",
"633 645 LINE",
"591 689 OFFCURVE",
"525 714 OFFCURVE",
"446 714 CURVE SMOOTH",
"225 714 OFFCURVE",
"42 536 OFFCURVE",
"42 282 CURVE SMOOTH",
"42 103 OFFCURVE",
"151 -14 OFFCURVE",
"318 -14 CURVE SMOOTH",
"397 -14 OFFCURVE",
"471 11 OFFCURVE",
"529 55 CURVE",
"519 0 LINE"
);
},
{
closed = 1;
nodes = (
"530 591 OFFCURVE",
"580 514 OFFCURVE",
"580 406 CURVE SMOOTH",
"580 245 OFFCURVE",
"492 109 OFFCURVE",
"339 109 CURVE SMOOTH",
"234 109 OFFCURVE",
"184 186 OFFCURVE",
"184 294 CURVE SMOOTH",
"184 455 OFFCURVE",
"271 591 OFFCURVE",
"424 591 CURVE SMOOTH"
);
}
);
};
layerId = "D879A026-05F7-4E99-AC55-D533E46CE7AB";
paths = (
{
closed = 1;
nodes = (
"397 -14 OFFCURVE",
"471 11 OFFCURVE",
"529 55 CURVE",
"519 0 LINE",
"942 0 LINE",
"964 124 LINE",
"673 124 LINE",
"705 303 LINE",
"922 303 LINE",
"944 427 LINE",
"727 427 LINE",
"753 576 LINE",
"1035 576 LINE",
"1057 700 LINE",
"643 700 LINE",
"633 645 LINE",
"591 689 OFFCURVE",
"525 714 OFFCURVE",
"446 714 CURVE SMOOTH",
"225 714 OFFCURVE",
"42 536 OFFCURVE",
"42 282 CURVE SMOOTH",
"42 103 OFFCURVE",
"151 -14 OFFCURVE",
"318 -14 CURVE SMOOTH"
);
},
{
closed = 1;
nodes = (
"234 109 OFFCURVE",
"184 186 OFFCURVE",
"184 294 CURVE SMOOTH",
"184 455 OFFCURVE",
"271 591 OFFCURVE",
"424 591 CURVE",
"530 591 OFFCURVE",
"580 514 OFFCURVE",
"580 406 CURVE SMOOTH",
"580 245 OFFCURVE",
"492 109 OFFCURVE",
"339 109 CURVE SMOOTH"
);
}
);
width = 1029;
}
);
leftKerningGroup = O;
rightKerningGroup = E;
unicode = 0152;
},
{
glyphname = P;
lastChange = "2016-08-30 19:21:11 +0000";
layers = (
{
background = {
paths = (
{
closed = 1;
nodes = (
"298 245 LINE SMOOTH",
"397 245 OFFCURVE",
"549 314 OFFCURVE",
"549 538 CURVE SMOOTH",
"549 676 OFFCURVE",
"463 700 OFFCURVE",
"346 700 CURVE SMOOTH",
"151 700 LINE",
"28 0 LINE",
"126 0 LINE",
"169 245 LINE"
);
},
{
closed = 1;
nodes = (
"330 615 LINE SMOOTH",
"416 615 OFFCURVE",
"449 588 OFFCURVE",
"449 519 CURVE SMOOTH",
"449 416 OFFCURVE",
"412 330 OFFCURVE",
"297 330 CURVE SMOOTH",
"184 330 LINE",
"235 615 LINE"
);
}
);
};
layerId = UUID0;
paths = (
{
closed = 1;
nodes = (
"126 0 LINE",
"169 245 LINE",
"298 245 LINE SMOOTH",
"397 245 OFFCURVE",
"549 320 OFFCURVE",
"549 527 CURVE SMOOTH",
"549 676 OFFCURVE",
"471 700 OFFCURVE",
"346 700 CURVE SMOOTH",
"151 700 LINE",
"28 0 LINE"
);
},
{
closed = 1;
nodes = (
"235 615 LINE",
"330 615 LINE SMOOTH",
"424 615 OFFCURVE",
"449 585 OFFCURVE",
"449 511 CURVE SMOOTH",
"449 420 OFFCURVE",
"412 330 OFFCURVE",
"297 330 CURVE SMOOTH",
"184 330 LINE"
);
}
);
width = 538;
},
{
background = {
paths = (
{
closed = 1;
nodes = (
"310 230 LINE SMOOTH",
"419 230 OFFCURVE",
"600 288 OFFCURVE",
"600 534 CURVE SMOOTH",
"600 676 OFFCURVE",
"506 700 OFFCURVE",
"335 700 CURVE SMOOTH",
"149 700 LINE",
"26 0 LINE",
"153 0 LINE",
"194 230 LINE"
);
},
{
closed = 1;
nodes = (
"358 593 LINE SMOOTH",
"440 593 OFFCURVE",
"467 566 OFFCURVE",
"467 510 CURVE SMOOTH",
"467 403 OFFCURVE",
"436 350 OFFCURVE",
"315 350 CURVE SMOOTH",
"215 350 LINE",
"258 593 LINE"
);
}
);
};
layerId = "D879A026-05F7-4E99-AC55-D533E46CE7AB";
paths = (
{
closed = 1;
nodes = (
"153 0 LINE",
"194 230 LINE",
"310 230 LINE SMOOTH",
"419 230 OFFCURVE",
"600 295 OFFCURVE",
"600 522 CURVE SMOOTH",
"600 676 OFFCURVE",
"517 700 OFFCURVE",
"335 700 CURVE SMOOTH",
"149 700 LINE",
"26 0 LINE"
);
},
{
closed = 1;
nodes = (
"258 593 LINE",
"358 593 LINE SMOOTH",
"455 593 OFFCURVE",
"467 556 OFFCURVE",
"467 499 CURVE SMOOTH",
"467 403 OFFCURVE",
"432 350 OFFCURVE",
"315 350 CURVE SMOOTH",
"215 350 LINE"
);
}
);
width = 587;
}
);
leftKerningGroup = I;
unicode = 0050;
},
{
glyphname = Thorn;
lastChange = "2016-08-30 19:21:11 +0000";
layers = (
{
background = {
paths = (
{
closed = 1;
nodes = (
"217 206 LINE SMOOTH",
"442 206 OFFCURVE",
"524 269 OFFCURVE",
"524 429 CURVE SMOOTH",
"524 538 OFFCURVE",
"441 560 OFFCURVE",
"280 560 CURVE SMOOTH",
"225 560 LINE",
"249 700 LINE",
"151 700 LINE",
"28 0 LINE",
"126 0 LINE",
"162 206 LINE"
);
},
{
closed = 1;
nodes = (
"301 503 LINE SMOOTH",
"388 503 OFFCURVE",
"427 478 OFFCURVE",
"427 413 CURVE SMOOTH",
"427 320 OFFCURVE",
"383 261 OFFCURVE",
"258 261 CURVE SMOOTH",
"172 261 LINE",
"215 503 LINE"
);
}
);
};
layerId = UUID0;
paths = (
{
closed = 1;
nodes = (
"126 0 LINE",
"162 206 LINE",
"217 206 LINE SMOOTH",
"442 206 OFFCURVE",
"524 269 OFFCURVE",
"524 429 CURVE SMOOTH",
"524 538 OFFCURVE",
"441 560 OFFCURVE",
"280 560 CURVE SMOOTH",
"225 560 LINE",
"249 700 LINE",
"151 700 LINE",
"28 0 LINE"
);
},
{
closed = 1;
nodes = (
"215 503 LINE",
"301 503 LINE SMOOTH",
"388 503 OFFCURVE",
"427 478 OFFCURVE",
"427 413 CURVE SMOOTH",
"427 320 OFFCURVE",
"383 261 OFFCURVE",
"258 261 CURVE SMOOTH",
"172 261 LINE"
);
}
);
width = 525;
},
{
background = {
paths = (
{
closed = 1;
nodes = (
"228 193 LINE SMOOTH",
"444 193 OFFCURVE",
"550 252 OFFCURVE",
"550 427 CURVE SMOOTH",
"550 549 OFFCURVE",
"452 569 OFFCURVE",
"294 569 CURVE SMOOTH",
"254 569 LINE",
"277 700 LINE",
"149 700 LINE",
"26 0 LINE",
"153 0 LINE",
"187 193 LINE"
);
},
{
closed = 1;
nodes = (
"308 471 LINE SMOOTH",
"390 471 OFFCURVE",
"417 451 OFFCURVE",
"417 405 CURVE SMOOTH",
"417 342 OFFCURVE",
"397 289 OFFCURVE",
"276 289 CURVE SMOOTH",
"204 289 LINE",
"236 471 LINE"
);
}
);
};
layerId = "D879A026-05F7-4E99-AC55-D533E46CE7AB";
paths = (
{
closed = 1;
nodes = (
"153 0 LINE",
"187 193 LINE",
"228 193 LINE SMOOTH",
"444 193 OFFCURVE",
"550 252 OFFCURVE",
"550 427 CURVE SMOOTH",
"550 549 OFFCURVE",
"452 569 OFFCURVE",
"294 569 CURVE SMOOTH",
"254 569 LINE",
"277 700 LINE",
"149 700 LINE",
"26 0 LINE"
);
},
{
closed = 1;
nodes = (
"236 471 LINE",
"308 471 LINE SMOOTH",
"390 471 OFFCURVE",
"417 451 OFFCURVE",
"417 405 CURVE SMOOTH",
"417 342 OFFCURVE",
"397 289 OFFCURVE",
"276 289 CURVE SMOOTH",
"204 289 LINE"
);
}
);
width = 550;
}
);
leftKerningGroup = I;
unicode = 00DE;
},
{
glyphname = Q;
lastChange = "2016-08-30 19:21:11 +0000";
layers = (
{
background = {
paths = (
{
closed = 1;
nodes = (
"616 62 LINE",
"570 111 LINE",
"649 219 OFFCURVE",
"683 312 OFFCURVE",
"683 423 CURVE SMOOTH",
"683 600 OFFCURVE",
"584 714 OFFCURVE",
"429 714 CURVE SMOOTH",
"220 714 OFFCURVE",
"46 535 OFFCURVE",
"46 277 CURVE SMOOTH",
"46 100 OFFCURVE",
"146 -14 OFFCURVE",
"300 -14 CURVE SMOOTH",
"370 -14 OFFCURVE",
"437 8 OFFCURVE",
"503 57 CURVE",
"553 3 LINE"
);
},
{
closed = 1;
nodes = (
"529 628 OFFCURVE",
"584 535 OFFCURVE",
"584 413 CURVE SMOOTH",
"584 294 OFFCURVE",
"554 241 OFFCURVE",
"509 172 CURVE",
"434 257 LINE",
"371 196 LINE",
"446 112 LINE",
"404 79 OFFCURVE",
"354 72 OFFCURVE",
"316 72 CURVE SMOOTH",
"202 72 OFFCURVE",
"151 163 OFFCURVE",
"151 284 CURVE SMOOTH",
"151 462 OFFCURVE",
"246 628 OFFCURVE",
"414 628 CURVE SMOOTH"
);
}
);
};
layerId = UUID0;
paths = (
{
closed = 1;
nodes = (
"370 -14 OFFCURVE",
"437 8 OFFCURVE",
"503 57 CURVE",
"553 3 LINE",
"616 62 LINE",
"570 111 LINE",
"649 219 OFFCURVE",
"683 313 OFFCURVE",
"683 420 CURVE SMOOTH",
"683 600 OFFCURVE",
"587 714 OFFCURVE",
"425 714 CURVE SMOOTH",
"220 714 OFFCURVE",
"46 530 OFFCURVE",
"46 283 CURVE SMOOTH",
"46 96 OFFCURVE",
"146 -14 OFFCURVE",
"301 -14 CURVE SMOOTH"
);
},
{
closed = 1;
nodes = (
"200 72 OFFCURVE",
"151 162 OFFCURVE",
"151 286 CURVE SMOOTH",
"151 461 OFFCURVE",
"248 628 OFFCURVE",
"411 628 CURVE SMOOTH",
"411 628 LINE",
"529 628 OFFCURVE",
"584 541 OFFCURVE",
"584 404 CURVE SMOOTH",
"584 291 OFFCURVE",
"547 230 OFFCURVE",
"509 172 CURVE",
"434 257 LINE",
"371 196 LINE",
"446 112 LINE",
"404 79 OFFCURVE",
"353 72 OFFCURVE",
"320 72 CURVE SMOOTH"
);
}
);
width = 709;
},
{
background = {
paths = (
{
closed = 1;
nodes = (
"666 79 LINE",
"616 130 LINE",
"677 210 OFFCURVE",
"720 305 OFFCURVE",
"720 418 CURVE SMOOTH",
"720 597 OFFCURVE",
"612 714 OFFCURVE",
"445 714 CURVE SMOOTH",
"225 714 OFFCURVE",
"42 536 OFFCURVE",
"42 282 CURVE SMOOTH",
"42 103 OFFCURVE",
"150 -14 OFFCURVE",
"317 -14 CURVE SMOOTH",
"390 -14 OFFCURVE",
"461 7 OFFCURVE",
"519 47 CURVE",
"576 -10 LINE"
);
},
{
closed = 1;
nodes = (
"528 591 OFFCURVE",
"577 514 OFFCURVE",
"577 407 CURVE SMOOTH",
"577 332 OFFCURVE",
"553 271 OFFCURVE",
"524 218 CURVE",
"456 292 LINE",
"365 203 LINE",
"430 132 LINE",
"404 117 OFFCURVE",
"375 109 OFFCURVE",
"338 109 CURVE SMOOTH",
"233 109 OFFCURVE",
"183 186 OFFCURVE",
"183 294 CURVE SMOOTH",
"183 455 OFFCURVE",
"270 591 OFFCURVE",
"423 591 CURVE SMOOTH"
);
}
);
};
layerId = "D879A026-05F7-4E99-AC55-D533E46CE7AB";
paths = (
{
closed = 1;
nodes = (
"390 -14 OFFCURVE",
"461 7 OFFCURVE",
"519 47 CURVE",
"576 -10 LINE",
"666 79 LINE",
"616 130 LINE",
"677 210 OFFCURVE",
"720 305 OFFCURVE",
"720 418 CURVE SMOOTH",
"720 597 OFFCURVE",
"614 714 OFFCURVE",
"441 714 CURVE SMOOTH",
"225 714 OFFCURVE",
"42 531 OFFCURVE",
"42 287 CURVE SMOOTH",
"42 100 OFFCURVE",
"150 -14 OFFCURVE",
"318 -14 CURVE SMOOTH"
);
},
{
closed = 1;
nodes = (
"233 109 OFFCURVE",
"183 183 OFFCURVE",
"183 299 CURVE SMOOTH",
"183 453 OFFCURVE",
"272 591 OFFCURVE",
"420 591 CURVE SMOOTH",
"420 591 LINE",
"530 591 OFFCURVE",
"577 514 OFFCURVE",
"577 408 CURVE SMOOTH",
"577 332 OFFCURVE",
"553 271 OFFCURVE",
"524 218 CURVE",
"456 292 LINE",
"365 203 LINE",
"430 132 LINE",
"404 117 OFFCURVE",
"374 109 OFFCURVE",
"339 109 CURVE SMOOTH"
);
}
);
width = 742;
}
);
leftKerningGroup = O;
rightKerningGroup = O;
unicode = 0051;
},
{
glyphname = R;
lastChange = "2016-08-30 19:21:11 +0000";
layers = (
{
background = {
paths = (
{
closed = 1;
nodes = (
"491 0 LINE",
"398 298 LINE",
"486 343 OFFCURVE",
"551 429 OFFCURVE",
"551 542 CURVE SMOOTH",
"551 661 OFFCURVE",
"475 700 OFFCURVE",
"364 700 CURVE SMOOTH",
"151 700 LINE",
"28 0 LINE",
"126 0 LINE",
"174 273 LINE",
"302 273 LINE",
"390 0 LINE"
);
},
{
closed = 1;
nodes = (
"342 623 LINE SMOOTH",
"417 623 OFFCURVE",
"450 586 OFFCURVE",
"450 525 CURVE SMOOTH",
"450 409 OFFCURVE",
"389 365 OFFCURVE",
"310 365 CURVE SMOOTH",
"190 365 LINE",
"236 623 LINE"
);
}
);
};
layerId = UUID0;
paths = (
{
closed = 1;
nodes = (
"126 0 LINE",
"174 273 LINE",
"302 273 LINE",
"390 0 LINE",
"491 0 LINE",
"398 298 LINE",
"483 341 OFFCURVE",
"551 427 OFFCURVE",
"551 541 CURVE SMOOTH",
"551 661 OFFCURVE",
"476 700 OFFCURVE",
"364 700 CURVE SMOOTH",
"151 700 LINE",
"28 0 LINE"
);
},
{
closed = 1;
nodes = (
"236 623 LINE",
"342 623 LINE SMOOTH",
"421 623 OFFCURVE",
"450 586 OFFCURVE",
"450 516 CURVE SMOOTH",
"450 414 OFFCURVE",
"389 365 OFFCURVE",
"310 365 CURVE SMOOTH",
"190 365 LINE"
);
}
);
width = 565;
},
{
background = {
paths = (
{
closed = 1;
nodes = (
"546 0 LINE",
"446 294 LINE",
"529 343 OFFCURVE",
"600 408 OFFCURVE",
"600 538 CURVE SMOOTH",
"600 658 OFFCURVE",
"513 700 OFFCURVE",
"400 700 CURVE SMOOTH",
"149 700 LINE",
"26 0 LINE",
"153 0 LINE",
"199 260 LINE",
"321 260 LINE",
"413 0 LINE"
);
},
{
closed = 1;
nodes = (
"349 593 LINE SMOOTH",
"437 593 OFFCURVE",
"463 564 OFFCURVE",
"463 516 CURVE SMOOTH",
"463 426 OFFCURVE",
"423 380 OFFCURVE",
"302 380 CURVE SMOOTH",
"220 380 LINE",
"258 593 LINE"
);
}
);
};
layerId = "D879A026-05F7-4E99-AC55-D533E46CE7AB";
paths = (
{
closed = 1;
nodes = (
"153 0 LINE",
"199 260 LINE",
"321 260 LINE",
"413 0 LINE",
"546 0 LINE",
"446 294 LINE",
"526 340 OFFCURVE",
"600 411 OFFCURVE",
"600 531 CURVE SMOOTH",
"600 658 OFFCURVE",
"518 700 OFFCURVE",
"400 700 CURVE SMOOTH",
"149 700 LINE",
"26 0 LINE"
);
},
{
closed = 1;
nodes = (
"258 593 LINE",
"349 593 LINE SMOOTH",
"446 593 OFFCURVE",
"463 560 OFFCURVE",
"463 509 CURVE SMOOTH",
"463 426 OFFCURVE",
"419 380 OFFCURVE",
"302 380 CURVE SMOOTH",
"220 380 LINE"
);
}
);
width = 613;
}
);
leftKerningGroup = I;
unicode = 0052;
},
{
glyphname = S;
lastChange = "2016-08-30 19:21:11 +0000";
layers = (
{
background = {
paths = (
{
closed = 1;
nodes = (
"421 -14 OFFCURVE",
"488 107 OFFCURVE",
"488 216 CURVE SMOOTH",
"488 339 OFFCURVE",
"387 374 OFFCURVE",
"297 408 CURVE SMOOTH",
"234 432 OFFCURVE",
"183 456 OFFCURVE",
"183 511 CURVE SMOOTH",
"183 594 OFFCURVE",
"271 628 OFFCURVE",
"336 628 CURVE SMOOTH",
"398 628 OFFCURVE",
"449 599 OFFCURVE",
"507 565 CURVE",
"534 666 LINE",
"503 688 OFFCURVE",
"427 714 OFFCURVE",
"344 714 CURVE SMOOTH",
"149 714 OFFCURVE",
"78 574 OFFCURVE",
"78 485 CURVE SMOOTH",
"78 387 OFFCURVE",
"163 354 OFFCURVE",
"247 321 CURVE SMOOTH",
"320 292 OFFCURVE",
"381 263 OFFCURVE",
"381 197 CURVE SMOOTH",
"381 107 OFFCURVE",
"305 72 OFFCURVE",
"222 72 CURVE SMOOTH",
"134 72 OFFCURVE",
"71 108 OFFCURVE",
"38 142 CURVE",
"6 31 LINE",
"40 8 OFFCURVE",
"111 -14 OFFCURVE",
"205 -14 CURVE SMOOTH"
);
}
);
};
layerId = UUID0;
paths = (
{
closed = 1;
nodes = (
"421 -14 OFFCURVE",
"488 108 OFFCURVE",
"488 213 CURVE SMOOTH",
"488 342 OFFCURVE",
"387 373 OFFCURVE",
"297 408 CURVE SMOOTH",
"227 435 OFFCURVE",
"183 457 OFFCURVE",
"183 513 CURVE SMOOTH",
"183 593 OFFCURVE",
"271 628 OFFCURVE",
"337 628 CURVE SMOOTH",
"397 628 OFFCURVE",
"449 599 OFFCURVE",
"507 565 CURVE",
"534 666 LINE",
"503 688 OFFCURVE",
"427 714 OFFCURVE",
"344 714 CURVE SMOOTH",
"149 714 OFFCURVE",
"78 574 OFFCURVE",
"78 485 CURVE SMOOTH",
"78 382 OFFCURVE",
"173 351 OFFCURVE",
"247 321 CURVE SMOOTH",
"321 291 OFFCURVE",
"381 266 OFFCURVE",
"381 192 CURVE SMOOTH",
"381 109 OFFCURVE",
"305 72 OFFCURVE",
"219 72 CURVE SMOOTH",
"135 72 OFFCURVE",
"71 108 OFFCURVE",
"38 142 CURVE",
"6 31 LINE",
"40 8 OFFCURVE",
"112 -14 OFFCURVE",
"204 -14 CURVE SMOOTH",
"204 -14 LINE"
);
}
);
width = 538;
},
{
background = {
paths = (
{
closed = 1;
nodes = (
"445 -14 OFFCURVE",
"519 110 OFFCURVE",
"519 224 CURVE SMOOTH",
"519 350 OFFCURVE",
"412 387 OFFCURVE",
"325 417 CURVE SMOOTH",
"262 438 OFFCURVE",
"208 459 OFFCURVE",
"208 508 CURVE SMOOTH",
"208 576 OFFCURVE",
"288 592 OFFCURVE",
"341 592 CURVE SMOOTH",
"404 592 OFFCURVE",
"461 570 OFFCURVE",
"527 529 CURVE",
"563 660 LINE",
"533 684 OFFCURVE",
"451 714 OFFCURVE",
"358 714 CURVE SMOOTH",
"154 714 OFFCURVE",
"75 573 OFFCURVE",
"75 476 CURVE SMOOTH",
"75 374 OFFCURVE",
"161 341 OFFCURVE",
"239 310 CURVE SMOOTH",
"307 283 OFFCURVE",
"372 259 OFFCURVE",
"372 198 CURVE SMOOTH",
"372 132 OFFCURVE",
"324 109 OFFCURVE",
"244 109 CURVE SMOOTH",
"142 109 OFFCURVE",
"74 146 OFFCURVE",
"45 183 CURVE",
"5 37 LINE",
"38 11 OFFCURVE",
"117 -14 OFFCURVE",
"219 -14 CURVE SMOOTH"
);
}
);
};
layerId = "D879A026-05F7-4E99-AC55-D533E46CE7AB";
paths = (
{
closed = 1;
nodes = (
"445 -14 OFFCURVE",
"519 111 OFFCURVE",
"519 221 CURVE SMOOTH",
"519 349 OFFCURVE",
"418 385 OFFCURVE",
"325 417 CURVE SMOOTH",
"257 440 OFFCURVE",
"208 459 OFFCURVE",
"208 510 CURVE SMOOTH",
"208 575 OFFCURVE",
"288 592 OFFCURVE",
"342 592 CURVE SMOOTH",
"404 592 OFFCURVE",
"461 570 OFFCURVE",
"527 529 CURVE",
"563 660 LINE",
"533 684 OFFCURVE",
"451 714 OFFCURVE",
"358 714 CURVE SMOOTH",
"154 714 OFFCURVE",
"75 573 OFFCURVE",
"75 476 CURVE SMOOTH",
"75 374 OFFCURVE",
"161 341 OFFCURVE",
"239 310 CURVE SMOOTH",
"326 276 OFFCURVE",
"372 254 OFFCURVE",
"372 194 CURVE SMOOTH",
"372 132 OFFCURVE",
"322 109 OFFCURVE",
"243 109 CURVE SMOOTH",
"143 109 OFFCURVE",
"74 146 OFFCURVE",
"45 183 CURVE",
"5 37 LINE",
"38 11 OFFCURVE",
"117 -14 OFFCURVE",
"219 -14 CURVE SMOOTH",
"219 -14 LINE"
);
}
);
width = 566;
}
);
leftKerningGroup = S;
rightKerningGroup = S;
unicode = 0053;
},
{
glyphname = T;
lastChange = "2016-08-30 19:21:11 +0000";
layers = (
{
background = {
paths = (
{
closed = 1;
nodes = (
"546 614 LINE",
"561 700 LINE",
"102 700 LINE",
"87 614 LINE",
"269 614 LINE",
"161 0 LINE",
"256 0 LINE",
"364 614 LINE"
);
}
);
};
layerId = UUID0;
paths = (
{
closed = 1;
nodes = (
"256 0 LINE",
"364 614 LINE",
"546 614 LINE",
"561 700 LINE",
"102 700 LINE",
"87 614 LINE",
"269 614 LINE",
"161 0 LINE"
);
}
);
width = 523;
},
{
background = {
paths = (
{
closed = 1;
nodes = (
"585 576 LINE",
"607 700 LINE",
"101 700 LINE",
"79 576 LINE",
"268 576 LINE",
"167 0 LINE",
"295 0 LINE",
"396 576 LINE"
);
}
);
};
layerId = "D879A026-05F7-4E99-AC55-D533E46CE7AB";
paths = (
{
closed = 1;
nodes = (
"295 0 LINE",
"396 576 LINE",
"585 576 LINE",
"607 700 LINE",
"101 700 LINE",
"79 576 LINE",
"268 576 LINE",
"167 0 LINE"
);
}
);
width = 564;
}
);
unicode = 0054;
},
{
glyphname = U;
lastChange = "2016-08-30 22:20:30 +0000";
layers = (
{
anchors = (
{
name = bottom;
position = "{274, 0}";
},
{
name = ogonek;
position = "{601, 10}";
},
{
name = top;
position = "{411, 700}";
},
{
name = topright;
position = "{695, 700}";
}
);
background = {
paths = (
{
closed = 1;
nodes = (
"457 -14 OFFCURVE",
"562 105 OFFCURVE",
"596 297 CURVE SMOOTH",
"667 700 LINE",
"572 700 LINE",
"509 343 LINE SMOOTH",
"485 206 OFFCURVE",
"436 72 OFFCURVE",
"295 72 CURVE SMOOTH",
"155 72 OFFCURVE",
"153 205 OFFCURVE",
"177 343 CURVE SMOOTH",
"240 700 LINE",
"145 700 LINE",
"74 297 LINE SMOOTH",
"40 105 OFFCURVE",
"103 -14 OFFCURVE",
"280 -14 CURVE SMOOTH"
);
}
);
};
layerId = UUID0;
paths = (
{
closed = 1;
nodes = (
"457 -14 OFFCURVE",
"562 105 OFFCURVE",
"596 297 CURVE SMOOTH",
"667 700 LINE",
"572 700 LINE",
"509 343 LINE SMOOTH",
"485 206 OFFCURVE",
"436 72 OFFCURVE",
"295 72 CURVE SMOOTH",
"195 72 OFFCURVE",
"165 140 OFFCURVE",
"165 229 CURVE SMOOTH",
"165 265 OFFCURVE",
"170 304 OFFCURVE",
"177 343 CURVE SMOOTH",
"240 700 LINE",
"145 700 LINE",
"74 297 LINE SMOOTH",
"68 264 OFFCURVE",
"65 233 OFFCURVE",
"65 204 CURVE SMOOTH",
"65 67 OFFCURVE",
"134 -14 OFFCURVE",
"280 -14 CURVE"
);
}
);
width = 668;
},
{
anchors = (
{
name = bottom;
position = "{285, 0}";
},
{
name = ogonek;
position = "{625, 10}";
},
{
name = top;
position = "{418, 700}";
},
{
name = topright;
position = "{744, 700}";
}
);
background = {
paths = (
{
closed = 1;
nodes = (
"483 -14 OFFCURVE",
"593 110 OFFCURVE",
"627 300 CURVE SMOOTH",
"698 700 LINE",
"570 700 LINE",
"507 343 LINE SMOOTH",
"484 213 OFFCURVE",
"440 109 OFFCURVE",
"315 109 CURVE SMOOTH",
"190 109 OFFCURVE",
"183 213 OFFCURVE",
"206 343 CURVE SMOOTH",
"269 700 LINE",
"142 700 LINE",
"71 300 LINE SMOOTH",
"37 110 OFFCURVE",
"104 -14 OFFCURVE",
"294 -14 CURVE SMOOTH"
);
}
);
};
layerId = "D879A026-05F7-4E99-AC55-D533E46CE7AB";
paths = (
{
closed = 1;
nodes = (
"483 -14 OFFCURVE",
"593 110 OFFCURVE",
"627 300 CURVE SMOOTH",
"698 700 LINE",
"570 700 LINE",
"507 343 LINE SMOOTH",
"484 213 OFFCURVE",
"440 109 OFFCURVE",
"315 109 CURVE SMOOTH",
"224 109 OFFCURVE",
"197 164 OFFCURVE",
"196 245 CURVE SMOOTH",
"196 273 OFFCURVE",
"199 304 OFFCURVE",
"206 343 CURVE SMOOTH",
"269 700 LINE",
"142 700 LINE",
"71 300 LINE SMOOTH",
"65 267 OFFCURVE",
"63 235 OFFCURVE",
"63 212 CURVE SMOOTH",
"63 71 OFFCURVE",
"137 -14 OFFCURVE",
"294 -14 CURVE"
);
}
);
width = 695;
}
);
leftKerningGroup = U;
rightKerningGroup = U;
unicode = 0055;
},
{
glyphname = V;
lastChange = "2016-08-30 19:21:11 +0000";
layers = (
{
layerId = UUID0;
paths = (
{
closed = 1;
nodes = (
"294 0 LINE",
"653 700 LINE",
"553 700 LINE",
"261 115 LINE",
"175 700 LINE",
"75 700 LINE",
"188 0 LINE"
);
}
);
width = 595;
},
{
layerId = "D879A026-05F7-4E99-AC55-D533E46CE7AB";
paths = (
{
closed = 1;
nodes = (
"344 0 LINE",
"701 700 LINE",
"569 700 LINE",
"295 149 LINE",
"203 700 LINE",
"70 700 LINE",
"186 0 LINE"
);
}
);
width = 638;
}
);
unicode = 0056;
},
{
glyphname = W;
lastChange = "2016-08-30 19:21:11 +0000";
layers = (
{
layerId = UUID0;
paths = (
{
closed = 1;
nodes = (
"245 0 LINE",
"496 574 LINE",
"541 0 LINE",
"637 0 LINE",
"945 700 LINE",
"846 700 LINE",
"608 119 LINE",
"556 686 LINE",
"477 686 LINE",
"222 118 LINE",
"193 700 LINE",
"93 700 LINE",
"146 0 LINE"
);
}
);
width = 889;
},
{
layerId = "D879A026-05F7-4E99-AC55-D533E46CE7AB";
paths = (
{
closed = 1;
nodes = (
"271 0 LINE",
"500 467 LINE",
"566 0 LINE",
"676 0 LINE",
"996 700 LINE",
"863 700 LINE",
"652 216 LINE",
"585 700 LINE",
"499 700 LINE",
"264 203 LINE",
"220 700 LINE",
"87 700 LINE",
"153 0 LINE"
);
}
);
width = 934;
}
);
unicode = 0057;
},
{
glyphname = X;
lastChange = "2016-08-30 19:21:11 +0000";
layers = (
{
background = {
paths = (
{
closed = 1;
nodes = (
"500 0 LINE",
"341 356 LINE",
"619 700 LINE",
"516 700 LINE",
"306 422 LINE",
"198 700 LINE",
"88 700 LINE",
"232 357 LINE",
"-39 0 LINE",
"65 0 LINE",
"275 287 LINE",
"397 0 LINE"
);
}
);
};
layerId = UUID0;
paths = (
{
closed = 1;
nodes = (
"65 0 LINE",
"275 287 LINE",
"397 0 LINE",
"500 0 LINE",
"341 356 LINE",
"619 700 LINE",
"516 700 LINE",
"306 422 LINE",
"198 700 LINE",
"88 700 LINE",
"232 357 LINE",
"-39 0 LINE"
);
}
);
width = 562;
},
{
background = {
paths = (
{
closed = 1;
nodes = (
"563 0 LINE",
"394 355 LINE",
"671 700 LINE",
"522 700 LINE",
"339 448 LINE",
"235 700 LINE",
"87 700 LINE",
"249 360 LINE",
"-49 0 LINE",
"99 0 LINE",
"300 257 LINE",
"413 0 LINE"
);
}
);
};
layerId = "D879A026-05F7-4E99-AC55-D533E46CE7AB";
paths = (
{
closed = 1;
nodes = (
"99 0 LINE",
"300 257 LINE",
"413 0 LINE",
"563 0 LINE",
"394 355 LINE",
"671 700 LINE",
"522 700 LINE",
"339 448 LINE",
"235 700 LINE",
"87 700 LINE",
"249 360 LINE",
"-49 0 LINE"
);
}
);
width = 616;
}
);
unicode = 0058;
},
{
glyphname = Y;
lastChange = "2016-08-30 22:20:38 +0000";
layers = (
{
anchors = (
{
name = bottom;
position = "{273, 0}";
},
{
name = top;
position = "{335, 700}";
},
{
name = topleft;
position = "{20, 700}";
}
);
background = {
paths = (
{
closed = 1;
nodes = (
"604 700 LINE",
"504 700 LINE",
"292 409 LINE",
"178 700 LINE",
"78 700 LINE",
"226 323 LINE",
"169 0 LINE",
"267 0 LINE",
"324 323 LINE"
);
}
);
};
layerId = UUID0;
paths = (
{
closed = 1;
nodes = (
"267 0 LINE",
"324 323 LINE",
"604 700 LINE",
"504 700 LINE",
"292 409 LINE",
"178 700 LINE",
"78 700 LINE",
"226 323 LINE",
"169 0 LINE"
);
}
);
width = 546;
},
{
anchors = (
{
name = bottom;
position = "{302, 0}";
},
{
name = top;
position = "{369, 700}";
},
{
name = topleft;
position = "{20, 700}";
}
);
background = {
paths = (
{
closed = 1;
nodes = (
"667 700 LINE",
"531 700 LINE",
"323 420 LINE",
"209 700 LINE",
"73 700 LINE",
"237 310 LINE",
"183 0 LINE",
"310 0 LINE",
"365 310 LINE"
);
}
);
};
layerId = "D879A026-05F7-4E99-AC55-D533E46CE7AB";
paths = (
{
closed = 1;
nodes = (
"310 0 LINE",
"365 310 LINE",
"667 700 LINE",
"531 700 LINE",
"323 420 LINE",
"209 700 LINE",
"73 700 LINE",
"237 310 LINE",
"183 0 LINE"
);
}
);
width = 603;
}
);
leftKerningGroup = Y;
rightKerningGroup = Y;
unicode = 0059;
},
{
glyphname = Z;
lastChange = "2016-08-30 19:21:11 +0000";
layers = (
{
background = {
paths = (
{
closed = 1;
nodes = (
"562 700 LINE",
"123 700 LINE",
"108 614 LINE",
"390 614 LINE",
"-41 0 LINE",
"398 0 LINE",
"413 86 LINE",
"130 86 LINE"
);
}
);
};
layerId = UUID0;
paths = (
{
closed = 1;
nodes = (
"398 0 LINE",
"413 86 LINE",
"130 86 LINE",
"562 700 LINE",
"123 700 LINE",
"108 614 LINE",
"390 614 LINE",
"-41 0 LINE"
);
}
);
width = 500;
},
{
background = {
paths = (
{
closed = 1;
nodes = (
"596 700 LINE",
"128 700 LINE",
"106 576 LINE",
"363 576 LINE",
"-39 0 LINE",
"429 0 LINE",
"451 124 LINE",
"194 124 LINE"
);
}
);
};
layerId = "D879A026-05F7-4E99-AC55-D533E46CE7AB";
paths = (
{
closed = 1;
nodes = (
"429 0 LINE",
"451 124 LINE",
"194 124 LINE",
"596 700 LINE",
"128 700 LINE",
"106 576 LINE",
"363 576 LINE",
"-39 0 LINE"
);
}
);
width = 536;
}
);
leftKerningGroup = Z;
rightKerningGroup = Z;
unicode = 005A;
},
{
glyphname = a;
lastChange = "2016-08-30 22:22:42 +0000";
layers = (
{
anchors = (
{
name = bottom;
position = "{205, 0}";
},
{
name = ogonek;
position = "{486, 10}";
},
{
name = top;
position = "{311, 490}";
}
);
background = {
paths = (
{
closed = 1;
nodes = (
"492 490 LINE",
"412 490 LINE",
"393 438 LINE",
"367 489 OFFCURVE",
"320 500 OFFCURVE",
"278 500 CURVE SMOOTH",
"129 500 OFFCURVE",
"21 349 OFFCURVE",
"21 196 CURVE SMOOTH",
"21 79 OFFCURVE",
"84 -10 OFFCURVE",
"188 -10 CURVE SMOOTH",
"236 -10 OFFCURVE",
"297 15 OFFCURVE",
"337 62 CURVE",
"351 -8 OFFCURVE",
"394 -10 OFFCURVE",
"451 -10 CURVE",
"476 62 LINE",
"442 62 OFFCURVE",
"429 72 OFFCURVE",
"429 103 CURVE SMOOTH",
"429 114 OFFCURVE",
"430 127 OFFCURVE",
"433 143 CURVE SMOOTH"
);
},
{
closed = 1;
nodes = (
"327 420 OFFCURVE",
"371 373 OFFCURVE",
"371 284 CURVE SMOOTH",
"371 136 OFFCURVE",
"290 70 OFFCURVE",
"209 70 CURVE SMOOTH",
"147 70 OFFCURVE",
"115 130 OFFCURVE",
"115 205 CURVE SMOOTH",
"115 319 OFFCURVE",
"180 420 OFFCURVE",
"271 420 CURVE SMOOTH"
);
}
);
};
layerId = UUID0;
paths = (
{
closed = 1;
nodes = (
"237 -10 OFFCURVE",
"297 15 OFFCURVE",
"337 62 CURVE",
"351 -8 OFFCURVE",
"394 -10 OFFCURVE",
"451 -10 CURVE",
"476 62 LINE",
"441 62 OFFCURVE",
"429 72 OFFCURVE",
"429 104 CURVE SMOOTH",
"429 113 OFFCURVE",
"430 127 OFFCURVE",
"433 143 CURVE SMOOTH",
"492 490 LINE",
"412 490 LINE",
"393 438 LINE",
"367 489 OFFCURVE",
"320 500 OFFCURVE",
"279 500 CURVE SMOOTH",
"129 500 OFFCURVE",
"21 349 OFFCURVE",
"21 196 CURVE SMOOTH",
"21 79 OFFCURVE",
"85 -10 OFFCURVE",
"184 -10 CURVE SMOOTH"
);
},
{
closed = 1;
nodes = (
"144 70 OFFCURVE",
"115 130 OFFCURVE",
"115 205 CURVE SMOOTH",
"115 319 OFFCURVE",
"181 420 OFFCURVE",
"269 420 CURVE SMOOTH",
"327 420 OFFCURVE",
"371 377 OFFCURVE",
"371 277 CURVE SMOOTH",
"371 142 OFFCURVE",
"290 70 OFFCURVE",
"214 70 CURVE SMOOTH"
);
}
);
width = 540;
},
{
anchors = (
{
name = bottom;
position = "{219, 0}";
},
{
name = ogonek;
position = "{526, 10}";
},
{
name = top;
position = "{343, 500}";
}
);
background = {
paths = (
{
closed = 1;
nodes = (
"537 500 LINE",
"423 500 LINE",
"409 475 LINE",
"384 496 OFFCURVE",
"358 508 OFFCURVE",
"308 508 CURVE SMOOTH",
"126 508 OFFCURVE",
"18 359 OFFCURVE",
"18 200 CURVE SMOOTH",
"18 85 OFFCURVE",
"81 -10 OFFCURVE",
"216 -10 CURVE SMOOTH",
"267 -10 OFFCURVE",
"321 19 OFFCURVE",
"350 48 CURVE",
"375 0 OFFCURVE",
"394 -10 OFFCURVE",
"496 -10 CURVE",
"524 92 LINE",
"488 92 OFFCURVE",
"475 92 OFFCURVE",
"475 119 CURVE SMOOTH",
"475 128 OFFCURVE",
"476 141 OFFCURVE",
"479 158 CURVE SMOOTH"
);
},
{
closed = 1;
nodes = (
"357 406 OFFCURVE",
"380 362 OFFCURVE",
"380 298 CURVE SMOOTH",
"380 215 OFFCURVE",
"359 92 OFFCURVE",
"242 92 CURVE SMOOTH",
"179 92 OFFCURVE",
"147 141 OFFCURVE",
"147 212 CURVE SMOOTH",
"147 320 OFFCURVE",
"206 406 OFFCURVE",
"298 406 CURVE SMOOTH"
);
}
);
};
layerId = "D879A026-05F7-4E99-AC55-D533E46CE7AB";
paths = (
{
closed = 1;
nodes = (
"277 -10 OFFCURVE",
"321 21 OFFCURVE",
"350 48 CURVE",
"375 0 OFFCURVE",
"394 -10 OFFCURVE",
"496 -10 CURVE",
"524 92 LINE",
"487 92 OFFCURVE",
"475 92 OFFCURVE",
"475 120 CURVE SMOOTH",
"475 128 OFFCURVE",
"476 141 OFFCURVE",
"479 158 CURVE SMOOTH",
"537 500 LINE",
"423 500 LINE",
"409 475 LINE",
"384 496 OFFCURVE",
"358 508 OFFCURVE",
"307 508 CURVE SMOOTH",
"126 508 OFFCURVE",
"18 357 OFFCURVE",
"18 204 CURVE SMOOTH",
"18 81 OFFCURVE",
"88 -10 OFFCURVE",
"207 -10 CURVE SMOOTH"
);
},
{
closed = 1;
nodes = (
"176 92 OFFCURVE",
"147 141 OFFCURVE",
"147 214 CURVE SMOOTH",
"147 319 OFFCURVE",
"207 406 OFFCURVE",
"296 406 CURVE SMOOTH",
"360 406 OFFCURVE",
"380 362 OFFCURVE",
"380 292 CURVE SMOOTH",
"380 216 OFFCURVE",
"356 92 OFFCURVE",
"245 92 CURVE SMOOTH"
);
}
);
width = 584;
}
);
leftKerningGroup = a;
rightKerningGroup = a;
unicode = 0061;
},
{
glyphname = ae;
lastChange = "2016-08-30 22:35:51 +0000";
layers = (
{
background = {
paths = (
{
closed = 1;
nodes = (
"684 245 LINE",
"694 275 OFFCURVE",
"703 304 OFFCURVE",
"703 343 CURVE SMOOTH",
"703 444 OFFCURVE",
"648 500 OFFCURVE",
"560 500 CURVE SMOOTH",
"488 500 OFFCURVE",
"412 469 OFFCURVE",
"374 380 CURVE",
"374 481 OFFCURVE",
"305 500 OFFCURVE",
"255 500 CURVE SMOOTH",
"209 500 OFFCURVE",
"156 487 OFFCURVE",
"100 461 CURVE",
"96 391 LINE",
"141 410 OFFCURVE",
"176 420 OFFCURVE",
"215 420 CURVE SMOOTH",
"280 420 OFFCURVE",
"300 387 OFFCURVE",
"294 307 CURVE",
"181 300 OFFCURVE",
"-8 266 OFFCURVE",
"-8 93 CURVE SMOOTH",
"-8 28 OFFCURVE",
"31 -14 OFFCURVE",
"111 -14 CURVE SMOOTH",
"194 -14 OFFCURVE",
"267 25 OFFCURVE",
"314 103 CURVE",
"332 22 OFFCURVE",
"388 -10 OFFCURVE",
"475 -10 CURVE SMOOTH",
"536 -10 OFFCURVE",
"585 8 OFFCURVE",
"630 30 CURVE",
"630 99 LINE",
"581 76 OFFCURVE",
"540 62 OFFCURVE",
"497 62 CURVE SMOOTH",
"419 62 OFFCURVE",
"369 122 OFFCURVE",
"387 245 CURVE"
);
},
{
closed = 1;
nodes = (
"604 420 OFFCURVE",
"629 386 OFFCURVE",
"615 307 CURVE",
"404 307 LINE",
"434 387 OFFCURVE",
"483 420 OFFCURVE",
"542 420 CURVE SMOOTH"
);
},
{
closed = 1;
nodes = (
"288 227 OFFCURVE",
"285 211 OFFCURVE",
"283 198 CURVE SMOOTH",
"265 97 OFFCURVE",
"196 62 OFFCURVE",
"144 62 CURVE SMOOTH",
"112 62 OFFCURVE",
"88 76 OFFCURVE",
"88 112 CURVE SMOOTH",
"88 211 OFFCURVE",
"208 245 OFFCURVE",
"290 245 CURVE"
);
}
);
};
layerId = UUID0;
paths = (
{
closed = 1;
nodes = (
"194 -14 OFFCURVE",
"267 25 OFFCURVE",
"314 103 CURVE",
"332 22 OFFCURVE",
"388 -10 OFFCURVE",
"475 -10 CURVE SMOOTH",
"536 -10 OFFCURVE",
"585 8 OFFCURVE",
"630 30 CURVE",
"630 99 LINE",
"581 76 OFFCURVE",
"540 62 OFFCURVE",
"497 62 CURVE SMOOTH",
"430 62 OFFCURVE",
"383 107 OFFCURVE",
"383 198 CURVE SMOOTH",
"383 213 OFFCURVE",
"385 228 OFFCURVE",
"387 245 CURVE",
"684 245 LINE",
"694 275 OFFCURVE",
"703 304 OFFCURVE",
"703 343 CURVE SMOOTH",
"703 444 OFFCURVE",
"648 500 OFFCURVE",
"560 500 CURVE SMOOTH",
"488 500 OFFCURVE",
"412 469 OFFCURVE",
"374 380 CURVE",
"374 481 OFFCURVE",
"305 500 OFFCURVE",
"255 500 CURVE SMOOTH",
"209 500 OFFCURVE",
"156 487 OFFCURVE",
"100 461 CURVE",
"96 391 LINE",
"141 410 OFFCURVE",
"176 420 OFFCURVE",
"215 420 CURVE SMOOTH",
"280 420 OFFCURVE",
"294 387 OFFCURVE",
"294 307 CURVE",
"181 300 OFFCURVE",
"-8 266 OFFCURVE",
"-8 93 CURVE SMOOTH",
"-8 28 OFFCURVE",
"31 -14 OFFCURVE",
"111 -14 CURVE SMOOTH"
);
},
{
closed = 1;
nodes = (
"112 62 OFFCURVE",
"88 76 OFFCURVE",
"88 112 CURVE SMOOTH",
"88 211 OFFCURVE",
"208 245 OFFCURVE",
"290 245 CURVE",
"288 227 OFFCURVE",
"285 211 OFFCURVE",
"283 198 CURVE SMOOTH",
"265 97 OFFCURVE",
"196 62 OFFCURVE",
"144 62 CURVE SMOOTH"
);
},
{
closed = 1;
nodes = (
"434 387 OFFCURVE",
"483 420 OFFCURVE",
"542 420 CURVE SMOOTH",
"592 420 OFFCURVE",
"618 398 OFFCURVE",
"619 348 CURVE SMOOTH",
"619 336 OFFCURVE",
"618 322 OFFCURVE",
"615 307 CURVE",
"404 307 LINE"
);
}
);
width = 728;
},
{
background = {
paths = (
{
closed = 1;
nodes = (
"719 223 LINE",
"738 272 OFFCURVE",
"744 299 OFFCURVE",
"744 335 CURVE SMOOTH",
"744 440 OFFCURVE",
"682 508 OFFCURVE",
"586 508 CURVE SMOOTH",
"502 508 OFFCURVE",
"427 462 OFFCURVE",
"406 419 CURVE",
"395 488 OFFCURVE",
"356 508 OFFCURVE",
"278 508 CURVE SMOOTH",
"219 508 OFFCURVE",
"156 493 OFFCURVE",
"93 464 CURVE",
"86 363 LINE",
"143 389 OFFCURVE",
"183 401 OFFCURVE",
"227 401 CURVE SMOOTH",
"289 401 OFFCURVE",
"304 375 OFFCURVE",
"295 314 CURVE",
"194 309 OFFCURVE",
"-9 277 OFFCURVE",
"-9 102 CURVE SMOOTH",
"-9 30 OFFCURVE",
"39 -15 OFFCURVE",
"128 -15 CURVE SMOOTH",
"218 -15 OFFCURVE",
"276 28 OFFCURVE",
"330 84 CURVE",
"349 28 OFFCURVE",
"407 -10 OFFCURVE",
"505 -10 CURVE SMOOTH",
"573 -10 OFFCURVE",
"633 8 OFFCURVE",
"672 28 CURVE",
"686 133 LINE",
"645 111 OFFCURVE",
"573 92 OFFCURVE",
"528 92 CURVE SMOOTH",
"469 92 OFFCURVE",
"416 130 OFFCURVE",
"417 223 CURVE"
);
},
{
closed = 1;
nodes = (
"630 406 OFFCURVE",
"639 352 OFFCURVE",
"631 307 CURVE",
"434 307 LINE",
"454 365 OFFCURVE",
"507 406 OFFCURVE",
"564 406 CURVE SMOOTH"
);
},
{
closed = 1;
nodes = (
"286 219 OFFCURVE",
"285 213 OFFCURVE",
"283 202 CURVE SMOOTH",
"269 122 OFFCURVE",
"211 81 OFFCURVE",
"171 81 CURVE SMOOTH",
"145 81 OFFCURVE",
"125 99 OFFCURVE",
"125 128 CURVE SMOOTH",
"125 201 OFFCURVE",
"223 229 OFFCURVE",
"287 230 CURVE"
);
}
);
};
layerId = "D879A026-05F7-4E99-AC55-D533E46CE7AB";
paths = (
{
closed = 1;
nodes = (
"218 -15 OFFCURVE",
"276 28 OFFCURVE",
"330 84 CURVE",
"349 28 OFFCURVE",
"407 -10 OFFCURVE",
"505 -10 CURVE SMOOTH",
"573 -10 OFFCURVE",
"633 8 OFFCURVE",
"672 28 CURVE",
"686 133 LINE",
"645 111 OFFCURVE",
"573 92 OFFCURVE",
"528 92 CURVE SMOOTH",
"477 92 OFFCURVE",
"431 121 OFFCURVE",
"420 188 CURVE SMOOTH",
"418 199 OFFCURVE",
"417 210 OFFCURVE",
"417 223 CURVE",
"719 223 LINE",
"738 272 OFFCURVE",
"744 299 OFFCURVE",
"744 335 CURVE SMOOTH",
"744 440 OFFCURVE",
"682 508 OFFCURVE",
"586 508 CURVE SMOOTH",
"502 508 OFFCURVE",
"427 462 OFFCURVE",
"406 419 CURVE",
"395 488 OFFCURVE",
"356 508 OFFCURVE",
"278 508 CURVE SMOOTH",
"219 508 OFFCURVE",
"156 493 OFFCURVE",
"93 464 CURVE",
"86 363 LINE",
"143 389 OFFCURVE",
"183 401 OFFCURVE",
"227 401 CURVE SMOOTH",
"289 401 OFFCURVE",
"295 375 OFFCURVE",
"295 314 CURVE",
"194 309 OFFCURVE",
"-9 277 OFFCURVE",
"-9 102 CURVE SMOOTH",
"-9 30 OFFCURVE",
"39 -15 OFFCURVE",
"128 -15 CURVE SMOOTH"
);
},
{
closed = 1;
nodes = (
"145 81 OFFCURVE",
"125 99 OFFCURVE",
"125 128 CURVE SMOOTH",
"125 201 OFFCURVE",
"223 229 OFFCURVE",
"287 230 CURVE",
"286 219 OFFCURVE",
"285 213 OFFCURVE",
"283 202 CURVE SMOOTH",
"269 122 OFFCURVE",
"211 81 OFFCURVE",
"171 81 CURVE SMOOTH"
);
},
{
closed = 1;
nodes = (
"454 365 OFFCURVE",
"507 406 OFFCURVE",
"564 406 CURVE SMOOTH",
"617 406 OFFCURVE",
"633 370 OFFCURVE",
"633 333 CURVE SMOOTH",
"633 324 OFFCURVE",
"633 316 OFFCURVE",
"631 307 CURVE",
"434 307 LINE"
);
}
);
width = 768;
}
);
leftKerningGroup = a;
rightKerningGroup = e;
unicode = 00E6;
},
{
glyphname = b;
lastChange = "2016-08-30 22:36:03 +0000";
layers = (
{
background = {
paths = (
{
closed = 1;
nodes = (
"366 -10 OFFCURVE",
"482 130 OFFCURVE",
"482 294 CURVE SMOOTH",
"482 405 OFFCURVE",
"426 500 OFFCURVE",
"316 500 CURVE SMOOTH",
"274 500 OFFCURVE",
"222 488 OFFCURVE",
"178 437 CURVE",
"233 750 LINE",
"142 750 LINE",
"10 0 LINE",
"92 0 LINE",
"110 62 LINE",
"134 14 OFFCURVE",
"182 -10 OFFCURVE",
"225 -10 CURVE SMOOTH"
);
},
{
closed = 1;
nodes = (
"355 420 OFFCURVE",
"388 363 OFFCURVE",
"388 286 CURVE SMOOTH",
"388 173 OFFCURVE",
"321 70 OFFCURVE",
"231 70 CURVE SMOOTH",
"175 70 OFFCURVE",
"134 110 OFFCURVE",
"134 199 CURVE SMOOTH",
"134 343 OFFCURVE",
"211 420 OFFCURVE",
"293 420 CURVE SMOOTH"
);
}
);
};
layerId = UUID0;
paths = (
{
closed = 1;
nodes = (
"362 -10 OFFCURVE",
"482 130 OFFCURVE",
"482 294 CURVE SMOOTH",
"482 405 OFFCURVE",
"427 500 OFFCURVE",
"315 500 CURVE SMOOTH",
"275 500 OFFCURVE",
"222 488 OFFCURVE",
"178 437 CURVE",
"233 750 LINE",
"142 750 LINE",
"10 0 LINE",
"92 0 LINE",
"110 62 LINE",
"134 16 OFFCURVE",
"175 -10 OFFCURVE",
"231 -10 CURVE SMOOTH"
);
},
{
closed = 1;
nodes = (
"175 70 OFFCURVE",
"134 107 OFFCURVE",
"134 204 CURVE SMOOTH",
"134 338 OFFCURVE",
"211 420 OFFCURVE",
"290 420 CURVE SMOOTH",
"357 420 OFFCURVE",
"388 362 OFFCURVE",
"388 285 CURVE SMOOTH",
"388 172 OFFCURVE",
"321 70 OFFCURVE",
"230 70 CURVE SMOOTH"
);
}
);
width = 520;
},
{
background = {
paths = (
{
closed = 1;
nodes = (
"421 -10 OFFCURVE",
"526 140 OFFCURVE",
"526 297 CURVE SMOOTH",
"526 413 OFFCURVE",
"463 508 OFFCURVE",
"328 508 CURVE SMOOTH",
"277 508 OFFCURVE",
"248 496 OFFCURVE",
"215 475 CURVE",
"264 750 LINE",
"139 750 LINE",
"7 0 LINE",
"124 0 LINE",
"130 28 LINE",
"159 4 OFFCURVE",
"182 -10 OFFCURVE",
"237 -10 CURVE SMOOTH"
);
},
{
closed = 1;
nodes = (
"366 406 OFFCURVE",
"398 357 OFFCURVE",
"398 286 CURVE SMOOTH",
"398 178 OFFCURVE",
"339 92 OFFCURVE",
"247 92 CURVE SMOOTH",
"187 92 OFFCURVE",
"164 136 OFFCURVE",
"164 201 CURVE SMOOTH",
"164 290 OFFCURVE",
"191 406 OFFCURVE",
"303 406 CURVE SMOOTH"
);
}
);
};
layerId = "D879A026-05F7-4E99-AC55-D533E46CE7AB";
paths = (
{
closed = 1;
nodes = (
"421 -10 OFFCURVE",
"526 141 OFFCURVE",
"526 295 CURVE SMOOTH",
"526 415 OFFCURVE",
"463 508 OFFCURVE",
"327 508 CURVE SMOOTH",
"278 508 OFFCURVE",
"248 496 OFFCURVE",
"215 475 CURVE",
"264 750 LINE",
"139 750 LINE",
"7 0 LINE",
"124 0 LINE",
"130 28 LINE",
"159 4 OFFCURVE",
"182 -10 OFFCURVE",
"237 -10 CURVE SMOOTH"
);
},
{
closed = 1;
nodes = (
"185 92 OFFCURVE",
"164 136 OFFCURVE",
"164 206 CURVE SMOOTH",
"164 290 OFFCURVE",
"194 406 OFFCURVE",
"300 406 CURVE SMOOTH",
"369 406 OFFCURVE",
"398 356 OFFCURVE",
"398 283 CURVE SMOOTH",
"398 180 OFFCURVE",
"339 92 OFFCURVE",
"249 92 CURVE SMOOTH"
);
}
);
width = 560;
}
);
leftKerningGroup = h;
rightKerningGroup = b;
unicode = 0062;
},
{
glyphname = c;
lastChange = "2016-08-30 22:36:14 +0000";
layers = (
{
background = {
paths = (
{
closed = 1;
nodes = (
"274 -10 OFFCURVE",
"313 8 OFFCURVE",
"344 27 CURVE",
"347 99 LINE",
"308 80 OFFCURVE",
"267 69 OFFCURVE",
"225 69 CURVE SMOOTH",
"152 69 OFFCURVE",
"116 121 OFFCURVE",
"116 201 CURVE SMOOTH",
"116 327 OFFCURVE",
"174 420 OFFCURVE",
"287 420 CURVE SMOOTH",
"329 420 OFFCURVE",
"364 409 OFFCURVE",
"397 390 CURVE",
"423 471 LINE",
"398 487 OFFCURVE",
"360 500 OFFCURVE",
"292 500 CURVE SMOOTH",
"119 500 OFFCURVE",
"23 355 OFFCURVE",
"23 195 CURVE SMOOTH",
"23 83 OFFCURVE",
"80 -10 OFFCURVE",
"203 -10 CURVE SMOOTH"
);
}
);
};
layerId = UUID0;
paths = (
{
closed = 1;
nodes = (
"269 -10 OFFCURVE",
"314 8 OFFCURVE",
"344 27 CURVE",
"347 99 LINE",
"308 80 OFFCURVE",
"266 69 OFFCURVE",
"229 69 CURVE SMOOTH",
"152 69 OFFCURVE",
"116 116 OFFCURVE",
"116 208 CURVE SMOOTH",
"116 325 OFFCURVE",
"174 420 OFFCURVE",
"289 420 CURVE SMOOTH",
"328 420 OFFCURVE",
"364 409 OFFCURVE",
"397 390 CURVE",
"423 471 LINE",
"396 489 OFFCURVE",
"349 500 OFFCURVE",
"299 500 CURVE SMOOTH",
"117 500 OFFCURVE",
"23 355 OFFCURVE",
"23 199 CURVE SMOOTH",
"23 83 OFFCURVE",
"75 -10 OFFCURVE",
"210 -10 CURVE"
);
}
);
width = 418;
},
{
background = {
paths = (
{
closed = 1;
nodes = (
"288 -10 OFFCURVE",
"327 7 OFFCURVE",
"362 27 CURVE",
"370 133 LINE",
"325 106 OFFCURVE",
"285 92 OFFCURVE",
"239 92 CURVE SMOOTH",
"179 92 OFFCURVE",
"147 141 OFFCURVE",
"147 212 CURVE SMOOTH",
"147 320 OFFCURVE",
"207 406 OFFCURVE",
"294 406 CURVE SMOOTH",
"340 406 OFFCURVE",
"376 392 OFFCURVE",
"411 365 CURVE",
"440 471 LINE",
"412 491 OFFCURVE",
"380 508 OFFCURVE",
"302 508 CURVE SMOOTH",
"125 508 OFFCURVE",
"18 358 OFFCURVE",
"18 200 CURVE SMOOTH",
"18 84 OFFCURVE",
"80 -10 OFFCURVE",
"211 -10 CURVE SMOOTH"
);
}
);
};
layerId = "D879A026-05F7-4E99-AC55-D533E46CE7AB";
paths = (
{
closed = 1;
nodes = (
"283 -10 OFFCURVE",
"330 8 OFFCURVE",
"362 27 CURVE",
"370 133 LINE",
"326 106 OFFCURVE",
"281 92 OFFCURVE",
"244 92 CURVE SMOOTH",
"175 92 OFFCURVE",
"147 141 OFFCURVE",
"147 214 CURVE SMOOTH",
"147 319 OFFCURVE",
"205 406 OFFCURVE",
"299 406 CURVE SMOOTH",
"338 406 OFFCURVE",
"378 391 OFFCURVE",
"411 365 CURVE",
"440 471 LINE",
"412 492 OFFCURVE",
"372 508 OFFCURVE",
"310 508 CURVE SMOOTH",
"121 508 OFFCURVE",
"18 358 OFFCURVE",
"18 201 CURVE SMOOTH",
"18 84 OFFCURVE",
"75 -10 OFFCURVE",
"220 -10 CURVE"
);
}
);
width = 437;
}
);
leftKerningGroup = o;
rightKerningGroup = c;
unicode = 0063;
},
{
glyphname = d;
lastChange = "2016-08-30 22:36:25 +0000";
layers = (
{
background = {
paths = (
{
closed = 1;
nodes = (
"407 0 LINE",
"539 750 LINE",
"448 750 LINE",
"393 438 LINE",
"367 489 OFFCURVE",
"320 500 OFFCURVE",
"278 500 CURVE SMOOTH",
"129 500 OFFCURVE",
"21 349 OFFCURVE",
"21 196 CURVE SMOOTH",
"21 79 OFFCURVE",
"84 -10 OFFCURVE",
"188 -10 CURVE SMOOTH",
"231 -10 OFFCURVE",
"287 14 OFFCURVE",
"328 62 CURVE",
"324 0 LINE"
);
},
{
closed = 1;
nodes = (
"327 420 OFFCURVE",
"371 373 OFFCURVE",
"371 284 CURVE SMOOTH",
"371 136 OFFCURVE",
"290 70 OFFCURVE",
"209 70 CURVE SMOOTH",
"147 70 OFFCURVE",
"115 130 OFFCURVE",
"115 205 CURVE SMOOTH",
"115 319 OFFCURVE",
"180 420 OFFCURVE",
"271 420 CURVE SMOOTH"
);
}
);
};
layerId = UUID0;
paths = (
{
closed = 1;
nodes = (
"236 -10 OFFCURVE",
"287 15 OFFCURVE",
"328 62 CURVE",
"324 0 LINE",
"407 0 LINE",
"539 750 LINE",
"448 750 LINE",
"393 438 LINE",
"367 489 OFFCURVE",
"320 500 OFFCURVE",
"279 500 CURVE SMOOTH",
"129 500 OFFCURVE",
"21 349 OFFCURVE",
"21 197 CURVE SMOOTH",
"21 79 OFFCURVE",
"86 -10 OFFCURVE",
"184 -10 CURVE SMOOTH"
);
},
{
closed = 1;
nodes = (
"144 70 OFFCURVE",
"115 130 OFFCURVE",
"115 205 CURVE SMOOTH",
"115 319 OFFCURVE",
"181 420 OFFCURVE",
"269 420 CURVE",
"327 420 OFFCURVE",
"371 377 OFFCURVE",
"371 277 CURVE SMOOTH",
"371 142 OFFCURVE",
"290 70 OFFCURVE",
"214 70 CURVE SMOOTH"
);
}
);
width = 520;
},
{
background = {
paths = (
{
closed = 1;
nodes = (
"450 0 LINE",
"582 750 LINE",
"458 750 LINE",
"409 475 LINE",
"384 496 OFFCURVE",
"358 508 OFFCURVE",
"308 508 CURVE SMOOTH",
"126 508 OFFCURVE",
"18 359 OFFCURVE",
"18 200 CURVE SMOOTH",
"18 85 OFFCURVE",
"81 -10 OFFCURVE",
"216 -10 CURVE SMOOTH",
"270 -10 OFFCURVE",
"298 4 OFFCURVE",
"336 28 CURVE",
"332 0 LINE"
);
},
{
closed = 1;
nodes = (
"357 406 OFFCURVE",
"380 362 OFFCURVE",
"380 298 CURVE SMOOTH",
"380 215 OFFCURVE",
"359 92 OFFCURVE",
"242 92 CURVE SMOOTH",
"179 92 OFFCURVE",
"147 141 OFFCURVE",
"147 212 CURVE SMOOTH",
"147 320 OFFCURVE",
"206 406 OFFCURVE",
"298 406 CURVE SMOOTH"
);
}
);
};
layerId = "D879A026-05F7-4E99-AC55-D533E46CE7AB";
paths = (
{
closed = 1;
nodes = (
"270 -10 OFFCURVE",
"298 4 OFFCURVE",
"336 28 CURVE",
"332 0 LINE",
"450 0 LINE",
"582 750 LINE",
"458 750 LINE",
"409 475 LINE",
"384 496 OFFCURVE",
"358 508 OFFCURVE",
"307 508 CURVE SMOOTH",
"126 508 OFFCURVE",
"18 357 OFFCURVE",
"18 202 CURVE SMOOTH",
"18 83 OFFCURVE",
"81 -10 OFFCURVE",
"217 -10 CURVE SMOOTH"
);
},
{
closed = 1;
nodes = (
"176 92 OFFCURVE",
"147 141 OFFCURVE",
"147 214 CURVE SMOOTH",
"147 319 OFFCURVE",
"207 406 OFFCURVE",
"296 406 CURVE",
"360 406 OFFCURVE",
"380 362 OFFCURVE",
"380 292 CURVE SMOOTH",
"380 216 OFFCURVE",
"356 92 OFFCURVE",
"245 92 CURVE SMOOTH"
);
}
);
width = 561;
}
);
leftKerningGroup = o;
unicode = 0064;
},
{
glyphname = eth;
lastChange = "2016-08-30 22:36:32 +0000";
layers = (
{
background = {
paths = (
{
closed = 1;
nodes = (
"283 -12 OFFCURVE",
"443 58 OFFCURVE",
"443 342 CURVE SMOOTH",
"443 445 OFFCURVE",
"418 555 OFFCURVE",
"372 614 CURVE",
"405 648 OFFCURVE",
"426 670 OFFCURVE",
"449 698 CURVE",
"404 710 LINE",
"387 689 OFFCURVE",
"369 672 OFFCURVE",
"341 646 CURVE",
"300 685 OFFCURVE",
"255 701 OFFCURVE",
"217 701 CURVE",
"178 659 LINE",
"215 659 OFFCURVE",
"249 640 OFFCURVE",
"277 605 CURVE",
"226 570 OFFCURVE",
"187 558 OFFCURVE",
"155 553 CURVE",
"175 498 LINE",
"218 504 OFFCURVE",
"262 524 OFFCURVE",
"311 560 CURVE",
"342 524 OFFCURVE",
"355 429 OFFCURVE",
"350 371 CURVE",
"333 395 OFFCURVE",
"302 426 OFFCURVE",
"244 426 CURVE SMOOTH",
"95 426 OFFCURVE",
"10 274 OFFCURVE",
"10 166 CURVE SMOOTH",
"10 62 OFFCURVE",
"77 -12 OFFCURVE",
"177 -12 CURVE SMOOTH"
);
},
{
closed = 1;
nodes = (
"297 343 OFFCURVE",
"326 300 OFFCURVE",
"326 238 CURVE SMOOTH",
"326 144 OFFCURVE",
"263 71 OFFCURVE",
"194 71 CURVE SMOOTH",
"136 71 OFFCURVE",
"107 120 OFFCURVE",
"107 181 CURVE SMOOTH",
"107 263 OFFCURVE",
"162 343 OFFCURVE",
"242 343 CURVE SMOOTH"
);
}
);
};
layerId = UUID0;
paths = (
{
closed = 1;
nodes = (
"283 -12 OFFCURVE",
"443 58 OFFCURVE",
"443 342 CURVE SMOOTH",
"443 445 OFFCURVE",
"418 555 OFFCURVE",
"372 614 CURVE",
"405 648 OFFCURVE",
"426 670 OFFCURVE",
"449 698 CURVE",
"404 710 LINE",
"387 689 OFFCURVE",
"369 672 OFFCURVE",
"341 646 CURVE",
"300 685 OFFCURVE",
"255 701 OFFCURVE",
"217 701 CURVE",
"178 659 LINE",
"215 659 OFFCURVE",
"249 640 OFFCURVE",
"277 605 CURVE",
"226 570 OFFCURVE",
"187 558 OFFCURVE",
"155 553 CURVE",
"175 498 LINE",
"218 504 OFFCURVE",
"262 524 OFFCURVE",
"311 560 CURVE",
"342 524 OFFCURVE",
"350 429 OFFCURVE",
"350 371 CURVE",
"333 395 OFFCURVE",
"302 426 OFFCURVE",
"244 426 CURVE SMOOTH",
"95 426 OFFCURVE",
"10 274 OFFCURVE",
"10 166 CURVE SMOOTH",
"10 62 OFFCURVE",
"77 -12 OFFCURVE",
"177 -12 CURVE SMOOTH",
"177 -12 LINE"
);
},
{
closed = 1;
nodes = (
"136 71 OFFCURVE",
"107 120 OFFCURVE",
"107 181 CURVE SMOOTH",
"107 263 OFFCURVE",
"162 343 OFFCURVE",
"242 343 CURVE SMOOTH",
"242 343 LINE SMOOTH",
"297 343 OFFCURVE",
"326 300 OFFCURVE",
"326 238 CURVE SMOOTH",
"326 144 OFFCURVE",
"263 71 OFFCURVE",
"194 71 CURVE SMOOTH"
);
}
);
width = 487;
},
{
background = {
paths = (
{
closed = 1;
nodes = (
"303 -13 OFFCURVE",
"462 62 OFFCURVE",
"462 338 CURVE SMOOTH",
"462 440 OFFCURVE",
"434 540 OFFCURVE",
"392 601 CURVE",
"420 629 OFFCURVE",
"447 661 OFFCURVE",
"475 695 CURVE",
"410 711 LINE",
"393 690 OFFCURVE",
"369 669 OFFCURVE",
"346 649 CURVE",
"309 682 OFFCURVE",
"265 700 OFFCURVE",
"216 701 CURVE",
"166 648 LINE",
"205 647 OFFCURVE",
"241 628 OFFCURVE",
"270 598 CURVE",
"227 571 OFFCURVE",
"181 554 OFFCURVE",
"148 554 CURVE",
"174 481 LINE",
"224 486 OFFCURVE",
"272 507 OFFCURVE",
"315 538 CURVE",
"342 516 OFFCURVE",
"354 424 OFFCURVE",
"351 387 CURVE",
"328 408 OFFCURVE",
"300 426 OFFCURVE",
"248 426 CURVE SMOOTH",
"96 426 OFFCURVE",
"2 289 OFFCURVE",
"2 170 CURVE SMOOTH",
"2 63 OFFCURVE",
"76 -13 OFFCURVE",
"185 -13 CURVE SMOOTH"
);
},
{
closed = 1;
nodes = (
"302 329 OFFCURVE",
"331 294 OFFCURVE",
"331 236 CURVE SMOOTH",
"331 131 OFFCURVE",
"261 88 OFFCURVE",
"205 88 CURVE SMOOTH",
"145 88 OFFCURVE",
"121 136 OFFCURVE",
"121 191 CURVE SMOOTH",
"121 257 OFFCURVE",
"165 329 OFFCURVE",
"244 329 CURVE SMOOTH"
);
}
);
};
layerId = "D879A026-05F7-4E99-AC55-D533E46CE7AB";
paths = (
{
closed = 1;
nodes = (
"303 -13 OFFCURVE",
"462 62 OFFCURVE",
"462 338 CURVE SMOOTH",
"462 440 OFFCURVE",
"434 540 OFFCURVE",
"392 601 CURVE",
"420 629 OFFCURVE",
"447 661 OFFCURVE",
"475 695 CURVE",
"410 711 LINE",
"393 690 OFFCURVE",
"369 669 OFFCURVE",
"346 649 CURVE",
"309 682 OFFCURVE",
"265 700 OFFCURVE",
"216 701 CURVE",
"166 648 LINE",
"205 647 OFFCURVE",
"241 628 OFFCURVE",
"270 598 CURVE",
"227 571 OFFCURVE",
"181 554 OFFCURVE",
"148 554 CURVE",
"174 481 LINE",
"224 486 OFFCURVE",
"272 507 OFFCURVE",
"315 538 CURVE",
"342 516 OFFCURVE",
"354 424 OFFCURVE",
"351 387 CURVE",
"328 408 OFFCURVE",
"300 426 OFFCURVE",
"248 426 CURVE SMOOTH",
"96 426 OFFCURVE",
"2 289 OFFCURVE",
"2 170 CURVE SMOOTH",
"2 63 OFFCURVE",
"76 -13 OFFCURVE",
"185 -13 CURVE"
);
},
{
closed = 1;
nodes = (
"145 88 OFFCURVE",
"121 136 OFFCURVE",
"121 191 CURVE SMOOTH",
"121 257 OFFCURVE",
"165 329 OFFCURVE",
"244 329 CURVE SMOOTH",
"302 329 OFFCURVE",
"331 294 OFFCURVE",
"331 236 CURVE SMOOTH",
"331 131 OFFCURVE",
"261 88 OFFCURVE",
"205 88 CURVE SMOOTH"
);
}
);
width = 500;
}
);
unicode = 00F0;
},
{
glyphname = e;
lastChange = "2016-08-30 22:21:49 +0000";
layers = (
{
anchors = (
{
name = bottom;
position = "{201, 0}";
},
{
name = ogonek;
position = "{412, 10}";
},
{
name = top;
position = "{296, 490}";
}
);
background = {
paths = (
{
closed = 1;
nodes = (
"434 449 OFFCURVE",
"383 500 OFFCURVE",
"288 500 CURVE SMOOTH",
"128 500 OFFCURVE",
"21 357 OFFCURVE",
"21 202 CURVE SMOOTH",
"21 83 OFFCURVE",
"85 -10 OFFCURVE",
"221 -10 CURVE SMOOTH",
"285 -10 OFFCURVE",
"339 11 OFFCURVE",
"376 28 CURVE",
"380 99 LINE",
"337 79 OFFCURVE",
"284 70 OFFCURVE",
"245 70 CURVE SMOOTH",
"174 70 OFFCURVE",
"118 100 OFFCURVE",
"118 218 CURVE",
"132 215 OFFCURVE",
"165 210 OFFCURVE",
"206 210 CURVE SMOOTH",
"382 210 OFFCURVE",
"434 301 OFFCURVE",
"434 375 CURVE SMOOTH"
);
},
{
closed = 1;
nodes = (
"318 420 OFFCURVE",
"351 404 OFFCURVE",
"351 364 CURVE SMOOTH",
"351 324 OFFCURVE",
"318 271 OFFCURVE",
"198 271 CURVE SMOOTH",
"154 271 OFFCURVE",
"149 278 OFFCURVE",
"128 281 CURVE",
"162 378 OFFCURVE",
"217 420 OFFCURVE",
"279 420 CURVE SMOOTH"
);
}
);
};
layerId = UUID0;
paths = (
{
closed = 1;
nodes = (
"285 -10 OFFCURVE",
"339 11 OFFCURVE",
"376 28 CURVE",
"380 99 LINE",
"337 79 OFFCURVE",
"284 70 OFFCURVE",
"245 70 CURVE SMOOTH",
"174 70 OFFCURVE",
"118 100 OFFCURVE",
"118 218 CURVE",
"132 215 OFFCURVE",
"165 210 OFFCURVE",
"206 210 CURVE SMOOTH",
"382 210 OFFCURVE",
"434 301 OFFCURVE",
"434 375 CURVE SMOOTH",
"434 449 OFFCURVE",
"383 500 OFFCURVE",
"288 500 CURVE SMOOTH",
"128 500 OFFCURVE",
"21 357 OFFCURVE",
"21 202 CURVE SMOOTH",
"21 83 OFFCURVE",
"85 -10 OFFCURVE",
"221 -10 CURVE SMOOTH"
);
},
{
closed = 1;
nodes = (
"154 271 OFFCURVE",
"149 278 OFFCURVE",
"128 281 CURVE",
"162 378 OFFCURVE",
"217 420 OFFCURVE",
"279 420 CURVE SMOOTH",
"318 420 OFFCURVE",
"351 404 OFFCURVE",
"351 364 CURVE SMOOTH",
"351 324 OFFCURVE",
"318 271 OFFCURVE",
"198 271 CURVE SMOOTH"
);
}
);
width = 458;
},
{
anchors = (
{
name = bottom;
position = "{244, 0}";
},
{
name = ogonek;
position = "{439, 10}";
},
{
name = top;
position = "{308, 500}";
}
);
background = {
paths = (
{
closed = 1;
nodes = (
"463 450 OFFCURVE",
"406 508 OFFCURVE",
"300 508 CURVE SMOOTH",
"129 508 OFFCURVE",
"18 358 OFFCURVE",
"18 205 CURVE SMOOTH",
"18 85 OFFCURVE",
"87 -10 OFFCURVE",
"239 -10 CURVE SMOOTH",
"305 -10 OFFCURVE",
"366 8 OFFCURVE",
"406 28 CURVE",
"420 133 LINE",
"377 111 OFFCURVE",
"308 92 OFFCURVE",
"263 92 CURVE SMOOTH",
"208 92 OFFCURVE",
"153 122 OFFCURVE",
"148 205 CURVE",
"161 202 OFFCURVE",
"191 199 OFFCURVE",
"224 199 CURVE SMOOTH",
"349 199 OFFCURVE",
"463 241 OFFCURVE",
"463 363 CURVE SMOOTH"
);
},
{
closed = 1;
nodes = (
"313 406 OFFCURVE",
"359 402 OFFCURVE",
"359 357 CURVE SMOOTH",
"359 319 OFFCURVE",
"326 280 OFFCURVE",
"204 280 CURVE SMOOTH",
"185 280 OFFCURVE",
"170 281 OFFCURVE",
"158 284 CURVE",
"171 330 OFFCURVE",
"217 406 OFFCURVE",
"295 406 CURVE SMOOTH"
);
}
);
};
layerId = "D879A026-05F7-4E99-AC55-D533E46CE7AB";
paths = (
{
closed = 1;
nodes = (
"305 -10 OFFCURVE",
"366 8 OFFCURVE",
"406 28 CURVE",
"420 133 LINE",
"377 111 OFFCURVE",
"308 92 OFFCURVE",
"263 92 CURVE SMOOTH",
"208 92 OFFCURVE",
"153 122 OFFCURVE",
"148 205 CURVE",
"161 202 OFFCURVE",
"191 199 OFFCURVE",
"224 199 CURVE SMOOTH",
"349 199 OFFCURVE",
"463 241 OFFCURVE",
"463 363 CURVE SMOOTH",
"463 450 OFFCURVE",
"406 508 OFFCURVE",
"300 508 CURVE SMOOTH",
"129 508 OFFCURVE",
"18 358 OFFCURVE",
"18 205 CURVE SMOOTH",
"18 85 OFFCURVE",
"87 -10 OFFCURVE",
"239 -10 CURVE SMOOTH"
);
},
{
closed = 1;
nodes = (
"185 280 OFFCURVE",
"170 281 OFFCURVE",
"158 284 CURVE",
"171 330 OFFCURVE",
"217 406 OFFCURVE",
"295 406 CURVE SMOOTH",
"313 406 OFFCURVE",
"359 402 OFFCURVE",
"359 357 CURVE SMOOTH",
"359 319 OFFCURVE",
"326 280 OFFCURVE",
"204 280 CURVE SMOOTH"
);
}
);
width = 488;
}
);
leftKerningGroup = o;
rightKerningGroup = e;
unicode = 0065;
},
{
glyphname = f;
lastChange = "2016-08-30 19:21:11 +0000";
layers = (
{
background = {
paths = (
{
closed = 1;
nodes = (
"311 420 LINE",
"324 490 LINE",
"211 490 LINE",
"222 550 LINE SMOOTH",
"240 650 OFFCURVE",
"248 670 OFFCURVE",
"288 670 CURVE SMOOTH",
"302 670 OFFCURVE",
"320 668 OFFCURVE",
"338 661 CURVE",
"363 737 LINE",
"340 745 OFFCURVE",
"324 750 OFFCURVE",
"271 750 CURVE SMOOTH",
"201 750 OFFCURVE",
"156 693 OFFCURVE",
"142 614 CURVE SMOOTH",
"120 490 LINE",
"58 490 LINE",
"36 420 LINE",
"108 420 LINE",
"34 0 LINE",
"125 0 LINE",
"199 420 LINE"
);
}
);
};
layerId = UUID0;
paths = (
{
closed = 1;
nodes = (
"125 0 LINE",
"199 420 LINE",
"311 420 LINE",
"324 490 LINE",
"211 490 LINE",
"222 550 LINE SMOOTH",
"240 650 OFFCURVE",
"248 670 OFFCURVE",
"289 670 CURVE SMOOTH",
"302 670 OFFCURVE",
"320 668 OFFCURVE",
"338 661 CURVE",
"363 737 LINE",
"355 740 OFFCURVE",
"326 750 OFFCURVE",
"287 750 CURVE SMOOTH",
"193 750 OFFCURVE",
"156 693 OFFCURVE",
"142 614 CURVE SMOOTH",
"120 490 LINE",
"58 490 LINE",
"36 420 LINE",
"108 420 LINE",
"34 0 LINE"
);
}
);
width = 303;
},
{
background = {
paths = (
{
closed = 1;
nodes = (
"332 398 LINE",
"350 500 LINE",
"247 500 LINE",
"259 568 LINE SMOOTH",
"270 629 OFFCURVE",
"281 646 OFFCURVE",
"315 646 CURVE SMOOTH",
"321 646 OFFCURVE",
"344 646 OFFCURVE",
"364 641 CURVE",
"393 744 LINE",
"360 747 OFFCURVE",
"348 750 OFFCURVE",
"283 750 CURVE SMOOTH",
"205 750 OFFCURVE",
"155 684 OFFCURVE",
"144 619 CURVE SMOOTH",
"123 500 LINE",
"68 500 LINE",
"39 398 LINE",
"105 398 LINE",
"35 0 LINE",
"159 0 LINE",
"229 398 LINE"
);
}
);
};
layerId = "D879A026-05F7-4E99-AC55-D533E46CE7AB";
paths = (
{
closed = 1;
nodes = (
"159 0 LINE",
"229 398 LINE",
"332 398 LINE",
"350 500 LINE",
"247 500 LINE",
"259 568 LINE SMOOTH",
"270 629 OFFCURVE",
"277 646 OFFCURVE",
"324 646 CURVE SMOOTH",
"335 646 OFFCURVE",
"342 645 OFFCURVE",
"364 641 CURVE",
"393 744 LINE",
"364 747 OFFCURVE",
"330 750 OFFCURVE",
"306 750 CURVE SMOOTH",
"192 750 OFFCURVE",
"155 684 OFFCURVE",
"144 619 CURVE SMOOTH",
"123 500 LINE",
"68 500 LINE",
"39 398 LINE",
"105 398 LINE",
"35 0 LINE"
);
}
);
width = 335;
}
);
leftKerningGroup = f;
unicode = 0066;
},
{
glyphname = g;
lastChange = "2016-08-30 22:36:56 +0000";
layers = (
{
background = {
paths = (
{
closed = 1;
nodes = (
"298 -250 OFFCURVE",
"390 -164 OFFCURVE",
"390 -80 CURVE SMOOTH",
"390 3 OFFCURVE",
"292 27 OFFCURVE",
"232 40 CURVE SMOOTH",
"146 58 OFFCURVE",
"112 66 OFFCURVE",
"112 89 CURVE SMOOTH",
"112 102 OFFCURVE",
"122 113 OFFCURVE",
"135 122 CURVE",
"152 116 OFFCURVE",
"172 113 OFFCURVE",
"192 113 CURVE SMOOTH",
"324 113 OFFCURVE",
"409 230 OFFCURVE",
"409 337 CURVE SMOOTH",
"409 363 OFFCURVE",
"404 396 OFFCURVE",
"390 425 CURVE",
"407 430 OFFCURVE",
"429 432 OFFCURVE",
"435 432 CURVE SMOOTH",
"462 432 LINE",
"481 492 LINE",
"467 492 LINE SMOOTH",
"424 492 OFFCURVE",
"386 480 OFFCURVE",
"359 464 CURVE",
"330 489 OFFCURVE",
"297 500 OFFCURVE",
"256 500 CURVE SMOOTH",
"120 500 OFFCURVE",
"37 389 OFFCURVE",
"37 273 CURVE SMOOTH",
"37 232 OFFCURVE",
"49 182 OFFCURVE",
"86 143 CURVE",
"40 119 OFFCURVE",
"23 81 OFFCURVE",
"23 64 CURVE SMOOTH",
"23 49 OFFCURVE",
"30 25 OFFCURVE",
"56 8 CURVE",
"-20 -23 OFFCURVE",
"-42 -87 OFFCURVE",
"-42 -119 CURVE SMOOTH",
"-42 -179 OFFCURVE",
"5 -250 OFFCURVE",
"142 -250 CURVE SMOOTH"
);
},
{
closed = 1;
nodes = (
"294 428 OFFCURVE",
"324 395 OFFCURVE",
"324 336 CURVE SMOOTH",
"324 256 OFFCURVE",
"277 182 OFFCURVE",
"202 182 CURVE SMOOTH",
"152 182 OFFCURVE",
"122 218 OFFCURVE",
"122 278 CURVE SMOOTH",
"122 360 OFFCURVE",
"168 428 OFFCURVE",
"244 428 CURVE SMOOTH"
);
},
{
closed = 1;
nodes = (
"301 -136 OFFCURVE",
"244 -180 OFFCURVE",
"155 -180 CURVE SMOOTH",
"81 -180 OFFCURVE",
"41 -149 OFFCURVE",
"41 -109 CURVE SMOOTH",
"41 -71 OFFCURVE",
"81 -29 OFFCURVE",
"125 -14 CURVE",
"186 -34 OFFCURVE",
"301 -34 OFFCURVE",
"301 -96 CURVE SMOOTH"
);
}
);
};
layerId = UUID0;
paths = (
{
closed = 1;
nodes = (
"296 -250 OFFCURVE",
"390 -164 OFFCURVE",
"390 -81 CURVE SMOOTH",
"390 3 OFFCURVE",
"293 27 OFFCURVE",
"232 40 CURVE SMOOTH",
"146 58 OFFCURVE",
"112 66 OFFCURVE",
"112 89 CURVE SMOOTH",
"112 102 OFFCURVE",
"122 113 OFFCURVE",
"135 122 CURVE",
"152 116 OFFCURVE",
"172 113 OFFCURVE",
"193 113 CURVE SMOOTH",
"324 113 OFFCURVE",
"409 230 OFFCURVE",
"409 337 CURVE SMOOTH",
"409 363 OFFCURVE",
"404 396 OFFCURVE",
"390 425 CURVE",
"407 430 OFFCURVE",
"429 432 OFFCURVE",
"435 432 CURVE SMOOTH",
"462 432 LINE",
"481 492 LINE",
"467 492 LINE SMOOTH",
"424 492 OFFCURVE",
"386 480 OFFCURVE",
"359 464 CURVE",
"330 489 OFFCURVE",
"297 500 OFFCURVE",
"255 500 CURVE SMOOTH",
"120 500 OFFCURVE",
"37 388 OFFCURVE",
"37 274 CURVE SMOOTH",
"37 231 OFFCURVE",
"49 182 OFFCURVE",
"86 143 CURVE",
"40 119 OFFCURVE",
"23 82 OFFCURVE",
"23 62 CURVE SMOOTH",
"23 49 OFFCURVE",
"31 24 OFFCURVE",
"56 8 CURVE",
"-23 -25 OFFCURVE",
"-42 -88 OFFCURVE",
"-42 -123 CURVE SMOOTH",
"-42 -178 OFFCURVE",
"5 -250 OFFCURVE",
"144 -250 CURVE"
);
},
{
closed = 1;
nodes = (
"81 -180 OFFCURVE",
"41 -149 OFFCURVE",
"41 -110 CURVE SMOOTH",
"41 -71 OFFCURVE",
"81 -29 OFFCURVE",
"125 -14 CURVE",
"183 -33 OFFCURVE",
"301 -35 OFFCURVE",
"301 -95 CURVE SMOOTH",
"301 -95 LINE SMOOTH",
"301 -136 OFFCURVE",
"245 -180 OFFCURVE",
"156 -180 CURVE SMOOTH"
);
},
{
closed = 1;
nodes = (
"152 182 OFFCURVE",
"122 217 OFFCURVE",
"122 280 CURVE SMOOTH",
"122 358 OFFCURVE",
"168 428 OFFCURVE",
"243 428 CURVE",
"294 428 OFFCURVE",
"324 396 OFFCURVE",
"324 334 CURVE SMOOTH",
"324 257 OFFCURVE",
"277 182 OFFCURVE",
"203 182 CURVE SMOOTH"
);
}
);
width = 459;
},
{
background = {
paths = (
{
closed = 1;
nodes = (
"320 -250 OFFCURVE",
"417 -175 OFFCURVE",
"417 -67 CURVE SMOOTH",
"417 34 OFFCURVE",
"308 54 OFFCURVE",
"248 62 CURVE SMOOTH",
"180 71 OFFCURVE",
"139 78 OFFCURVE",
"139 100 CURVE SMOOTH",
"139 108 OFFCURVE",
"143 115 OFFCURVE",
"150 119 CURVE",
"166 116 OFFCURVE",
"180 114 OFFCURVE",
"198 114 CURVE SMOOTH",
"342 114 OFFCURVE",
"431 225 OFFCURVE",
"431 346 CURVE SMOOTH",
"431 372 OFFCURVE",
"427 401 OFFCURVE",
"420 421 CURVE",
"429 422 OFFCURVE",
"437 422 OFFCURVE",
"442 422 CURVE SMOOTH",
"489 422 LINE",
"510 500 LINE",
"476 500 LINE SMOOTH",
"431 500 OFFCURVE",
"390 489 OFFCURVE",
"371 478 CURVE",
"347 497 OFFCURVE",
"311 508 OFFCURVE",
"268 508 CURVE SMOOTH",
"125 508 OFFCURVE",
"35 398 OFFCURVE",
"35 278 CURVE SMOOTH",
"35 227 OFFCURVE",
"52 179 OFFCURVE",
"83 150 CURVE",
"45 131 OFFCURVE",
"23 107 OFFCURVE",
"23 71 CURVE SMOOTH",
"23 44 OFFCURVE",
"36 24 OFFCURVE",
"54 10 CURVE",
"-6 -22 OFFCURVE",
"-46 -62 OFFCURVE",
"-46 -119 CURVE SMOOTH",
"-46 -186 OFFCURVE",
"13 -250 OFFCURVE",
"157 -250 CURVE SMOOTH"
);
},
{
closed = 1;
nodes = (
"298 417 OFFCURVE",
"320 385 OFFCURVE",
"320 337 CURVE SMOOTH",
"320 263 OFFCURVE",
"282 205 OFFCURVE",
"214 205 CURVE SMOOTH",
"167 205 OFFCURVE",
"146 237 OFFCURVE",
"146 285 CURVE SMOOTH",
"146 359 OFFCURVE",
"183 417 OFFCURVE",
"252 417 CURVE SMOOTH"
);
},
{
closed = 1;
nodes = (
"305 -134 OFFCURVE",
"241 -162 OFFCURVE",
"166 -162 CURVE SMOOTH",
"96 -162 OFFCURVE",
"58 -137 OFFCURVE",
"58 -99 CURVE SMOOTH",
"58 -55 OFFCURVE",
"97 -34 OFFCURVE",
"136 -21 CURVE",
"183 -30 OFFCURVE",
"305 -32 OFFCURVE",
"305 -88 CURVE SMOOTH"
);
}
);
};
layerId = "D879A026-05F7-4E99-AC55-D533E46CE7AB";
paths = (
{
closed = 1;
nodes = (
"321 -250 OFFCURVE",
"417 -172 OFFCURVE",
"417 -71 CURVE SMOOTH",
"417 35 OFFCURVE",
"312 53 OFFCURVE",
"248 62 CURVE SMOOTH",
"182 71 OFFCURVE",
"139 77 OFFCURVE",
"139 100 CURVE SMOOTH",
"139 108 OFFCURVE",
"143 115 OFFCURVE",
"150 119 CURVE",
"166 116 OFFCURVE",
"180 114 OFFCURVE",
"199 114 CURVE SMOOTH",
"342 114 OFFCURVE",
"431 225 OFFCURVE",
"431 346 CURVE SMOOTH",
"431 372 OFFCURVE",
"427 401 OFFCURVE",
"420 421 CURVE",
"429 422 OFFCURVE",
"437 422 OFFCURVE",
"442 422 CURVE SMOOTH",
"489 422 LINE",
"510 500 LINE",
"476 500 LINE SMOOTH",
"431 500 OFFCURVE",
"390 489 OFFCURVE",
"371 478 CURVE",
"347 497 OFFCURVE",
"311 508 OFFCURVE",
"267 508 CURVE SMOOTH",
"126 508 OFFCURVE",
"35 398 OFFCURVE",
"35 278 CURVE SMOOTH",
"35 227 OFFCURVE",
"52 179 OFFCURVE",
"83 150 CURVE",
"45 131 OFFCURVE",
"23 107 OFFCURVE",
"23 71 CURVE SMOOTH",
"23 44 OFFCURVE",
"36 24 OFFCURVE",
"54 10 CURVE",
"-6 -22 OFFCURVE",
"-46 -62 OFFCURVE",
"-46 -119 CURVE SMOOTH",
"-46 -186 OFFCURVE",
"12 -250 OFFCURVE",
"159 -250 CURVE"
);
},
{
closed = 1;
nodes = (
"97 -162 OFFCURVE",
"58 -138 OFFCURVE",
"58 -97 CURVE SMOOTH",
"58 -56 OFFCURVE",
"97 -34 OFFCURVE",
"136 -21 CURVE",
"188 -31 OFFCURVE",
"305 -31 OFFCURVE",
"305 -90 CURVE SMOOTH",
"305 -90 LINE SMOOTH",
"305 -133 OFFCURVE",
"241 -162 OFFCURVE",
"166 -162 CURVE SMOOTH"
);
},
{
closed = 1;
nodes = (
"167 205 OFFCURVE",
"146 235 OFFCURVE",
"146 287 CURVE SMOOTH",
"146 357 OFFCURVE",
"183 417 OFFCURVE",
"250 417 CURVE",
"298 417 OFFCURVE",
"320 387 OFFCURVE",
"320 334 CURVE SMOOTH",
"320 265 OFFCURVE",
"282 205 OFFCURVE",
"215 205 CURVE SMOOTH"
);
}
);
width = 487;
}
);
unicode = 0067;
},
{
glyphname = h;
lastChange = "2016-08-30 19:21:11 +0000";
layers = (
{
background = {
paths = (
{
closed = 1;
nodes = (
"398 0 LINE",
"449 288 OFFCURVE",
"452 312 OFFCURVE",
"452 335 CURVE SMOOTH",
"452 435 OFFCURVE",
"414 500 OFFCURVE",
"306 500 CURVE SMOOTH",
"257 500 OFFCURVE",
"215 480 OFFCURVE",
"178 437 CURVE",
"234 750 LINE",
"142 750 LINE",
"10 0 LINE",
"101 0 LINE",
"164 356 LINE",
"196 400 OFFCURVE",
"232 420 OFFCURVE",
"281 420 CURVE SMOOTH",
"338 420 OFFCURVE",
"360 394 OFFCURVE",
"360 327 CURVE SMOOTH",
"360 308 OFFCURVE",
"357 287 OFFCURVE",
"307 0 CURVE"
);
}
);
};
layerId = UUID0;
paths = (
{
closed = 1;
nodes = (
"101 0 LINE",
"164 356 LINE",
"196 400 OFFCURVE",
"232 420 OFFCURVE",
"281 420 CURVE SMOOTH",
"337 420 OFFCURVE",
"360 394 OFFCURVE",
"360 330 CURVE SMOOTH",
"360 307 OFFCURVE",
"357 287 OFFCURVE",
"307 0 CURVE",
"398 0 LINE",
"449 288 OFFCURVE",
"452 312 OFFCURVE",
"452 338 CURVE SMOOTH",
"452 434 OFFCURVE",
"412 500 OFFCURVE",
"310 500 CURVE SMOOTH",
"258 500 OFFCURVE",
"218 483 OFFCURVE",
"178 437 CURVE",
"234 750 LINE",
"142 750 LINE",
"10 0 LINE"
);
}
);
width = 506;
},
{
background = {
paths = (
{
closed = 1;
nodes = (
"433 0 LINE",
"485 295 OFFCURVE",
"487 319 OFFCURVE",
"487 342 CURVE SMOOTH",
"487 442 OFFCURVE",
"439 508 OFFCURVE",
"315 508 CURVE SMOOTH",
"283 508 OFFCURVE",
"245 493 OFFCURVE",
"215 474 CURVE",
"263 750 LINE",
"139 750 LINE",
"7 0 LINE",
"131 0 LINE",
"195 363 LINE",
"221 390 OFFCURVE",
"250 406 OFFCURVE",
"288 406 CURVE SMOOTH",
"338 406 OFFCURVE",
"361 379 OFFCURVE",
"361 323 CURVE SMOOTH",
"361 307 OFFCURVE",
"359 289 OFFCURVE",
"309 0 CURVE"
);
}
);
};
layerId = "D879A026-05F7-4E99-AC55-D533E46CE7AB";
paths = (
{
closed = 1;
nodes = (
"131 0 LINE",
"195 363 LINE",
"221 390 OFFCURVE",
"250 406 OFFCURVE",
"288 406 CURVE SMOOTH",
"338 406 OFFCURVE",
"361 379 OFFCURVE",
"361 323 CURVE SMOOTH",
"361 307 OFFCURVE",
"359 289 OFFCURVE",
"309 0 CURVE",
"433 0 LINE",
"485 295 OFFCURVE",
"487 319 OFFCURVE",
"487 339 CURVE SMOOTH",
"487 442 OFFCURVE",
"434 508 OFFCURVE",
"325 508 CURVE SMOOTH",
"282 508 OFFCURVE",
"255 498 OFFCURVE",
"215 474 CURVE",
"263 750 LINE",
"139 750 LINE",
"7 0 LINE"
);
}
);
width = 538;
}
);
leftKerningGroup = h;
rightKerningGroup = n;
unicode = 0068;
},
{
glyphname = i;
lastChange = "2016-08-30 22:19:33 +0000";
layers = (
{
anchors = (
{
name = bottom;
position = "{55, 0}";
}
);
background = {
paths = (
{
closed = 1;
nodes = (
"207 600 LINE",
"224 700 LINE",
"133 700 LINE",
"116 600 LINE"
);
},
{
closed = 1;
nodes = (
"101 0 LINE",
"187 490 LINE",
"96 490 LINE",
"10 0 LINE"
);
}
);
};
layerId = UUID0;
paths = (
{
closed = 1;
nodes = (
"101 0 LINE",
"187 490 LINE",
"96 490 LINE",
"10 0 LINE"
);
},
{
closed = 1;
nodes = (
"207 600 LINE",
"224 700 LINE",
"133 700 LINE",
"116 600 LINE"
);
}
);
width = 214;
},
{
anchors = (
{
name = bottom;
position = "{69, 0}";
}
);
background = {
paths = (
{
closed = 1;
nodes = (
"233 576 LINE",
"255 700 LINE",
"130 700 LINE",
"109 576 LINE"
);
},
{
closed = 1;
nodes = (
"131 0 LINE",
"219 500 LINE",
"95 500 LINE",
"7 0 LINE"
);
}
);
};
layerId = "D879A026-05F7-4E99-AC55-D533E46CE7AB";
paths = (
{
closed = 1;
nodes = (
"131 0 LINE",
"219 500 LINE",
"95 500 LINE",
"7 0 LINE"
);
},
{
closed = 1;
nodes = (
"233 576 LINE",
"255 700 LINE",
"130 700 LINE",
"109 576 LINE"
);
}
);
width = 242;
}
);
leftKerningGroup = i;
rightKerningGroup = i;
unicode = 0069;
},
{
glyphname = dotlessi;
lastChange = "2016-08-30 19:28:35 +0000";
layers = (
{
anchors = (
{
name = bottom;
position = "{54, 0}";
},
{
name = ogonek;
position = "{193, 10}";
},
{
name = top;
position = "{142, 490}";
}
);
background = {
paths = (
{
closed = 1;
nodes = (
"101 0 LINE",
"187 490 LINE",
"96 490 LINE",
"10 0 LINE"
);
}
);
};
layerId = UUID0;
paths = (
{
closed = 1;
nodes = (
"101 0 LINE",
"187 490 LINE",
"96 490 LINE",
"10 0 LINE"
);
}
);
width = 214;
},
{
anchors = (
{
name = bottom;
position = "{72, 0}";
},
{
name = ogonek;
position = "{218, 10}";
},
{
name = top;
position = "{152, 500}";
}
);
background = {
paths = (
{
closed = 1;
nodes = (
"131 0 LINE",
"219 500 LINE",
"95 500 LINE",
"7 0 LINE"
);
}
);
};
layerId = "D879A026-05F7-4E99-AC55-D533E46CE7AB";
paths = (
{
closed = 1;
nodes = (
"131 0 LINE",
"219 500 LINE",
"95 500 LINE",
"7 0 LINE"
);
}
);
width = 242;
}
);
leftKerningGroup = i;
rightKerningGroup = i;
unicode = 0131;
},
{
glyphname = j;
lastChange = "2016-08-25 20:35:28 +0000";
layers = (
{
background = {
paths = (
{
closed = 1;
nodes = (
"-53 -237 LINE SMOOTH",
"5 -228 OFFCURVE",
"65 -201 OFFCURVE",
"82 -107 CURVE SMOOTH",
"187 490 LINE",
"96 490 LINE",
"-3 -73 LINE SMOOTH",
"-17 -152 OFFCURVE",
"-30 -167 OFFCURVE",
"-82 -173 CURVE",
"-85 -242 LINE"
);
},
{
closed = 1;
nodes = (
"207 600 LINE",
"225 700 LINE",
"134 700 LINE",
"116 600 LINE"
);
}
);
};
layerId = UUID0;
paths = (
{
closed = 1;
nodes = (
"-53 -237 LINE SMOOTH",
"5 -228 OFFCURVE",
"65 -201 OFFCURVE",
"82 -107 CURVE SMOOTH",
"187 490 LINE",
"96 490 LINE",
"-3 -73 LINE SMOOTH",
"-17 -152 OFFCURVE",
"-30 -167 OFFCURVE",
"-82 -173 CURVE",
"-85 -242 LINE"
);
},
{
closed = 1;
nodes = (
"207 600 LINE",
"225 700 LINE",
"134 700 LINE",
"116 600 LINE"
);
}
);
width = 214;
},
{
background = {
paths = (
{
closed = 1;
nodes = (
"-34 -242 LINE SMOOTH",
"57 -242 OFFCURVE",
"99 -183 OFFCURVE",
"112 -111 CURVE SMOOTH",
"220 500 LINE",
"96 500 LINE",
"-3 -60 LINE SMOOTH",
"-17 -139 OFFCURVE",
"-23 -140 OFFCURVE",
"-73 -140 CURVE",
"-80 -242 LINE"
);
},
{
closed = 1;
nodes = (
"233 576 LINE",
"255 700 LINE",
"131 700 LINE",
"109 576 LINE"
);
}
);
};
layerId = "D879A026-05F7-4E99-AC55-D533E46CE7AB";
paths = (
{
closed = 1;
nodes = (
"-34 -242 LINE SMOOTH",
"57 -242 OFFCURVE",
"99 -183 OFFCURVE",
"112 -111 CURVE SMOOTH",
"220 500 LINE",
"96 500 LINE",
"-3 -60 LINE SMOOTH",
"-16 -136 OFFCURVE",
"-23 -140 OFFCURVE",
"-73 -140 CURVE",
"-80 -242 LINE"
);
},
{
closed = 1;
nodes = (
"233 576 LINE",
"255 700 LINE",
"131 700 LINE",
"109 576 LINE"
);
}
);
width = 243;
}
);
leftKerningGroup = i;
rightKerningGroup = i;
unicode = 006A;
},
{
glyphname = dotlessj;
lastChange = "2016-08-25 20:35:28 +0000";
layers = (
{
background = {
paths = (
{
closed = 1;
nodes = (
"-53 -237 LINE SMOOTH",
"5 -228 OFFCURVE",
"65 -201 OFFCURVE",
"82 -107 CURVE SMOOTH",
"187 490 LINE",
"96 490 LINE",
"-3 -73 LINE SMOOTH",
"-17 -152 OFFCURVE",
"-30 -167 OFFCURVE",
"-82 -173 CURVE",
"-85 -242 LINE"
);
}
);
};
layerId = UUID0;
paths = (
{
closed = 1;
nodes = (
"-53 -237 LINE SMOOTH",
"5 -228 OFFCURVE",
"65 -201 OFFCURVE",
"82 -107 CURVE SMOOTH",
"187 490 LINE",
"96 490 LINE",
"-3 -73 LINE SMOOTH",
"-17 -152 OFFCURVE",
"-30 -167 OFFCURVE",
"-82 -173 CURVE",
"-85 -242 LINE"
);
}
);
width = 214;
},
{
background = {
paths = (
{
closed = 1;
nodes = (
"-34 -242 LINE SMOOTH",
"57 -242 OFFCURVE",
"99 -183 OFFCURVE",
"112 -111 CURVE SMOOTH",
"220 500 LINE",
"96 500 LINE",
"-3 -60 LINE SMOOTH",
"-17 -139 OFFCURVE",
"-23 -140 OFFCURVE",
"-73 -140 CURVE",
"-80 -242 LINE"
);
}
);
};
layerId = "D879A026-05F7-4E99-AC55-D533E46CE7AB";
paths = (
{
closed = 1;
nodes = (
"-34 -242 LINE SMOOTH",
"57 -242 OFFCURVE",
"99 -183 OFFCURVE",
"112 -111 CURVE SMOOTH",
"220 500 LINE",
"96 500 LINE",
"-3 -60 LINE SMOOTH",
"-17 -139 OFFCURVE",
"-23 -140 OFFCURVE",
"-73 -140 CURVE",
"-80 -242 LINE"
);
}
);
width = 243;
}
);
unicode = 0237;
},
{
glyphname = k;
lastChange = "2016-08-25 20:35:28 +0000";
layers = (
{
background = {
paths = (
{
closed = 1;
nodes = (
"101 0 LINE",
"145 249 LINE",
"260 0 LINE",
"367 0 LINE",
"235 264 LINE",
"451 490 LINE",
"343 490 LINE",
"148 269 LINE",
"233 750 LINE",
"142 750 LINE",
"10 0 LINE"
);
}
);
};
layerId = UUID0;
paths = (
{
closed = 1;
nodes = (
"101 0 LINE",
"145 249 LINE",
"260 0 LINE",
"367 0 LINE",
"235 264 LINE",
"451 490 LINE",
"343 490 LINE",
"148 269 LINE",
"233 750 LINE",
"142 750 LINE",
"10 0 LINE"
);
}
);
width = 428;
},
{
background = {
paths = (
{
closed = 1;
nodes = (
"131 0 LINE",
"170 222 LINE",
"280 0 LINE",
"419 0 LINE",
"293 260 LINE",
"508 500 LINE",
"369 500 LINE",
"183 295 LINE",
"264 750 LINE",
"139 750 LINE",
"7 0 LINE"
);
}
);
};
layerId = "D879A026-05F7-4E99-AC55-D533E46CE7AB";
paths = (
{
closed = 1;
nodes = (
"131 0 LINE",
"170 222 LINE",
"280 0 LINE",
"419 0 LINE",
"293 260 LINE",
"508 500 LINE",
"369 500 LINE",
"183 295 LINE",
"264 750 LINE",
"139 750 LINE",
"7 0 LINE"
);
}
);
width = 480;
}
);
leftKerningGroup = h;
unicode = 006B;
},
{
glyphname = l;
lastChange = "2016-08-30 19:21:11 +0000";
layers = (
{
background = {
paths = (
{
closed = 1;
nodes = (
"175 62 LINE",
"134 62 OFFCURVE",
"119 69 OFFCURVE",
"119 103 CURVE SMOOTH",
"119 117 OFFCURVE",
"122 136 OFFCURVE",
"230 750 CURVE",
"139 750 LINE",
"24 99 OFFCURVE",
"24 90 OFFCURVE",
"24 81 CURVE SMOOTH",
"24 32 OFFCURVE",
"49 -10 OFFCURVE",
"120 -10 CURVE SMOOTH",
"151 -10 LINE"
);
}
);
};
layerId = UUID0;
paths = (
{
closed = 1;
nodes = (
"151 -10 LINE",
"175 62 LINE",
"134 62 OFFCURVE",
"119 69 OFFCURVE",
"119 102 CURVE SMOOTH",
"119 117 OFFCURVE",
"122 136 OFFCURVE",
"230 750 CURVE",
"139 750 LINE",
"25 104 OFFCURVE",
"24 92 OFFCURVE",
"24 82 CURVE SMOOTH",
"24 32 OFFCURVE",
"49 -10 OFFCURVE",
"120 -10 CURVE SMOOTH"
);
}
);
width = 234;
},
{
background = {
paths = (
{
closed = 1;
nodes = (
"201 92 LINE",
"170 92 OFFCURVE",
"155 92 OFFCURVE",
"154 121 CURVE SMOOTH",
"154 133 OFFCURVE",
"156 149 OFFCURVE",
"262 750 CURVE",
"138 750 LINE",
"25 110 OFFCURVE",
"24 99 OFFCURVE",
"24 89 CURVE SMOOTH",
"24 32 OFFCURVE",
"55 -10 OFFCURVE",
"127 -10 CURVE SMOOTH",
"172 -10 LINE"
);
}
);
};
layerId = "D879A026-05F7-4E99-AC55-D533E46CE7AB";
paths = (
{
closed = 1;
nodes = (
"172 -10 LINE",
"201 92 LINE",
"172 92 OFFCURVE",
"154 92 OFFCURVE",
"154 123 CURVE SMOOTH",
"154 133 OFFCURVE",
"156 149 OFFCURVE",
"262 750 CURVE",
"138 750 LINE",
"25 110 OFFCURVE",
"24 99 OFFCURVE",
"24 89 CURVE SMOOTH",
"24 32 OFFCURVE",
"55 -10 OFFCURVE",
"127 -10 CURVE SMOOTH"
);
}
);
width = 264;
}
);
unicode = 006C;
},
{
glyphname = m;
lastChange = "2016-08-30 19:21:11 +0000";
layers = (
{
background = {
paths = (
{
closed = 1;
nodes = (
"693 0 LINE",
"748 314 OFFCURVE",
"751 337 OFFCURVE",
"751 360 CURVE SMOOTH",
"751 454 OFFCURVE",
"702 500 OFFCURVE",
"609 500 CURVE SMOOTH",
"526 500 OFFCURVE",
"469 463 OFFCURVE",
"434 402 CURVE",
"411 484 OFFCURVE",
"357 500 OFFCURVE",
"304 500 CURVE SMOOTH",
"258 500 OFFCURVE",
"219 488 OFFCURVE",
"168 438 CURVE",
"168 490 LINE",
"96 490 LINE",
"10 0 LINE",
"101 0 LINE",
"164 356 LINE",
"193 400 OFFCURVE",
"234 420 OFFCURVE",
"283 420 CURVE SMOOTH",
"330 420 OFFCURVE",
"360 401 OFFCURVE",
"360 334 CURVE SMOOTH",
"360 316 OFFCURVE",
"358 295 OFFCURVE",
"306 0 CURVE",
"397 0 LINE",
"447 284 LINE SMOOTH",
"457 341 OFFCURVE",
"486 420 OFFCURVE",
"580 420 CURVE SMOOTH",
"634 420 OFFCURVE",
"658 394 OFFCURVE",
"658 340 CURVE SMOOTH",
"658 324 OFFCURVE",
"656 307 OFFCURVE",
"602 0 CURVE"
);
}
);
};
layerId = UUID0;
paths = (
{
closed = 1;
nodes = (
"101 0 LINE",
"164 356 LINE",
"193 400 OFFCURVE",
"234 420 OFFCURVE",
"283 420 CURVE SMOOTH",
"330 420 OFFCURVE",
"360 401 OFFCURVE",
"360 334 CURVE SMOOTH",
"360 316 OFFCURVE",
"358 295 OFFCURVE",
"306 0 CURVE",
"397 0 LINE",
"447 284 LINE SMOOTH",
"457 341 OFFCURVE",
"486 420 OFFCURVE",
"580 420 CURVE SMOOTH",
"634 420 OFFCURVE",
"658 394 OFFCURVE",
"658 340 CURVE SMOOTH",
"658 324 OFFCURVE",
"656 307 OFFCURVE",
"602 0 CURVE",
"693 0 LINE",
"748 314 OFFCURVE",
"751 337 OFFCURVE",
"751 360 CURVE SMOOTH",
"751 454 OFFCURVE",
"702 500 OFFCURVE",
"609 500 CURVE SMOOTH",
"526 500 OFFCURVE",
"469 463 OFFCURVE",
"434 402 CURVE",
"411 484 OFFCURVE",
"357 500 OFFCURVE",
"304 500 CURVE SMOOTH",
"258 500 OFFCURVE",
"219 488 OFFCURVE",
"168 438 CURVE",
"168 490 LINE",
"96 490 LINE",
"10 0 LINE"
);
}
);
width = 801;
},
{
background = {
paths = (
{
closed = 1;
nodes = (
"731 0 LINE",
"782 294 OFFCURVE",
"785 317 OFFCURVE",
"785 341 CURVE SMOOTH",
"785 440 OFFCURVE",
"736 508 OFFCURVE",
"628 508 CURVE SMOOTH",
"542 508 OFFCURVE",
"477 464 OFFCURVE",
"457 432 CURVE",
"433 486 OFFCURVE",
"378 508 OFFCURVE",
"327 508 CURVE SMOOTH",
"275 508 OFFCURVE",
"225 485 OFFCURVE",
"197 461 CURVE",
"198 500 LINE",
"95 500 LINE",
"7 0 LINE",
"131 0 LINE",
"196 365 LINE",
"221 391 OFFCURVE",
"248 406 OFFCURVE",
"286 406 CURVE SMOOTH",
"328 406 OFFCURVE",
"363 392 OFFCURVE",
"363 327 CURVE SMOOTH",
"363 310 OFFCURVE",
"345 211 OFFCURVE",
"308 0 CURVE",
"431 0 LINE",
"485 309 LINE SMOOTH",
"493 355 OFFCURVE",
"521 406 OFFCURVE",
"589 406 CURVE SMOOTH",
"638 406 OFFCURVE",
"660 390 OFFCURVE",
"660 321 CURVE SMOOTH",
"660 306 OFFCURVE",
"657 288 OFFCURVE",
"607 0 CURVE"
);
}
);
};
layerId = "D879A026-05F7-4E99-AC55-D533E46CE7AB";
paths = (
{
closed = 1;
nodes = (
"131 0 LINE",
"196 365 LINE",
"221 391 OFFCURVE",
"248 406 OFFCURVE",
"286 406 CURVE SMOOTH",
"324 406 OFFCURVE",
"363 392 OFFCURVE",
"363 334 CURVE SMOOTH",
"363 309 OFFCURVE",
"356 274 OFFCURVE",
"308 0 CURVE",
"431 0 LINE",
"485 309 LINE SMOOTH",
"493 355 OFFCURVE",
"519 406 OFFCURVE",
"593 406 CURVE SMOOTH",
"634 406 OFFCURVE",
"660 390 OFFCURVE",
"660 324 CURVE SMOOTH",
"660 306 OFFCURVE",
"658 293 OFFCURVE",
"607 0 CURVE",
"731 0 LINE",
"782 294 OFFCURVE",
"785 317 OFFCURVE",
"785 341 CURVE SMOOTH",
"785 440 OFFCURVE",
"736 508 OFFCURVE",
"628 508 CURVE SMOOTH",
"542 508 OFFCURVE",
"477 464 OFFCURVE",
"457 432 CURVE",
"433 486 OFFCURVE",
"378 508 OFFCURVE",
"327 508 CURVE SMOOTH",
"275 508 OFFCURVE",
"225 485 OFFCURVE",
"197 461 CURVE",
"197 500 LINE",
"95 500 LINE",
"7 0 LINE"
);
}
);
width = 836;
}
);
leftKerningGroup = n;
rightKerningGroup = n;
unicode = 006D;
},
{
glyphname = n;
lastChange = "2016-08-30 19:21:11 +0000";
layers = (
{
background = {
paths = (
{
closed = 1;
nodes = (
"407 0 LINE",
"460 296 OFFCURVE",
"462 321 OFFCURVE",
"462 343 CURVE SMOOTH",
"462 443 OFFCURVE",
"420 500 OFFCURVE",
"312 500 CURVE SMOOTH",
"269 500 OFFCURVE",
"222 488 OFFCURVE",
"170 438 CURVE",
"173 490 LINE",
"96 490 LINE",
"10 0 LINE",
"101 0 LINE",
"164 356 LINE",
"193 400 OFFCURVE",
"238 420 OFFCURVE",
"284 420 CURVE SMOOTH",
"344 420 OFFCURVE",
"370 393 OFFCURVE",
"370 332 CURVE SMOOTH",
"370 314 OFFCURVE",
"368 294 OFFCURVE",
"316 0 CURVE"
);
}
);
};
layerId = UUID0;
paths = (
{
closed = 1;
nodes = (
"101 0 LINE",
"164 356 LINE",
"193 400 OFFCURVE",
"237 420 OFFCURVE",
"286 420 CURVE SMOOTH",
"344 420 OFFCURVE",
"370 392 OFFCURVE",
"370 331 CURVE SMOOTH",
"370 314 OFFCURVE",
"368 294 OFFCURVE",
"316 0 CURVE",
"407 0 LINE",
"460 296 OFFCURVE",
"462 321 OFFCURVE",
"462 343 CURVE SMOOTH",
"462 442 OFFCURVE",
"420 500 OFFCURVE",
"316 500 CURVE SMOOTH",
"268 500 OFFCURVE",
"222 488 OFFCURVE",
"170 438 CURVE",
"173 490 LINE",
"96 490 LINE",
"10 0 LINE"
);
}
);
width = 515;
},
{
background = {
paths = (
{
closed = 1;
nodes = (
"431 0 LINE",
"483 295 OFFCURVE",
"485 319 OFFCURVE",
"485 342 CURVE SMOOTH",
"485 442 OFFCURVE",
"437 508 OFFCURVE",
"313 508 CURVE SMOOTH",
"278 508 OFFCURVE",
"236 491 OFFCURVE",
"209 470 CURVE",
"214 500 LINE",
"95 500 LINE",
"7 0 LINE",
"131 0 LINE",
"195 363 LINE",
"222 390 OFFCURVE",
"249 406 OFFCURVE",
"287 406 CURVE SMOOTH",
"337 406 OFFCURVE",
"358 380 OFFCURVE",
"358 325 CURVE SMOOTH",
"358 309 OFFCURVE",
"357 290 OFFCURVE",
"306 0 CURVE"
);
}
);
};
layerId = "D879A026-05F7-4E99-AC55-D533E46CE7AB";
paths = (
{
closed = 1;
nodes = (
"131 0 LINE",
"195 363 LINE",
"222 390 OFFCURVE",
"249 406 OFFCURVE",
"287 406 CURVE SMOOTH",
"337 406 OFFCURVE",
"358 380 OFFCURVE",
"358 322 CURVE SMOOTH",
"358 309 OFFCURVE",
"357 290 OFFCURVE",
"306 0 CURVE",
"431 0 LINE",
"483 295 OFFCURVE",
"485 319 OFFCURVE",
"485 339 CURVE SMOOTH",
"485 442 OFFCURVE",
"432 508 OFFCURVE",
"324 508 CURVE SMOOTH",
"272 508 OFFCURVE",
"241 493 OFFCURVE",
"209 470 CURVE",
"204 500 LINE",
"95 500 LINE",
"7 0 LINE"
);
}
);
width = 536;
}
);
leftKerningGroup = n;
rightKerningGroup = n;
unicode = 006E;
},
{
glyphname = o;
lastChange = "2016-08-30 22:21:11 +0000";
layers = (
{
anchors = (
{
name = bottom;
position = "{205, 0}";
},
{
name = center;
position = "{257, 245}";
},
{
name = ogonek;
position = "{463, 10}";
},
{
name = top;
position = "{293, 490}";
},
{
name = topright;
position = "{431, 490}";
}
);
background = {
paths = (
{
closed = 1;
nodes = (
"365 -10 OFFCURVE",
"475 132 OFFCURVE",
"475 294 CURVE SMOOTH",
"475 410 OFFCURVE",
"412 500 OFFCURVE",
"293 500 CURVE SMOOTH",
"130 500 OFFCURVE",
"21 358 OFFCURVE",
"21 196 CURVE SMOOTH",
"21 80 OFFCURVE",
"83 -10 OFFCURVE",
"203 -10 CURVE SMOOTH"
);
},
{
closed = 1;
nodes = (
"346 420 OFFCURVE",
"382 371 OFFCURVE",
"382 290 CURVE SMOOTH",
"382 162 OFFCURVE",
"319 70 OFFCURVE",
"217 70 CURVE SMOOTH",
"149 70 OFFCURVE",
"114 119 OFFCURVE",
"114 200 CURVE SMOOTH",
"114 328 OFFCURVE",
"177 420 OFFCURVE",
"279 420 CURVE SMOOTH"
);
}
);
};
layerId = UUID0;
paths = (
{
closed = 1;
nodes = (
"363 -10 OFFCURVE",
"475 132 OFFCURVE",
"475 292 CURVE SMOOTH",
"475 409 OFFCURVE",
"415 500 OFFCURVE",
"290 500 CURVE SMOOTH",
"133 500 OFFCURVE",
"21 358 OFFCURVE",
"21 197 CURVE SMOOTH",
"21 80 OFFCURVE",
"81 -10 OFFCURVE",
"206 -10 CURVE SMOOTH"
);
},
{
closed = 1;
nodes = (
"149 70 OFFCURVE",
"114 116 OFFCURVE",
"114 205 CURVE SMOOTH",
"114 324 OFFCURVE",
"177 420 OFFCURVE",
"277 420 CURVE SMOOTH",
"346 420 OFFCURVE",
"382 375 OFFCURVE",
"382 285 CURVE SMOOTH",
"382 166 OFFCURVE",
"319 70 OFFCURVE",
"219 70 CURVE SMOOTH"
);
}
);
width = 514;
},
{
anchors = (
{
name = bottom;
position = "{216, 0}";
},
{
name = center;
position = "{275, 250}";
},
{
name = ogonek;
position = "{494, 10}";
},
{
name = top;
position = "{328, 500}";
},
{
name = topright;
position = "{458, 500}";
}
);
background = {
paths = (
{
closed = 1;
nodes = (
"397 -10 OFFCURVE",
"516 136 OFFCURVE",
"516 294 CURVE SMOOTH",
"516 411 OFFCURVE",
"446 508 OFFCURVE",
"312 508 CURVE SMOOTH",
"136 508 OFFCURVE",
"17 362 OFFCURVE",
"17 204 CURVE SMOOTH",
"17 87 OFFCURVE",
"87 -10 OFFCURVE",
"221 -10 CURVE SMOOTH"
);
},
{
closed = 1;
nodes = (
"355 406 OFFCURVE",
"388 357 OFFCURVE",
"388 286 CURVE SMOOTH",
"388 178 OFFCURVE",
"328 92 OFFCURVE",
"239 92 CURVE SMOOTH",
"177 92 OFFCURVE",
"145 141 OFFCURVE",
"145 212 CURVE SMOOTH",
"145 320 OFFCURVE",
"205 406 OFFCURVE",
"294 406 CURVE SMOOTH"
);
}
);
};
layerId = "D879A026-05F7-4E99-AC55-D533E46CE7AB";
paths = (
{
closed = 1;
nodes = (
"395 -10 OFFCURVE",
"516 136 OFFCURVE",
"516 293 CURVE SMOOTH",
"516 411 OFFCURVE",
"448 508 OFFCURVE",
"309 508 CURVE SMOOTH",
"138 508 OFFCURVE",
"17 362 OFFCURVE",
"17 205 CURVE SMOOTH",
"17 87 OFFCURVE",
"85 -10 OFFCURVE",
"224 -10 CURVE SMOOTH"
);
},
{
closed = 1;
nodes = (
"177 92 OFFCURVE",
"145 139 OFFCURVE",
"145 215 CURVE SMOOTH",
"145 319 OFFCURVE",
"206 406 OFFCURVE",
"292 406 CURVE SMOOTH",
"355 406 OFFCURVE",
"388 360 OFFCURVE",
"388 284 CURVE SMOOTH",
"388 181 OFFCURVE",
"328 92 OFFCURVE",
"241 92 CURVE SMOOTH"
);
}
);
width = 549;
}
);
leftKerningGroup = o;
rightKerningGroup = o;
unicode = 006F;
},
{
glyphname = oslash;
lastChange = "2016-08-30 22:37:44 +0000";
layers = (
{
background = {
paths = (
{
closed = 1;
nodes = (
"377 -8 OFFCURVE",
"489 136 OFFCURVE",
"489 295 CURVE SMOOTH",
"489 360 OFFCURVE",
"468 424 OFFCURVE",
"426 468 CURVE",
"469 534 LINE",
"393 534 LINE",
"369 494 LINE",
"343 503 OFFCURVE",
"323 506 OFFCURVE",
"301 506 CURVE SMOOTH",
"136 506 OFFCURVE",
"23 360 OFFCURVE",
"23 202 CURVE SMOOTH",
"23 137 OFFCURVE",
"43 73 OFFCURVE",
"84 31 CURVE",
"43 -35 LINE",
"117 -35 LINE",
"140 3 LINE",
"167 -5 OFFCURVE",
"189 -8 OFFCURVE",
"211 -8 CURVE SMOOTH"
);
},
{
closed = 1;
nodes = (
"378 398 LINE",
"390 384 OFFCURVE",
"394 340 OFFCURVE",
"394 310 CURVE SMOOTH",
"394 173 OFFCURVE",
"325 62 OFFCURVE",
"224 62 CURVE SMOOTH",
"215 62 OFFCURVE",
"207 63 OFFCURVE",
"184 68 CURVE"
);
},
{
closed = 1;
nodes = (
"297 436 OFFCURVE",
"303 435 OFFCURVE",
"325 429 CURVE",
"133 100 LINE",
"123 139 OFFCURVE",
"119 178 OFFCURVE",
"119 206 CURVE SMOOTH",
"119 325 OFFCURVE",
"187 436 OFFCURVE",
"288 436 CURVE SMOOTH"
);
}
);
};
layerId = UUID0;
paths = (
{
closed = 1;
nodes = (
"117 -35 LINE",
"140 3 LINE",
"167 -5 OFFCURVE",
"189 -8 OFFCURVE",
"211 -8 CURVE",
"377 -8 OFFCURVE",
"489 136 OFFCURVE",
"489 295 CURVE SMOOTH",
"489 360 OFFCURVE",
"468 424 OFFCURVE",
"426 468 CURVE",
"469 534 LINE",
"393 534 LINE",
"369 494 LINE",
"343 503 OFFCURVE",
"323 506 OFFCURVE",
"301 506 CURVE SMOOTH",
"136 506 OFFCURVE",
"23 360 OFFCURVE",
"23 202 CURVE SMOOTH",
"23 137 OFFCURVE",
"43 73 OFFCURVE",
"84 31 CURVE",
"43 -35 LINE"
);
},
{
closed = 1;
nodes = (
"123 139 OFFCURVE",
"119 178 OFFCURVE",
"119 206 CURVE SMOOTH",
"119 325 OFFCURVE",
"187 436 OFFCURVE",
"288 436 CURVE",
"297 436 OFFCURVE",
"303 435 OFFCURVE",
"325 429 CURVE",
"133 100 LINE"
);
},
{
closed = 1;
nodes = (
"215 62 OFFCURVE",
"207 63 OFFCURVE",
"184 68 CURVE",
"378 398 LINE",
"390 384 OFFCURVE",
"394 340 OFFCURVE",
"394 310 CURVE SMOOTH",
"394 173 OFFCURVE",
"325 62 OFFCURVE",
"224 62 CURVE SMOOTH"
);
}
);
width = 527;
},
{
background = {
paths = (
{
closed = 1;
nodes = (
"394 -10 OFFCURVE",
"513 136 OFFCURVE",
"513 293 CURVE SMOOTH",
"513 358 OFFCURVE",
"492 421 OFFCURVE",
"453 459 CURVE",
"502 534 LINE",
"392 534 LINE",
"371 500 LINE",
"354 505 OFFCURVE",
"334 508 OFFCURVE",
"311 508 CURVE SMOOTH",
"136 508 OFFCURVE",
"17 362 OFFCURVE",
"17 203 CURVE SMOOTH",
"17 139 OFFCURVE",
"37 75 OFFCURVE",
"76 39 CURVE",
"28 -36 LINE",
"135 -36 LINE",
"156 -2 LINE",
"174 -7 OFFCURVE",
"195 -10 OFFCURVE",
"219 -10 CURVE SMOOTH"
);
},
{
closed = 1;
nodes = (
"379 349 LINE",
"383 333 OFFCURVE",
"385 309 OFFCURVE",
"385 287 CURVE SMOOTH",
"385 178 OFFCURVE",
"326 92 OFFCURVE",
"237 92 CURVE SMOOTH",
"230 92 OFFCURVE",
"222 93 OFFCURVE",
"220 94 CURVE"
);
},
{
closed = 1;
nodes = (
"299 406 OFFCURVE",
"305 405 OFFCURVE",
"307 404 CURVE",
"149 149 LINE",
"146 164 OFFCURVE",
"144 188 OFFCURVE",
"144 208 CURVE SMOOTH",
"144 320 OFFCURVE",
"204 406 OFFCURVE",
"293 406 CURVE SMOOTH"
);
}
);
};
layerId = "D879A026-05F7-4E99-AC55-D533E46CE7AB";
paths = (
{
closed = 1;
nodes = (
"135 -36 LINE",
"156 -2 LINE",
"174 -7 OFFCURVE",
"195 -10 OFFCURVE",
"219 -10 CURVE",
"394 -10 OFFCURVE",
"513 136 OFFCURVE",
"513 293 CURVE SMOOTH",
"513 358 OFFCURVE",
"492 421 OFFCURVE",
"453 459 CURVE",
"502 534 LINE",
"392 534 LINE",
"371 500 LINE",
"354 505 OFFCURVE",
"334 508 OFFCURVE",
"311 508 CURVE SMOOTH",
"136 508 OFFCURVE",
"17 362 OFFCURVE",
"17 203 CURVE SMOOTH",
"17 139 OFFCURVE",
"37 75 OFFCURVE",
"76 39 CURVE",
"28 -36 LINE"
);
},
{
closed = 1;
nodes = (
"146 164 OFFCURVE",
"144 188 OFFCURVE",
"144 208 CURVE SMOOTH",
"144 320 OFFCURVE",
"204 406 OFFCURVE",
"293 406 CURVE",
"299 406 OFFCURVE",
"305 405 OFFCURVE",
"307 404 CURVE",
"149 149 LINE"
);
},
{
closed = 1;
nodes = (
"230 92 OFFCURVE",
"222 93 OFFCURVE",
"220 94 CURVE",
"379 349 LINE",
"383 333 OFFCURVE",
"385 309 OFFCURVE",
"385 287 CURVE SMOOTH",
"385 178 OFFCURVE",
"326 92 OFFCURVE",
"237 92 CURVE SMOOTH"
);
}
);
width = 545;
}
);
leftKerningGroup = o;
rightKerningGroup = o;
unicode = 00F8;
},
{
glyphname = oe;
lastChange = "2016-08-30 22:37:55 +0000";
layers = (
{
background = {
paths = (
{
closed = 1;
nodes = (
"778 245 LINE",
"784 262 OFFCURVE",
"796 277 OFFCURVE",
"796 335 CURVE SMOOTH",
"796 439 OFFCURVE",
"732 500 OFFCURVE",
"634 500 CURVE SMOOTH",
"571 500 OFFCURVE",
"498 468 OFFCURVE",
"451 398 CURVE",
"432 468 OFFCURVE",
"365 500 OFFCURVE",
"297 500 CURVE SMOOTH",
"131 500 OFFCURVE",
"22 363 OFFCURVE",
"22 200 CURVE SMOOTH",
"22 82 OFFCURVE",
"85 -10 OFFCURVE",
"205 -10 CURVE SMOOTH",
"281 -10 OFFCURVE",
"357 27 OFFCURVE",
"400 97 CURVE",
"419 27 OFFCURVE",
"470 -10 OFFCURVE",
"575 -10 CURVE SMOOTH",
"635 -10 OFFCURVE",
"686 5 OFFCURVE",
"722 22 CURVE",
"728 99 LINE",
"687 78 OFFCURVE",
"630 62 OFFCURVE",
"582 62 CURVE SMOOTH",
"528 62 OFFCURVE",
"451 88 OFFCURVE",
"475 245 CURVE"
);
},
{
closed = 1;
nodes = (
"682 420 OFFCURVE",
"710 379 OFFCURVE",
"701 307 CURVE",
"488 307 LINE",
"516 388 OFFCURVE",
"559 420 OFFCURVE",
"620 420 CURVE SMOOTH"
);
},
{
closed = 1;
nodes = (
"352 420 OFFCURVE",
"386 365 OFFCURVE",
"386 288 CURVE SMOOTH",
"386 177 OFFCURVE",
"327 70 OFFCURVE",
"221 70 CURVE SMOOTH",
"150 70 OFFCURVE",
"114 119 OFFCURVE",
"114 200 CURVE SMOOTH",
"114 328 OFFCURVE",
"175 420 OFFCURVE",
"283 420 CURVE SMOOTH"
);
}
);
};
layerId = UUID0;
paths = (
{
closed = 1;
nodes = (
"281 -10 OFFCURVE",
"357 27 OFFCURVE",
"400 97 CURVE",
"419 27 OFFCURVE",
"470 -10 OFFCURVE",
"575 -10 CURVE SMOOTH",
"635 -10 OFFCURVE",
"686 5 OFFCURVE",
"722 22 CURVE",
"728 99 LINE",
"687 78 OFFCURVE",
"630 62 OFFCURVE",
"582 62 CURVE SMOOTH",
"535 62 OFFCURVE",
"470 82 OFFCURVE",
"470 191 CURVE SMOOTH",
"470 207 OFFCURVE",
"472 225 OFFCURVE",
"475 245 CURVE",
"778 245 LINE",
"784 262 OFFCURVE",
"796 277 OFFCURVE",
"796 335 CURVE SMOOTH",
"796 439 OFFCURVE",
"732 500 OFFCURVE",
"634 500 CURVE SMOOTH",
"571 500 OFFCURVE",
"498 468 OFFCURVE",
"451 398 CURVE",
"432 468 OFFCURVE",
"365 500 OFFCURVE",
"297 500 CURVE SMOOTH",
"131 500 OFFCURVE",
"22 363 OFFCURVE",
"22 200 CURVE SMOOTH",
"22 82 OFFCURVE",
"85 -10 OFFCURVE",
"205 -10 CURVE SMOOTH"
);
},
{
closed = 1;
nodes = (
"150 70 OFFCURVE",
"114 119 OFFCURVE",
"114 200 CURVE SMOOTH",
"114 328 OFFCURVE",
"175 420 OFFCURVE",
"283 420 CURVE SMOOTH",
"352 420 OFFCURVE",
"386 365 OFFCURVE",
"386 288 CURVE SMOOTH",
"386 177 OFFCURVE",
"327 70 OFFCURVE",
"221 70 CURVE SMOOTH"
);
},
{
closed = 1;
nodes = (
"516 388 OFFCURVE",
"559 420 OFFCURVE",
"620 420 CURVE SMOOTH",
"676 420 OFFCURVE",
"703 386 OFFCURVE",
"703 332 CURVE SMOOTH",
"703 324 OFFCURVE",
"702 316 OFFCURVE",
"701 307 CURVE",
"488 307 LINE"
);
}
);
width = 822;
},
{
background = {
paths = (
{
closed = 1;
nodes = (
"815 223 LINE",
"830 260 OFFCURVE",
"840 287 OFFCURVE",
"840 329 CURVE SMOOTH",
"840 438 OFFCURVE",
"768 508 OFFCURVE",
"662 508 CURVE SMOOTH",
"585 508 OFFCURVE",
"525 477 OFFCURVE",
"477 429 CURVE",
"442 477 OFFCURVE",
"390 508 OFFCURVE",
"311 508 CURVE SMOOTH",
"136 508 OFFCURVE",
"17 362 OFFCURVE",
"17 204 CURVE SMOOTH",
"17 87 OFFCURVE",
"86 -10 OFFCURVE",
"220 -10 CURVE SMOOTH",
"298 -10 OFFCURVE",
"363 21 OFFCURVE",
"416 71 CURVE",
"452 21 OFFCURVE",
"514 -10 OFFCURVE",
"599 -10 CURVE SMOOTH",
"669 -10 OFFCURVE",
"728 8 OFFCURVE",
"769 28 CURVE",
"782 133 LINE",
"739 111 OFFCURVE",
"671 92 OFFCURVE",
"627 92 CURVE SMOOTH",
"562 92 OFFCURVE",
"508 130 OFFCURVE",
"508 223 CURVE"
);
},
{
closed = 1;
nodes = (
"712 406 OFFCURVE",
"721 352 OFFCURVE",
"712 307 CURVE",
"526 307 LINE",
"547 364 OFFCURVE",
"588 406 OFFCURVE",
"648 406 CURVE SMOOTH"
);
},
{
closed = 1;
nodes = (
"354 406 OFFCURVE",
"387 357 OFFCURVE",
"387 286 CURVE SMOOTH",
"387 177 OFFCURVE",
"325 92 OFFCURVE",
"238 92 CURVE SMOOTH",
"177 92 OFFCURVE",
"145 141 OFFCURVE",
"145 212 CURVE SMOOTH",
"145 320 OFFCURVE",
"205 406 OFFCURVE",
"293 406 CURVE SMOOTH"
);
}
);
};
layerId = "D879A026-05F7-4E99-AC55-D533E46CE7AB";
paths = (
{
closed = 1;
nodes = (
"298 -10 OFFCURVE",
"363 21 OFFCURVE",
"416 71 CURVE",
"452 21 OFFCURVE",
"514 -10 OFFCURVE",
"599 -10 CURVE SMOOTH",
"669 -10 OFFCURVE",
"728 8 OFFCURVE",
"769 28 CURVE",
"782 133 LINE",
"739 111 OFFCURVE",
"671 92 OFFCURVE",
"627 92 CURVE SMOOTH",
"570 92 OFFCURVE",
"523 121 OFFCURVE",
"511 190 CURVE SMOOTH",
"509 200 OFFCURVE",
"508 211 OFFCURVE",
"508 223 CURVE",
"815 223 LINE",
"830 260 OFFCURVE",
"840 287 OFFCURVE",
"840 329 CURVE SMOOTH",
"840 438 OFFCURVE",
"768 508 OFFCURVE",
"662 508 CURVE SMOOTH",
"585 508 OFFCURVE",
"525 477 OFFCURVE",
"477 429 CURVE",
"442 477 OFFCURVE",
"390 508 OFFCURVE",
"311 508 CURVE SMOOTH",
"136 508 OFFCURVE",
"17 362 OFFCURVE",
"17 204 CURVE SMOOTH",
"17 87 OFFCURVE",
"86 -10 OFFCURVE",
"220 -10 CURVE SMOOTH"
);
},
{
closed = 1;
nodes = (
"177 92 OFFCURVE",
"145 141 OFFCURVE",
"145 212 CURVE SMOOTH",
"145 320 OFFCURVE",
"205 406 OFFCURVE",
"293 406 CURVE SMOOTH",
"354 406 OFFCURVE",
"387 357 OFFCURVE",
"387 286 CURVE SMOOTH",
"387 177 OFFCURVE",
"325 92 OFFCURVE",
"238 92 CURVE SMOOTH"
);
},
{
closed = 1;
nodes = (
"547 364 OFFCURVE",
"588 406 OFFCURVE",
"648 406 CURVE SMOOTH",
"702 406 OFFCURVE",
"715 368 OFFCURVE",
"715 336 CURVE SMOOTH",
"715 330 OFFCURVE",
"713 312 OFFCURVE",
"712 307 CURVE",
"526 307 LINE"
);
}
);
width = 864;
}
);
leftKerningGroup = o;
rightKerningGroup = e;
unicode = 0153;
},
{
glyphname = p;
lastChange = "2016-08-30 22:38:05 +0000";
layers = (
{
background = {
paths = (
{
closed = 1;
nodes = (
"387 -10 OFFCURVE",
"482 138 OFFCURVE",
"482 295 CURVE SMOOTH",
"482 405 OFFCURVE",
"427 500 OFFCURVE",
"317 500 CURVE SMOOTH",
"252 500 OFFCURVE",
"211 471 OFFCURVE",
"167 420 CURVE",
"170 490 LINE",
"96 490 LINE",
"-33 -242 LINE",
"58 -242 LINE",
"111 62 LINE",
"135 14 OFFCURVE",
"185 -10 OFFCURVE",
"227 -10 CURVE SMOOTH"
);
},
{
closed = 1;
nodes = (
"356 420 OFFCURVE",
"388 364 OFFCURVE",
"388 287 CURVE SMOOTH",
"388 174 OFFCURVE",
"323 70 OFFCURVE",
"232 70 CURVE SMOOTH",
"176 70 OFFCURVE",
"134 110 OFFCURVE",
"134 200 CURVE SMOOTH",
"134 344 OFFCURVE",
"213 420 OFFCURVE",
"294 420 CURVE SMOOTH"
);
}
);
};
layerId = UUID0;
paths = (
{
closed = 1;
nodes = (
"58 -242 LINE",
"111 62 LINE",
"138 11 OFFCURVE",
"182 -10 OFFCURVE",
"236 -10 CURVE SMOOTH",
"381 -10 OFFCURVE",
"482 138 OFFCURVE",
"482 293 CURVE SMOOTH",
"482 407 OFFCURVE",
"427 500 OFFCURVE",
"315 500 CURVE SMOOTH",
"253 500 OFFCURVE",
"211 471 OFFCURVE",
"167 420 CURVE",
"170 490 LINE",
"96 490 LINE",
"-33 -242 LINE"
);
},
{
closed = 1;
nodes = (
"176 70 OFFCURVE",
"134 108 OFFCURVE",
"134 206 CURVE SMOOTH",
"134 340 OFFCURVE",
"213 420 OFFCURVE",
"292 420 CURVE",
"357 420 OFFCURVE",
"388 365 OFFCURVE",
"388 287 CURVE SMOOTH",
"388 174 OFFCURVE",
"323 70 OFFCURVE",
"231 70 CURVE SMOOTH"
);
}
);
width = 522;
},
{
background = {
paths = (
{
closed = 1;
nodes = (
"415 -10 OFFCURVE",
"526 138 OFFCURVE",
"526 297 CURVE SMOOTH",
"526 413 OFFCURVE",
"462 508 OFFCURVE",
"327 508 CURVE SMOOTH",
"278 508 OFFCURVE",
"244 494 OFFCURVE",
"209 471 CURVE",
"204 500 LINE",
"95 500 LINE",
"-36 -242 LINE",
"88 -242 LINE",
"135 24 LINE",
"162 2 OFFCURVE",
"185 -10 OFFCURVE",
"236 -10 CURVE SMOOTH"
);
},
{
closed = 1;
nodes = (
"365 406 OFFCURVE",
"398 357 OFFCURVE",
"398 286 CURVE SMOOTH",
"398 178 OFFCURVE",
"338 92 OFFCURVE",
"246 92 CURVE SMOOTH",
"186 92 OFFCURVE",
"163 136 OFFCURVE",
"163 201 CURVE SMOOTH",
"163 287 OFFCURVE",
"188 406 OFFCURVE",
"302 406 CURVE SMOOTH"
);
}
);
};
layerId = "D879A026-05F7-4E99-AC55-D533E46CE7AB";
paths = (
{
closed = 1;
nodes = (
"88 -242 LINE",
"135 24 LINE",
"162 2 OFFCURVE",
"185 -10 OFFCURVE",
"236 -10 CURVE SMOOTH",
"415 -10 OFFCURVE",
"526 139 OFFCURVE",
"526 295 CURVE SMOOTH",
"526 413 OFFCURVE",
"462 508 OFFCURVE",
"328 508 CURVE SMOOTH",
"277 508 OFFCURVE",
"244 494 OFFCURVE",
"209 471 CURVE",
"204 500 LINE",
"95 500 LINE",
"-36 -242 LINE"
);
},
{
closed = 1;
nodes = (
"184 92 OFFCURVE",
"163 136 OFFCURVE",
"163 206 CURVE SMOOTH",
"163 287 OFFCURVE",
"191 406 OFFCURVE",
"299 406 CURVE",
"368 406 OFFCURVE",
"398 357 OFFCURVE",
"398 284 CURVE SMOOTH",
"398 180 OFFCURVE",
"338 92 OFFCURVE",
"248 92 CURVE SMOOTH"
);
}
);
width = 560;
}
);
leftKerningGroup = n;
rightKerningGroup = o;
unicode = 0070;
},
{
glyphname = thorn;
lastChange = "2016-08-30 22:38:19 +0000";
layers = (
{
background = {
paths = (
{
closed = 1;
nodes = (
"391 -10 OFFCURVE",
"497 138 OFFCURVE",
"497 294 CURVE SMOOTH",
"497 407 OFFCURVE",
"437 500 OFFCURVE",
"319 500 CURVE SMOOTH",
"266 500 OFFCURVE",
"221 481 OFFCURVE",
"178 438 CURVE",
"233 750 LINE",
"142 750 LINE",
"-33 -241 LINE",
"58 -241 LINE",
"110 56 LINE",
"132 12 OFFCURVE",
"169 -10 OFFCURVE",
"225 -10 CURVE SMOOTH"
);
},
{
closed = 1;
nodes = (
"367 420 OFFCURVE",
"404 366 OFFCURVE",
"404 286 CURVE SMOOTH",
"404 167 OFFCURVE",
"338 62 OFFCURVE",
"231 62 CURVE SMOOTH",
"160 62 OFFCURVE",
"132 120 OFFCURVE",
"132 195 CURVE SMOOTH",
"132 307 OFFCURVE",
"177 420 OFFCURVE",
"294 420 CURVE SMOOTH"
);
}
);
};
layerId = UUID0;
paths = (
{
closed = 1;
nodes = (
"58 -241 LINE",
"110 56 LINE",
"132 12 OFFCURVE",
"169 -10 OFFCURVE",
"225 -10 CURVE SMOOTH",
"391 -10 OFFCURVE",
"497 138 OFFCURVE",
"497 294 CURVE SMOOTH",
"497 407 OFFCURVE",
"437 500 OFFCURVE",
"319 500 CURVE SMOOTH",
"266 500 OFFCURVE",
"221 481 OFFCURVE",
"178 438 CURVE",
"233 750 LINE",
"142 750 LINE",
"-33 -241 LINE"
);
},
{
closed = 1;
nodes = (
"160 62 OFFCURVE",
"132 120 OFFCURVE",
"132 195 CURVE SMOOTH",
"132 307 OFFCURVE",
"177 420 OFFCURVE",
"294 420 CURVE",
"367 420 OFFCURVE",
"404 366 OFFCURVE",
"404 286 CURVE SMOOTH",
"404 167 OFFCURVE",
"338 62 OFFCURVE",
"231 62 CURVE SMOOTH"
);
}
);
width = 536;
},
{
background = {
paths = (
{
closed = 1;
nodes = (
"415 -10 OFFCURVE",
"523 139 OFFCURVE",
"523 297 CURVE SMOOTH",
"523 413 OFFCURVE",
"460 508 OFFCURVE",
"328 508 CURVE SMOOTH",
"279 508 OFFCURVE",
"248 496 OFFCURVE",
"216 475 CURVE",
"264 750 LINE",
"140 750 LINE",
"-35 -242 LINE",
"89 -242 LINE",
"136 24 LINE",
"164 2 OFFCURVE",
"190 -10 OFFCURVE",
"237 -10 CURVE SMOOTH"
);
},
{
closed = 1;
nodes = (
"363 406 OFFCURVE",
"395 357 OFFCURVE",
"395 286 CURVE SMOOTH",
"395 178 OFFCURVE",
"335 92 OFFCURVE",
"247 92 CURVE SMOOTH",
"190 92 OFFCURVE",
"165 138 OFFCURVE",
"165 204 CURVE SMOOTH",
"165 308 OFFCURVE",
"209 406 OFFCURVE",
"303 406 CURVE SMOOTH"
);
}
);
};
layerId = "D879A026-05F7-4E99-AC55-D533E46CE7AB";
paths = (
{
closed = 1;
nodes = (
"89 -242 LINE",
"136 24 LINE",
"164 2 OFFCURVE",
"190 -10 OFFCURVE",
"237 -10 CURVE SMOOTH",
"415 -10 OFFCURVE",
"523 139 OFFCURVE",
"523 297 CURVE SMOOTH",
"523 413 OFFCURVE",
"460 508 OFFCURVE",
"328 508 CURVE SMOOTH",
"279 508 OFFCURVE",
"248 496 OFFCURVE",
"216 475 CURVE",
"264 750 LINE",
"140 750 LINE",
"-35 -242 LINE"
);
},
{
closed = 1;
nodes = (
"190 92 OFFCURVE",
"165 138 OFFCURVE",
"165 204 CURVE SMOOTH",
"165 308 OFFCURVE",
"209 406 OFFCURVE",
"303 406 CURVE",
"363 406 OFFCURVE",
"395 357 OFFCURVE",
"395 286 CURVE SMOOTH",
"395 178 OFFCURVE",
"335 92 OFFCURVE",
"247 92 CURVE SMOOTH"
);
}
);
width = 557;
}
);
leftKerningGroup = n;
rightKerningGroup = b;
unicode = 00FE;
},
{
glyphname = q;
lastChange = "2016-08-30 22:38:32 +0000";
layers = (
{
background = {
paths = (
{
closed = 1;
nodes = (
"74 -10 OFFCURVE",
"21 76 OFFCURVE",
"21 189 CURVE SMOOTH",
"21 348 OFFCURVE",
"126 500 OFFCURVE",
"276 500 CURVE SMOOTH",
"341 500 OFFCURVE",
"372 471 OFFCURVE",
"399 420 CURVE",
"420 490 LINE",
"494 490 LINE",
"365 -242 LINE",
"274 -242 LINE",
"328 62 LINE",
"287 14 OFFCURVE",
"229 -10 OFFCURVE",
"187 -10 CURVE"
);
},
{
closed = 1;
nodes = (
"180 420 OFFCURVE",
"116 319 OFFCURVE",
"116 204 CURVE SMOOTH",
"116 129 OFFCURVE",
"147 70 OFFCURVE",
"209 70 CURVE SMOOTH",
"291 70 OFFCURVE",
"370 141 OFFCURVE",
"370 288 CURVE SMOOTH",
"370 376 OFFCURVE",
"327 420 OFFCURVE",
"271 420 CURVE"
);
}
);
};
layerId = UUID0;
paths = (
{
closed = 1;
nodes = (
"365 -242 LINE",
"494 490 LINE",
"420 490 LINE",
"399 420 LINE",
"372 471 OFFCURVE",
"341 500 OFFCURVE",
"276 500 CURVE SMOOTH",
"126 500 OFFCURVE",
"21 348 OFFCURVE",
"21 189 CURVE SMOOTH",
"21 76 OFFCURVE",
"74 -10 OFFCURVE",
"187 -10 CURVE",
"229 -10 OFFCURVE",
"287 14 OFFCURVE",
"328 62 CURVE",
"274 -242 LINE"
);
},
{
closed = 1;
nodes = (
"145 70 OFFCURVE",
"116 128 OFFCURVE",
"116 205 CURVE SMOOTH",
"116 319 OFFCURVE",
"180 420 OFFCURVE",
"271 420 CURVE",
"327 420 OFFCURVE",
"370 380 OFFCURVE",
"370 281 CURVE SMOOTH",
"370 147 OFFCURVE",
"291 70 OFFCURVE",
"213 70 CURVE SMOOTH"
);
}
);
width = 521;
},
{
background = {
paths = (
{
closed = 1;
nodes = (
"83 -10 OFFCURVE",
"18 85 OFFCURVE",
"18 202 CURVE SMOOTH",
"18 359 OFFCURVE",
"127 508 OFFCURVE",
"308 508 CURVE SMOOTH",
"357 508 OFFCURVE",
"386 494 OFFCURVE",
"413 471 CURVE",
"428 500 LINE",
"538 500 LINE",
"407 -242 LINE",
"282 -242 LINE",
"329 24 LINE",
"294 2 OFFCURVE",
"268 -10 OFFCURVE",
"217 -10 CURVE"
);
},
{
closed = 1;
nodes = (
"206 406 OFFCURVE",
"146 320 OFFCURVE",
"146 212 CURVE SMOOTH",
"146 141 OFFCURVE",
"179 92 OFFCURVE",
"242 92 CURVE SMOOTH",
"356 92 OFFCURVE",
"381 211 OFFCURVE",
"381 297 CURVE SMOOTH",
"381 362 OFFCURVE",
"358 406 OFFCURVE",
"298 406 CURVE"
);
}
);
};
layerId = "D879A026-05F7-4E99-AC55-D533E46CE7AB";
paths = (
{
closed = 1;
nodes = (
"407 -242 LINE",
"538 500 LINE",
"428 500 LINE",
"413 471 LINE",
"386 494 OFFCURVE",
"358 508 OFFCURVE",
"304 508 CURVE SMOOTH",
"129 508 OFFCURVE",
"18 359 OFFCURVE",
"18 203 CURVE SMOOTH",
"18 84 OFFCURVE",
"83 -10 OFFCURVE",
"217 -10 CURVE",
"268 -10 OFFCURVE",
"294 2 OFFCURVE",
"329 24 CURVE",
"282 -242 LINE"
);
},
{
closed = 1;
nodes = (
"176 92 OFFCURVE",
"146 141 OFFCURVE",
"146 215 CURVE SMOOTH",
"146 319 OFFCURVE",
"206 406 OFFCURVE",
"298 406 CURVE",
"360 406 OFFCURVE",
"381 362 OFFCURVE",
"381 292 CURVE SMOOTH",
"381 211 OFFCURVE",
"353 92 OFFCURVE",
"245 92 CURVE SMOOTH"
);
}
);
width = 561;
}
);
leftKerningGroup = o;
rightKerningGroup = u;
unicode = 0071;
},
{
glyphname = r;
lastChange = "2016-08-30 19:21:11 +0000";
layers = (
{
background = {
paths = (
{
closed = 1;
nodes = (
"340 508 LINE",
"326 508 LINE SMOOTH",
"273 508 OFFCURVE",
"224 476 OFFCURVE",
"168 409 CURVE",
"175 490 LINE",
"96 490 LINE",
"10 0 LINE",
"104 0 LINE",
"165 346 LINE",
"185 377 OFFCURVE",
"234 409 OFFCURVE",
"271 409 CURVE SMOOTH",
"304 409 LINE"
);
}
);
};
layerId = UUID0;
paths = (
{
closed = 1;
nodes = (
"104 0 LINE",
"165 346 LINE",
"185 377 OFFCURVE",
"234 409 OFFCURVE",
"271 409 CURVE SMOOTH",
"304 409 LINE",
"340 508 LINE",
"326 508 LINE SMOOTH",
"273 508 OFFCURVE",
"224 476 OFFCURVE",
"168 409 CURVE",
"175 490 LINE",
"96 490 LINE",
"10 0 LINE"
);
}
);
width = 307;
},
{
background = {
paths = (
{
closed = 1;
nodes = (
"374 508 LINE",
"339 508 LINE SMOOTH",
"284 508 OFFCURVE",
"230 474 OFFCURVE",
"205 447 CURVE",
"213 500 LINE",
"95 500 LINE",
"7 0 LINE",
"130 0 LINE",
"191 341 LINE",
"208 369 OFFCURVE",
"244 391 OFFCURVE",
"283 391 CURVE SMOOTH",
"330 391 LINE"
);
}
);
};
layerId = "D879A026-05F7-4E99-AC55-D533E46CE7AB";
paths = (
{
closed = 1;
nodes = (
"130 0 LINE",
"191 341 LINE",
"208 369 OFFCURVE",
"244 391 OFFCURVE",
"283 391 CURVE SMOOTH",
"330 391 LINE",
"374 508 LINE",
"339 508 LINE SMOOTH",
"284 508 OFFCURVE",
"230 474 OFFCURVE",
"205 447 CURVE",
"213 500 LINE",
"95 500 LINE",
"7 0 LINE"
);
}
);
width = 340;
}
);
leftKerningGroup = n;
unicode = 0072;
},
{
glyphname = s;
lastChange = "2016-08-30 22:38:40 +0000";
layers = (
{
background = {
paths = (
{
closed = 1;
nodes = (
"307 -10 OFFCURVE",
"333 102 OFFCURVE",
"333 161 CURVE SMOOTH",
"333 243 OFFCURVE",
"272 269 OFFCURVE",
"231 283 CURVE SMOOTH",
"175 302 OFFCURVE",
"142 315 OFFCURVE",
"142 353 CURVE SMOOTH",
"142 405 OFFCURVE",
"184 429 OFFCURVE",
"237 429 CURVE SMOOTH",
"286 429 OFFCURVE",
"321 410 OFFCURVE",
"342 386 CURVE",
"366 468 LINE",
"343 483 OFFCURVE",
"303 500 OFFCURVE",
"245 500 CURVE SMOOTH",
"102 500 OFFCURVE",
"51 408 OFFCURVE",
"51 329 CURVE SMOOTH",
"51 250 OFFCURVE",
"113 228 OFFCURVE",
"165 212 CURVE SMOOTH",
"198 202 OFFCURVE",
"238 185 OFFCURVE",
"238 142 CURVE SMOOTH",
"238 97 OFFCURVE",
"209 70 OFFCURVE",
"144 70 CURVE SMOOTH",
"82 70 OFFCURVE",
"34 101 OFFCURVE",
"15 120 CURVE",
"-10 33 LINE",
"10 17 OFFCURVE",
"58 -10 OFFCURVE",
"134 -10 CURVE SMOOTH"
);
}
);
};
layerId = UUID0;
paths = (
{
closed = 1;
nodes = (
"305 -10 OFFCURVE",
"333 102 OFFCURVE",
"333 160 CURVE SMOOTH",
"333 243 OFFCURVE",
"274 268 OFFCURVE",
"231 283 CURVE SMOOTH",
"170 304 OFFCURVE",
"142 315 OFFCURVE",
"142 355 CURVE SMOOTH",
"142 404 OFFCURVE",
"184 429 OFFCURVE",
"238 429 CURVE SMOOTH",
"285 429 OFFCURVE",
"321 410 OFFCURVE",
"342 386 CURVE",
"366 468 LINE",
"343 483 OFFCURVE",
"304 500 OFFCURVE",
"244 500 CURVE SMOOTH",
"102 500 OFFCURVE",
"51 406 OFFCURVE",
"51 331 CURVE SMOOTH",
"51 250 OFFCURVE",
"109 230 OFFCURVE",
"165 212 CURVE SMOOTH",
"199 201 OFFCURVE",
"238 187 OFFCURVE",
"238 140 CURVE SMOOTH",
"238 99 OFFCURVE",
"209 70 OFFCURVE",
"146 70 CURVE SMOOTH",
"81 70 OFFCURVE",
"34 101 OFFCURVE",
"15 120 CURVE",
"-10 33 LINE",
"10 17 OFFCURVE",
"56 -10 OFFCURVE",
"138 -10 CURVE"
);
}
);
width = 389;
},
{
background = {
paths = (
{
closed = 1;
nodes = (
"310 -10 OFFCURVE",
"362 76 OFFCURVE",
"362 166 CURVE SMOOTH",
"362 246 OFFCURVE",
"310 273 OFFCURVE",
"254 290 CURVE SMOOTH",
"203 306 OFFCURVE",
"157 315 OFFCURVE",
"157 356 CURVE SMOOTH",
"157 402 OFFCURVE",
"202 419 OFFCURVE",
"245 419 CURVE SMOOTH",
"297 419 OFFCURVE",
"351 390 OFFCURVE",
"370 365 CURVE",
"399 471 LINE",
"377 489 OFFCURVE",
"313 508 OFFCURVE",
"251 508 CURVE SMOOTH",
"93 508 OFFCURVE",
"45 396 OFFCURVE",
"45 325 CURVE SMOOTH",
"45 249 OFFCURVE",
"103 228 OFFCURVE",
"160 209 CURVE SMOOTH",
"202 195 OFFCURVE",
"236 182 OFFCURVE",
"236 147 CURVE SMOOTH",
"236 124 OFFCURVE",
"224 83 OFFCURVE",
"155 83 CURVE SMOOTH",
"105 83 OFFCURVE",
"43 109 OFFCURVE",
"16 133 CURVE",
"-13 27 LINE",
"12 8 OFFCURVE",
"69 -10 OFFCURVE",
"143 -10 CURVE SMOOTH"
);
}
);
};
layerId = "D879A026-05F7-4E99-AC55-D533E46CE7AB";
paths = (
{
closed = 1;
nodes = (
"310 -10 OFFCURVE",
"362 78 OFFCURVE",
"362 164 CURVE SMOOTH",
"362 246 OFFCURVE",
"314 271 OFFCURVE",
"254 290 CURVE SMOOTH",
"205 306 OFFCURVE",
"157 313 OFFCURVE",
"157 358 CURVE SMOOTH",
"157 401 OFFCURVE",
"202 419 OFFCURVE",
"244 419 CURVE SMOOTH",
"297 419 OFFCURVE",
"351 390 OFFCURVE",
"370 365 CURVE",
"399 471 LINE",
"377 489 OFFCURVE",
"314 508 OFFCURVE",
"250 508 CURVE SMOOTH",
"94 508 OFFCURVE",
"45 396 OFFCURVE",
"45 325 CURVE SMOOTH",
"45 249 OFFCURVE",
"103 228 OFFCURVE",
"160 209 CURVE SMOOTH",
"201 195 OFFCURVE",
"236 183 OFFCURVE",
"236 146 CURVE SMOOTH",
"236 124 OFFCURVE",
"223 83 OFFCURVE",
"157 83 CURVE SMOOTH",
"104 83 OFFCURVE",
"43 109 OFFCURVE",
"16 133 CURVE",
"-13 27 LINE",
"12 8 OFFCURVE",
"69 -10 OFFCURVE",
"144 -10 CURVE"
);
}
);
width = 416;
}
);
leftKerningGroup = s;
rightKerningGroup = s;
unicode = 0073;
},
{
glyphname = germandbls;
lastChange = "2016-08-30 22:38:49 +0000";
layers = (
{
background = {
paths = (
{
closed = 1;
nodes = (
"349 -15 OFFCURVE",
"464 42 OFFCURVE",
"464 166 CURVE SMOOTH",
"464 280 OFFCURVE",
"354 339 OFFCURVE",
"354 369 CURVE SMOOTH",
"354 399 OFFCURVE",
"485 465 OFFCURVE",
"485 605 CURVE SMOOTH",
"485 705 OFFCURVE",
"404 750 OFFCURVE",
"339 750 CURVE SMOOTH",
"255 750 OFFCURVE",
"150 679 OFFCURVE",
"130 568 CURVE SMOOTH",
"118 500 LINE",
"60 500 LINE",
"42 439 LINE",
"107 439 LINE",
"6 -136 LINE",
"94 -136 LINE",
"219 573 LINE SMOOTH",
"230 635 OFFCURVE",
"270 685 OFFCURVE",
"327 685 CURVE SMOOTH",
"365 685 OFFCURVE",
"406 662 OFFCURVE",
"406 596 CURVE SMOOTH",
"406 458 OFFCURVE",
"269 409 OFFCURVE",
"269 360 CURVE SMOOTH",
"269 313 OFFCURVE",
"377 261 OFFCURVE",
"377 163 CURVE SMOOTH",
"377 71 OFFCURVE",
"311 50 OFFCURVE",
"197 48 CURVE",
"187 -12 LINE",
"203 -13 OFFCURVE",
"213 -15 OFFCURVE",
"234 -15 CURVE SMOOTH"
);
}
);
};
layerId = UUID0;
paths = (
{
closed = 1;
nodes = (
"94 -136 LINE",
"219 573 LINE SMOOTH",
"230 635 OFFCURVE",
"270 685 OFFCURVE",
"327 685 CURVE SMOOTH",
"365 685 OFFCURVE",
"406 662 OFFCURVE",
"406 596 CURVE SMOOTH",
"406 458 OFFCURVE",
"269 409 OFFCURVE",
"269 360 CURVE SMOOTH",
"269 313 OFFCURVE",
"377 261 OFFCURVE",
"377 163 CURVE SMOOTH",
"377 71 OFFCURVE",
"311 50 OFFCURVE",
"197 48 CURVE",
"187 -12 LINE",
"203 -13 OFFCURVE",
"213 -15 OFFCURVE",
"234 -15 CURVE",
"349 -15 OFFCURVE",
"464 42 OFFCURVE",
"464 166 CURVE SMOOTH",
"464 280 OFFCURVE",
"354 339 OFFCURVE",
"354 369 CURVE SMOOTH",
"354 399 OFFCURVE",
"485 465 OFFCURVE",
"485 605 CURVE SMOOTH",
"485 705 OFFCURVE",
"404 750 OFFCURVE",
"339 750 CURVE SMOOTH",
"255 750 OFFCURVE",
"150 679 OFFCURVE",
"130 568 CURVE SMOOTH",
"118 500 LINE",
"60 500 LINE",
"42 439 LINE",
"107 439 LINE",
"6 -136 LINE"
);
}
);
width = 510;
},
{
background = {
paths = (
{
closed = 1;
nodes = (
"388 -15 OFFCURVE",
"504 35 OFFCURVE",
"504 180 CURVE SMOOTH",
"504 290 OFFCURVE",
"416 329 OFFCURVE",
"416 364 CURVE SMOOTH",
"416 398 OFFCURVE",
"521 461 OFFCURVE",
"521 593 CURVE SMOOTH",
"521 705 OFFCURVE",
"429 750 OFFCURVE",
"361 750 CURVE SMOOTH",
"271 750 OFFCURVE",
"156 675 OFFCURVE",
"134 555 CURVE SMOOTH",
"124 500 LINE",
"68 500 LINE",
"38 398 LINE",
"106 398 LINE",
"12 -136 LINE",
"134 -136 LINE",
"257 560 LINE SMOOTH",
"266 609 OFFCURVE",
"298 644 OFFCURVE",
"341 644 CURVE SMOOTH",
"371 644 OFFCURVE",
"398 627 OFFCURVE",
"398 578 CURVE SMOOTH",
"398 458 OFFCURVE",
"280 418 OFFCURVE",
"280 352 CURVE SMOOTH",
"280 293 OFFCURVE",
"372 255 OFFCURVE",
"372 168 CURVE SMOOTH",
"372 87 OFFCURVE",
"331 83 OFFCURVE",
"218 83 CURVE",
"202 -10 LINE",
"223 -14 OFFCURVE",
"244 -15 OFFCURVE",
"260 -15 CURVE SMOOTH"
);
}
);
};
layerId = "D879A026-05F7-4E99-AC55-D533E46CE7AB";
paths = (
{
closed = 1;
nodes = (
"134 -136 LINE",
"257 560 LINE SMOOTH",
"266 609 OFFCURVE",
"298 644 OFFCURVE",
"341 644 CURVE SMOOTH",
"371 644 OFFCURVE",
"398 627 OFFCURVE",
"398 578 CURVE SMOOTH",
"398 458 OFFCURVE",
"280 418 OFFCURVE",
"280 352 CURVE SMOOTH",
"280 293 OFFCURVE",
"372 255 OFFCURVE",
"372 168 CURVE SMOOTH",
"372 87 OFFCURVE",
"331 83 OFFCURVE",
"218 83 CURVE",
"202 -10 LINE",
"223 -14 OFFCURVE",
"244 -15 OFFCURVE",
"260 -15 CURVE",
"388 -15 OFFCURVE",
"504 35 OFFCURVE",
"504 180 CURVE SMOOTH",
"504 290 OFFCURVE",
"416 329 OFFCURVE",
"416 364 CURVE SMOOTH",
"416 398 OFFCURVE",
"521 461 OFFCURVE",
"521 593 CURVE SMOOTH",
"521 705 OFFCURVE",
"429 750 OFFCURVE",
"361 750 CURVE SMOOTH",
"271 750 OFFCURVE",
"156 675 OFFCURVE",
"134 555 CURVE SMOOTH",
"124 500 LINE",
"68 500 LINE",
"38 398 LINE",
"106 398 LINE",
"12 -136 LINE"
);
}
);
width = 553;
}
);
leftKerningGroup = f;
unicode = 00DF;
},
{
glyphname = t;
lastChange = "2016-08-30 19:21:11 +0000";
layers = (
{
background = {
paths = (
{
closed = 1;
nodes = (
"243 62 LINE",
"219 62 LINE SMOOTH",
"162 62 OFFCURVE",
"144 65 OFFCURVE",
"144 101 CURVE SMOOTH",
"144 115 OFFCURVE",
"147 135 OFFCURVE",
"197 420 CURVE",
"308 420 LINE",
"321 490 LINE",
"210 490 LINE",
"233 620 LINE",
"141 611 LINE",
"119 490 LINE",
"55 490 LINE",
"35 420 LINE",
"107 420 LINE",
"51 104 OFFCURVE",
"50 91 OFFCURVE",
"50 83 CURVE SMOOTH",
"50 33 OFFCURVE",
"76 -10 OFFCURVE",
"148 -10 CURVE SMOOTH",
"223 -10 LINE"
);
}
);
};
layerId = UUID0;
paths = (
{
closed = 1;
nodes = (
"223 -10 LINE",
"243 62 LINE",
"219 62 LINE SMOOTH",
"162 62 OFFCURVE",
"144 65 OFFCURVE",
"144 101 CURVE SMOOTH",
"144 115 OFFCURVE",
"147 135 OFFCURVE",
"197 420 CURVE",
"308 420 LINE",
"321 490 LINE",
"210 490 LINE",
"233 620 LINE",
"141 611 LINE",
"119 490 LINE",
"55 490 LINE",
"35 420 LINE",
"107 420 LINE",
"51 104 OFFCURVE",
"50 91 OFFCURVE",
"50 81 CURVE SMOOTH",
"50 33 OFFCURVE",
"76 -10 OFFCURVE",
"148 -10 CURVE SMOOTH"
);
}
);
width = 303;
},
{
background = {
paths = (
{
closed = 1;
nodes = (
"279 92 LINE",
"244 92 LINE SMOOTH",
"199 92 OFFCURVE",
"184 94 OFFCURVE",
"184 123 CURVE SMOOTH",
"184 135 OFFCURVE",
"186 150 OFFCURVE",
"230 398 CURVE",
"332 398 LINE",
"350 500 LINE",
"247 500 LINE",
"269 623 LINE",
"143 610 LINE",
"123 500 LINE",
"68 500 LINE",
"39 398 LINE",
"105 398 LINE",
"54 112 OFFCURVE",
"54 103 OFFCURVE",
"54 94 CURVE SMOOTH",
"54 39 OFFCURVE",
"85 -10 OFFCURVE",
"163 -10 CURVE SMOOTH",
"249 -10 LINE"
);
}
);
};
layerId = "D879A026-05F7-4E99-AC55-D533E46CE7AB";
paths = (
{
closed = 1;
nodes = (
"249 -10 LINE",
"279 92 LINE",
"244 92 LINE SMOOTH",
"199 92 OFFCURVE",
"184 94 OFFCURVE",
"184 124 CURVE SMOOTH",
"184 135 OFFCURVE",
"186 150 OFFCURVE",
"230 398 CURVE",
"332 398 LINE",
"350 500 LINE",
"247 500 LINE",
"269 623 LINE",
"143 610 LINE",
"123 500 LINE",
"68 500 LINE",
"39 398 LINE",
"105 398 LINE",
"55 117 OFFCURVE",
"54 105 OFFCURVE",
"54 95 CURVE SMOOTH",
"54 39 OFFCURVE",
"85 -10 OFFCURVE",
"163 -10 CURVE SMOOTH"
);
}
);
width = 338;
}
);
unicode = 0074;
},
{
glyphname = u;
lastChange = "2016-08-30 22:21:17 +0000";
layers = (
{
anchors = (
{
name = bottom;
position = "{182, 0}";
},
{
name = ogonek;
position = "{445, 10}";
},
{
name = top;
position = "{290, 490}";
},
{
name = topright;
position = "{505, 490}";
}
);
background = {
paths = (
{
closed = 1;
nodes = (
"381 0 LINE",
"467 490 LINE",
"376 490 LINE",
"312 126 LINE",
"284 87 OFFCURVE",
"246 70 OFFCURVE",
"206 70 CURVE SMOOTH",
"153 70 OFFCURVE",
"129 102 OFFCURVE",
"129 164 CURVE SMOOTH",
"129 183 OFFCURVE",
"132 205 OFFCURVE",
"182 490 CURVE",
"91 490 LINE",
"36 178 OFFCURVE",
"34 154 OFFCURVE",
"34 132 CURVE SMOOTH",
"34 35 OFFCURVE",
"81 -10 OFFCURVE",
"175 -10 CURVE SMOOTH",
"225 -10 OFFCURVE",
"266 11 OFFCURVE",
"301 54 CURVE",
"298 0 LINE"
);
}
);
};
layerId = UUID0;
paths = (
{
closed = 1;
nodes = (
"229 -10 OFFCURVE",
"265 11 OFFCURVE",
"301 54 CURVE",
"298 0 LINE",
"381 0 LINE",
"467 490 LINE",
"376 490 LINE",
"312 126 LINE",
"284 87 OFFCURVE",
"246 70 OFFCURVE",
"207 70 CURVE SMOOTH",
"153 70 OFFCURVE",
"129 102 OFFCURVE",
"129 162 CURVE SMOOTH",
"129 183 OFFCURVE",
"132 205 OFFCURVE",
"182 490 CURVE",
"91 490 LINE",
"36 178 OFFCURVE",
"34 154 OFFCURVE",
"34 134 CURVE SMOOTH",
"34 35 OFFCURVE",
"83 -10 OFFCURVE",
"170 -10 CURVE SMOOTH"
);
}
);
width = 494;
},
{
anchors = (
{
name = bottom;
position = "{213, 0}";
},
{
name = ogonek;
position = "{487, 10}";
},
{
name = top;
position = "{321, 500}";
},
{
name = topright;
position = "{555, 500}";
}
);
background = {
paths = (
{
closed = 1;
nodes = (
"430 0 LINE",
"518 500 LINE",
"394 500 LINE",
"329 136 LINE",
"303 109 OFFCURVE",
"273 94 OFFCURVE",
"235 94 CURVE SMOOTH",
"185 94 OFFCURVE",
"162 120 OFFCURVE",
"161 173 CURVE SMOOTH",
"161 190 OFFCURVE",
"162 209 OFFCURVE",
"213 500 CURVE",
"89 500 LINE",
"37 205 OFFCURVE",
"35 181 OFFCURVE",
"35 158 CURVE SMOOTH",
"35 57 OFFCURVE",
"81 -10 OFFCURVE",
"208 -10 CURVE SMOOTH",
"241 -10 OFFCURVE",
"286 8 OFFCURVE",
"317 30 CURVE",
"313 0 LINE"
);
}
);
};
layerId = "D879A026-05F7-4E99-AC55-D533E46CE7AB";
paths = (
{
closed = 1;
nodes = (
"247 -10 OFFCURVE",
"279 5 OFFCURVE",
"317 30 CURVE",
"313 0 LINE",
"430 0 LINE",
"518 500 LINE",
"394 500 LINE",
"329 136 LINE",
"303 109 OFFCURVE",
"273 94 OFFCURVE",
"235 94 CURVE SMOOTH",
"186 94 OFFCURVE",
"161 120 OFFCURVE",
"161 178 CURVE SMOOTH",
"161 189 OFFCURVE",
"162 209 OFFCURVE",
"213 500 CURVE",
"89 500 LINE",
"37 205 OFFCURVE",
"35 181 OFFCURVE",
"35 161 CURVE SMOOTH",
"35 57 OFFCURVE",
"87 -10 OFFCURVE",
"196 -10 CURVE SMOOTH"
);
}
);
width = 541;
}
);
leftKerningGroup = u;
rightKerningGroup = u;
unicode = 0075;
},
{
glyphname = v;
lastChange = "2016-08-30 19:21:11 +0000";
layers = (
{
background = {
paths = (
{
closed = 1;
nodes = (
"466 490 LINE",
"369 490 LINE",
"182 99 LINE",
"131 490 LINE",
"35 490 LINE",
"118 0 LINE",
"211 0 LINE"
);
}
);
};
layerId = UUID0;
paths = (
{
closed = 1;
nodes = (
"211 0 LINE",
"466 490 LINE",
"369 490 LINE",
"182 99 LINE",
"131 490 LINE",
"35 490 LINE",
"118 0 LINE"
);
}
);
width = 439;
},
{
background = {
paths = (
{
closed = 1;
nodes = (
"510 500 LINE",
"390 500 LINE",
"212 154 LINE",
"158 500 LINE",
"37 500 LINE",
"134 0 LINE",
"236 0 LINE"
);
}
);
};
layerId = "D879A026-05F7-4E99-AC55-D533E46CE7AB";
paths = (
{
closed = 1;
nodes = (
"236 0 LINE",
"510 500 LINE",
"390 500 LINE",
"212 154 LINE",
"158 500 LINE",
"37 500 LINE",
"134 0 LINE"
);
}
);
width = 482;
}
);
unicode = 0076;
},
{
glyphname = w;
lastChange = "2016-08-30 19:21:11 +0000";
layers = (
{
background = {
paths = (
{
closed = 1;
nodes = (
"682 490 LINE",
"582 490 LINE",
"431 99 LINE",
"406 475 LINE",
"319 475 LINE",
"162 99 LINE",
"149 490 LINE",
"49 490 LINE",
"95 0 LINE",
"186 0 LINE",
"343 362 LINE",
"371 0 LINE",
"463 0 LINE"
);
}
);
};
layerId = UUID0;
paths = (
{
closed = 1;
nodes = (
"186 0 LINE",
"343 362 LINE",
"371 0 LINE",
"463 0 LINE",
"682 490 LINE",
"582 490 LINE",
"431 99 LINE",
"406 475 LINE",
"319 475 LINE",
"162 99 LINE",
"149 490 LINE",
"49 490 LINE",
"95 0 LINE"
);
}
);
width = 662;
},
{
background = {
paths = (
{
closed = 1;
nodes = (
"726 500 LINE",
"608 500 LINE",
"464 151 LINE",
"436 490 LINE",
"335 490 LINE",
"186 151 LINE",
"166 500 LINE",
"48 500 LINE",
"100 0 LINE",
"200 0 LINE",
"357 326 LINE",
"398 0 LINE",
"498 0 LINE"
);
}
);
};
layerId = "D879A026-05F7-4E99-AC55-D533E46CE7AB";
paths = (
{
closed = 1;
nodes = (
"200 0 LINE",
"357 326 LINE",
"398 0 LINE",
"498 0 LINE",
"726 500 LINE",
"608 500 LINE",
"464 151 LINE",
"436 490 LINE",
"335 490 LINE",
"186 151 LINE",
"166 500 LINE",
"48 500 LINE",
"100 0 LINE"
);
}
);
width = 703;
}
);
unicode = 0077;
},
{
glyphname = x;
lastChange = "2016-08-30 19:21:11 +0000";
layers = (
{
background = {
paths = (
{
closed = 1;
nodes = (
"375 0 LINE",
"255 238 LINE",
"458 490 LINE",
"351 490 LINE",
"222 300 LINE",
"156 490 LINE",
"52 490 LINE",
"157 246 LINE",
"-37 0 LINE",
"67 0 LINE",
"195 191 LINE",
"271 0 LINE"
);
}
);
};
layerId = UUID0;
paths = (
{
closed = 1;
nodes = (
"67 0 LINE",
"195 191 LINE",
"271 0 LINE",
"375 0 LINE",
"255 238 LINE",
"458 490 LINE",
"351 490 LINE",
"222 300 LINE",
"156 490 LINE",
"52 490 LINE",
"157 246 LINE",
"-37 0 LINE"
);
}
);
width = 439;
},
{
background = {
paths = (
{
closed = 1;
nodes = (
"416 0 LINE",
"305 250 LINE",
"505 500 LINE",
"356 500 LINE",
"250 339 LINE",
"198 500 LINE",
"49 500 LINE",
"158 250 LINE",
"-39 0 LINE",
"110 0 LINE",
"213 148 LINE",
"267 0 LINE"
);
}
);
};
layerId = "D879A026-05F7-4E99-AC55-D533E46CE7AB";
paths = (
{
closed = 1;
nodes = (
"110 0 LINE",
"213 148 LINE",
"267 0 LINE",
"416 0 LINE",
"305 250 LINE",
"505 500 LINE",
"356 500 LINE",
"250 339 LINE",
"198 500 LINE",
"49 500 LINE",
"158 250 LINE",
"-39 0 LINE"
);
}
);
width = 481;
}
);
unicode = 0078;
},
{
glyphname = y;
lastChange = "2016-08-30 22:21:23 +0000";
layers = (
{
anchors = (
{
name = bottom;
position = "{230, 0}";
},
{
name = top;
position = "{259, 490}";
}
);
background = {
paths = (
{
closed = 1;
nodes = (
"487 490 LINE",
"386 490 LINE",
"200 126 LINE",
"133 490 LINE",
"32 490 LINE",
"135 22 LINE",
"-13 -242 LINE",
"84 -242 LINE"
);
}
);
};
layerId = UUID0;
paths = (
{
closed = 1;
nodes = (
"84 -242 LINE",
"487 490 LINE",
"386 490 LINE",
"200 126 LINE",
"133 490 LINE",
"32 490 LINE",
"135 22 LINE",
"-13 -242 LINE"
);
}
);
width = 459;
},
{
anchors = (
{
name = bottom;
position = "{262, 0}";
},
{
name = top;
position = "{301, 500}";
}
);
background = {
paths = (
{
closed = 1;
nodes = (
"553 500 LINE",
"415 500 LINE",
"234 178 LINE",
"172 500 LINE",
"34 500 LINE",
"152 33 LINE",
"-3 -242 LINE",
"120 -242 LINE"
);
}
);
};
layerId = "D879A026-05F7-4E99-AC55-D533E46CE7AB";
paths = (
{
closed = 1;
nodes = (
"120 -242 LINE",
"553 500 LINE",
"415 500 LINE",
"234 178 LINE",
"172 500 LINE",
"34 500 LINE",
"152 33 LINE",
"-3 -242 LINE"
);
}
);
width = 523;
}
);
leftKerningGroup = y;
rightKerningGroup = y;
unicode = 0079;
},
{
glyphname = z;
lastChange = "2016-08-30 19:21:11 +0000";
layers = (
{
background = {
paths = (
{
closed = 1;
nodes = (
"441 490 LINE",
"66 490 LINE",
"54 420 LINE",
"268 420 LINE",
"-29 0 LINE",
"348 0 LINE",
"361 70 LINE",
"144 70 LINE"
);
}
);
};
layerId = UUID0;
paths = (
{
closed = 1;
nodes = (
"348 0 LINE",
"361 70 LINE",
"144 70 LINE",
"441 490 LINE",
"66 490 LINE",
"54 420 LINE",
"268 420 LINE",
"-29 0 LINE"
);
}
);
width = 430;
},
{
background = {
paths = (
{
closed = 1;
nodes = (
"475 500 LINE",
"70 500 LINE",
"50 390 LINE",
"247 390 LINE",
"-28 0 LINE",
"375 0 LINE",
"395 110 LINE",
"200 110 LINE"
);
}
);
};
layerId = "D879A026-05F7-4E99-AC55-D533E46CE7AB";
paths = (
{
closed = 1;
nodes = (
"375 0 LINE",
"395 110 LINE",
"200 110 LINE",
"475 500 LINE",
"70 500 LINE",
"50 390 LINE",
"247 390 LINE",
"-28 0 LINE"
);
}
);
width = 461;
}
);
leftKerningGroup = z;
rightKerningGroup = z;
unicode = 007A;
},
{
glyphname = A.sc;
lastChange = "2016-08-30 19:21:11 +0000";
layers = (
{
background = {
paths = (
{
closed = 1;
nodes = (
"437 0 LINE",
"344 560 LINE",
"254 560 LINE",
"-38 0 LINE",
"59 0 LINE",
"131 141 LINE",
"318 141 LINE",
"341 0 LINE"
);
},
{
closed = 1;
nodes = (
"302 229 LINE",
"178 229 LINE",
"273 418 LINE"
);
}
);
};
layerId = UUID0;
paths = (
{
closed = 1;
nodes = (
"59 0 LINE",
"131 141 LINE",
"318 141 LINE",
"341 0 LINE",
"437 0 LINE",
"344 560 LINE",
"254 560 LINE",
"-38 0 LINE"
);
},
{
closed = 1;
nodes = (
"273 418 LINE",
"302 229 LINE",
"178 229 LINE"
);
}
);
width = 496;
},
{
background = {
paths = (
{
closed = 1;
nodes = (
"489 0 LINE",
"381 581 LINE",
"269 581 LINE",
"-44 0 LINE",
"84 0 LINE",
"154 131 LINE",
"337 131 LINE",
"362 0 LINE"
);
},
{
closed = 1;
nodes = (
"315 251 LINE",
"218 251 LINE",
"289 382 LINE"
);
}
);
};
layerId = "D879A026-05F7-4E99-AC55-D533E46CE7AB";
paths = (
{
closed = 1;
nodes = (
"84 0 LINE",
"154 131 LINE",
"337 131 LINE",
"362 0 LINE",
"489 0 LINE",
"381 581 LINE",
"269 581 LINE",
"-44 0 LINE"
);
},
{
closed = 1;
nodes = (
"289 382 LINE",
"315 251 LINE",
"218 251 LINE"
);
}
);
width = 542;
}
);
},
{
glyphname = AE.sc;
lastChange = "2016-08-30 19:21:11 +0000";
layers = (
{
background = {
paths = (
{
closed = 1;
nodes = (
"598 0 LINE",
"614 88 LINE",
"375 88 LINE",
"403 248 LINE",
"582 248 LINE",
"597 336 LINE",
"418 336 LINE",
"442 471 LINE",
"674 471 LINE",
"690 560 LINE",
"310 560 LINE",
"-53 0 LINE",
"42 0 LINE",
"131 138 LINE",
"286 138 LINE",
"261 0 LINE"
);
},
{
closed = 1;
nodes = (
"301 228 LINE",
"190 228 LINE",
"344 469 LINE"
);
}
);
};
layerId = UUID0;
paths = (
{
closed = 1;
nodes = (
"42 0 LINE",
"131 138 LINE",
"286 138 LINE",
"261 0 LINE",
"598 0 LINE",
"614 88 LINE",
"375 88 LINE",
"403 248 LINE",
"582 248 LINE",
"597 336 LINE",
"418 336 LINE",
"442 471 LINE",
"674 471 LINE",
"690 560 LINE",
"310 560 LINE",
"-53 0 LINE"
);
},
{
closed = 1;
nodes = (
"344 469 LINE",
"301 228 LINE",
"190 228 LINE"
);
}
);
width = 688;
},
{
background = {
paths = (
{
closed = 1;
nodes = (
"664 0 LINE",
"685 120 LINE",
"434 120 LINE",
"455 243 LINE",
"643 243 LINE",
"664 362 LINE",
"476 362 LINE",
"494 461 LINE",
"738 461 LINE",
"759 581 LINE",
"335 581 LINE",
"-57 0 LINE",
"73 0 LINE",
"162 135 LINE",
"317 135 LINE",
"293 0 LINE"
);
},
{
closed = 1;
nodes = (
"338 253 LINE",
"239 253 LINE",
"374 459 LINE"
);
}
);
};
layerId = "D879A026-05F7-4E99-AC55-D533E46CE7AB";
paths = (
{
closed = 1;
nodes = (
"73 0 LINE",
"162 135 LINE",
"317 135 LINE",
"293 0 LINE",
"664 0 LINE",
"685 120 LINE",
"434 120 LINE",
"455 243 LINE",
"643 243 LINE",
"664 362 LINE",
"476 362 LINE",
"494 461 LINE",
"738 461 LINE",
"759 581 LINE",
"335 581 LINE",
"-57 0 LINE"
);
},
{
closed = 1;
nodes = (
"374 459 LINE",
"338 253 LINE",
"239 253 LINE"
);
}
);
width = 748;
}
);
},
{
glyphname = B.sc;
lastChange = "2016-08-30 19:21:11 +0000";
layers = (
{
background = {
paths = (
{
closed = 1;
nodes = (
"224 0 LINE SMOOTH",
"326 0 OFFCURVE",
"448 38 OFFCURVE",
"448 192 CURVE SMOOTH",
"448 243 OFFCURVE",
"425 278 OFFCURVE",
"375 299 CURVE",
"415 332 OFFCURVE",
"445 369 OFFCURVE",
"445 448 CURVE SMOOTH",
"445 543 OFFCURVE",
"371 560 OFFCURVE",
"260 560 CURVE SMOOTH",
"120 560 LINE",
"21 0 LINE"
);
},
{
closed = 1;
nodes = (
"281 480 LINE SMOOTH",
"324 480 OFFCURVE",
"354 471 OFFCURVE",
"354 424 CURVE SMOOTH",
"354 345 OFFCURVE",
"305 332 OFFCURVE",
"267 332 CURVE SMOOTH",
"172 332 LINE",
"198 480 LINE"
);
},
{
closed = 1;
nodes = (
"264 256 LINE SMOOTH",
"314 256 OFFCURVE",
"351 240 OFFCURVE",
"351 186 CURVE SMOOTH",
"351 102 OFFCURVE",
"302 81 OFFCURVE",
"220 81 CURVE SMOOTH",
"128 81 LINE",
"158 256 LINE"
);
}
);
};
layerId = UUID0;
paths = (
{
closed = 1;
nodes = (
"224 0 LINE SMOOTH",
"326 0 OFFCURVE",
"448 38 OFFCURVE",
"448 192 CURVE SMOOTH",
"448 243 OFFCURVE",
"425 278 OFFCURVE",
"375 299 CURVE",
"415 332 OFFCURVE",
"445 369 OFFCURVE",
"445 448 CURVE SMOOTH",
"445 543 OFFCURVE",
"371 560 OFFCURVE",
"260 560 CURVE SMOOTH",
"120 560 LINE",
"21 0 LINE"
);
},
{
closed = 1;
nodes = (
"158 256 LINE",
"264 256 LINE SMOOTH",
"314 256 OFFCURVE",
"351 240 OFFCURVE",
"351 186 CURVE SMOOTH",
"351 102 OFFCURVE",
"302 81 OFFCURVE",
"220 81 CURVE SMOOTH",
"128 81 LINE"
);
},
{
closed = 1;
nodes = (
"198 480 LINE",
"281 480 LINE SMOOTH",
"324 480 OFFCURVE",
"354 471 OFFCURVE",
"354 424 CURVE SMOOTH",
"354 345 OFFCURVE",
"305 332 OFFCURVE",
"267 332 CURVE SMOOTH",
"172 332 LINE"
);
}
);
width = 507;
},
{
background = {
paths = (
{
closed = 1;
nodes = (
"262 0 LINE SMOOTH",
"373 0 OFFCURVE",
"511 50 OFFCURVE",
"511 197 CURVE SMOOTH",
"511 258 OFFCURVE",
"479 291 OFFCURVE",
"427 311 CURVE",
"467 333 OFFCURVE",
"502 390 OFFCURVE",
"502 460 CURVE SMOOTH",
"502 563 OFFCURVE",
"417 581 OFFCURVE",
"296 581 CURVE SMOOTH",
"122 581 LINE",
"20 0 LINE"
);
},
{
closed = 1;
nodes = (
"333 480 LINE SMOOTH",
"368 480 OFFCURVE",
"387 466 OFFCURVE",
"387 427 CURVE SMOOTH",
"387 371 OFFCURVE",
"339 352 OFFCURVE",
"314 352 CURVE SMOOTH",
"205 352 LINE",
"227 480 LINE"
);
},
{
closed = 1;
nodes = (
"295 262 LINE SMOOTH",
"349 262 OFFCURVE",
"386 244 OFFCURVE",
"386 197 CURVE SMOOTH",
"386 134 OFFCURVE",
"345 101 OFFCURVE",
"280 101 CURVE SMOOTH",
"161 101 LINE",
"189 262 LINE"
);
}
);
};
layerId = "D879A026-05F7-4E99-AC55-D533E46CE7AB";
paths = (
{
closed = 1;
nodes = (
"262 0 LINE SMOOTH",
"373 0 OFFCURVE",
"511 50 OFFCURVE",
"511 197 CURVE SMOOTH",
"511 258 OFFCURVE",
"479 291 OFFCURVE",
"427 311 CURVE",
"467 333 OFFCURVE",
"502 390 OFFCURVE",
"502 460 CURVE SMOOTH",
"502 563 OFFCURVE",
"417 581 OFFCURVE",
"296 581 CURVE SMOOTH",
"122 581 LINE",
"20 0 LINE"
);
},
{
closed = 1;
nodes = (
"189 262 LINE",
"295 262 LINE SMOOTH",
"349 262 OFFCURVE",
"386 244 OFFCURVE",
"386 197 CURVE SMOOTH",
"386 134 OFFCURVE",
"345 101 OFFCURVE",
"280 101 CURVE SMOOTH",
"161 101 LINE"
);
},
{
closed = 1;
nodes = (
"227 480 LINE",
"333 480 LINE SMOOTH",
"368 480 OFFCURVE",
"387 466 OFFCURVE",
"387 427 CURVE SMOOTH",
"387 371 OFFCURVE",
"339 352 OFFCURVE",
"314 352 CURVE SMOOTH",
"205 352 LINE"
);
}
);
width = 562;
}
);
},
{
glyphname = C.sc;
lastChange = "2016-08-30 22:39:09 +0000";
layers = (
{
background = {
paths = (
{
closed = 1;
nodes = (
"313 -11 OFFCURVE",
"372 2 OFFCURVE",
"415 21 CURVE",
"420 109 LINE",
"373 92 OFFCURVE",
"328 77 OFFCURVE",
"273 77 CURVE SMOOTH",
"180 77 OFFCURVE",
"136 144 OFFCURVE",
"136 235 CURVE SMOOTH",
"136 368 OFFCURVE",
"212 483 OFFCURVE",
"344 483 CURVE SMOOTH",
"400 483 OFFCURVE",
"439 468 OFFCURVE",
"481 451 CURVE",
"506 538 LINE",
"471 558 OFFCURVE",
"416 571 OFFCURVE",
"359 571 CURVE SMOOTH",
"182 571 OFFCURVE",
"34 430 OFFCURVE",
"34 226 CURVE SMOOTH",
"34 82 OFFCURVE",
"122 -11 OFFCURVE",
"257 -11 CURVE SMOOTH"
);
}
);
};
layerId = UUID0;
paths = (
{
closed = 1;
nodes = (
"313 -11 OFFCURVE",
"372 2 OFFCURVE",
"415 21 CURVE",
"420 109 LINE",
"373 92 OFFCURVE",
"328 77 OFFCURVE",
"273 77 CURVE SMOOTH",
"180 77 OFFCURVE",
"136 144 OFFCURVE",
"136 235 CURVE SMOOTH",
"136 368 OFFCURVE",
"212 483 OFFCURVE",
"344 483 CURVE SMOOTH",
"400 483 OFFCURVE",
"439 468 OFFCURVE",
"481 451 CURVE",
"506 538 LINE",
"471 558 OFFCURVE",
"416 571 OFFCURVE",
"359 571 CURVE SMOOTH",
"182 571 OFFCURVE",
"34 430 OFFCURVE",
"34 226 CURVE SMOOTH",
"34 82 OFFCURVE",
"122 -11 OFFCURVE",
"257 -11 CURVE"
);
}
);
width = 498;
},
{
background = {
paths = (
{
closed = 1;
nodes = (
"337 -12 OFFCURVE",
"405 1 OFFCURVE",
"452 23 CURVE",
"459 139 LINE",
"404 118 OFFCURVE",
"358 107 OFFCURVE",
"294 107 CURVE SMOOTH",
"208 107 OFFCURVE",
"167 164 OFFCURVE",
"167 248 CURVE SMOOTH",
"167 374 OFFCURVE",
"233 474 OFFCURVE",
"360 474 CURVE SMOOTH",
"423 474 OFFCURVE",
"465 463 OFFCURVE",
"512 442 CURVE",
"547 559 LINE",
"506 580 OFFCURVE",
"444 593 OFFCURVE",
"381 593 CURVE SMOOTH",
"190 593 OFFCURVE",
"31 445 OFFCURVE",
"31 238 CURVE SMOOTH",
"31 88 OFFCURVE",
"127 -12 OFFCURVE",
"274 -12 CURVE SMOOTH"
);
}
);
};
layerId = "D879A026-05F7-4E99-AC55-D533E46CE7AB";
paths = (
{
closed = 1;
nodes = (
"337 -12 OFFCURVE",
"405 1 OFFCURVE",
"452 23 CURVE",
"459 139 LINE",
"404 118 OFFCURVE",
"358 107 OFFCURVE",
"294 107 CURVE SMOOTH",
"208 107 OFFCURVE",
"167 164 OFFCURVE",
"167 248 CURVE SMOOTH",
"167 374 OFFCURVE",
"233 474 OFFCURVE",
"360 474 CURVE SMOOTH",
"423 474 OFFCURVE",
"465 463 OFFCURVE",
"512 442 CURVE",
"547 559 LINE",
"506 580 OFFCURVE",
"444 593 OFFCURVE",
"381 593 CURVE SMOOTH",
"190 593 OFFCURVE",
"31 445 OFFCURVE",
"31 238 CURVE SMOOTH",
"31 88 OFFCURVE",
"127 -12 OFFCURVE",
"274 -12 CURVE"
);
}
);
width = 533;
}
);
},
{
glyphname = D.sc;
lastChange = "2016-08-30 19:21:11 +0000";
layers = (
{
background = {
paths = (
{
closed = 1;
nodes = (
"223 0 LINE SMOOTH",
"402 0 OFFCURVE",
"546 129 OFFCURVE",
"546 333 CURVE SMOOTH",
"546 475 OFFCURVE",
"457 560 OFFCURVE",
"322 560 CURVE SMOOTH",
"120 560 LINE",
"21 0 LINE"
);
},
{
closed = 1;
nodes = (
"306 472 LINE SMOOTH",
"399 472 OFFCURVE",
"444 414 OFFCURVE",
"444 324 CURVE SMOOTH",
"444 189 OFFCURVE",
"372 88 OFFCURVE",
"239 88 CURVE SMOOTH",
"129 88 LINE",
"197 472 LINE"
);
}
);
};
layerId = UUID0;
paths = (
{
closed = 1;
nodes = (
"223 0 LINE SMOOTH",
"402 0 OFFCURVE",
"546 129 OFFCURVE",
"546 333 CURVE SMOOTH",
"546 475 OFFCURVE",
"457 560 OFFCURVE",
"322 560 CURVE SMOOTH",
"120 560 LINE",
"21 0 LINE"
);
},
{
closed = 1;
nodes = (
"197 472 LINE",
"306 472 LINE SMOOTH",
"399 472 OFFCURVE",
"444 414 OFFCURVE",
"444 324 CURVE SMOOTH",
"444 189 OFFCURVE",
"372 88 OFFCURVE",
"239 88 CURVE SMOOTH",
"129 88 LINE"
);
}
);
width = 586;
},
{
background = {
paths = (
{
closed = 1;
nodes = (
"244 0 LINE SMOOTH",
"437 0 OFFCURVE",
"593 133 OFFCURVE",
"593 343 CURVE SMOOTH",
"593 492 OFFCURVE",
"495 581 OFFCURVE",
"347 581 CURVE SMOOTH",
"122 581 LINE",
"20 0 LINE"
);
},
{
closed = 1;
nodes = (
"326 462 LINE SMOOTH",
"414 462 OFFCURVE",
"457 413 OFFCURVE",
"457 331 CURVE SMOOTH",
"457 206 OFFCURVE",
"394 119 OFFCURVE",
"265 119 CURVE SMOOTH",
"164 119 LINE",
"224 462 LINE"
);
}
);
};
layerId = "D879A026-05F7-4E99-AC55-D533E46CE7AB";
paths = (
{
closed = 1;
nodes = (
"244 0 LINE SMOOTH",
"437 0 OFFCURVE",
"593 133 OFFCURVE",
"593 343 CURVE SMOOTH",
"593 492 OFFCURVE",
"495 581 OFFCURVE",
"347 581 CURVE SMOOTH",
"122 581 LINE",
"20 0 LINE"
);
},
{
closed = 1;
nodes = (
"224 462 LINE",
"326 462 LINE SMOOTH",
"414 462 OFFCURVE",
"457 413 OFFCURVE",
"457 331 CURVE SMOOTH",
"457 206 OFFCURVE",
"394 119 OFFCURVE",
"265 119 CURVE SMOOTH",
"164 119 LINE"
);
}
);
width = 627;
}
);
},
{
glyphname = E.sc;
lastChange = "2016-08-25 20:35:28 +0000";
layers = (
{
background = {
paths = (
{
closed = 1;
nodes = (
"371 0 LINE",
"387 88 LINE",
"131 88 LINE",
"159 248 LINE",
"353 248 LINE",
"369 336 LINE",
"175 336 LINE",
"199 472 LINE",
"447 472 LINE",
"462 560 LINE",
"120 560 LINE",
"21 0 LINE"
);
}
);
};
layerId = UUID0;
paths = (
{
closed = 1;
nodes = (
"371 0 LINE",
"387 88 LINE",
"131 88 LINE",
"159 248 LINE",
"353 248 LINE",
"369 336 LINE",
"175 336 LINE",
"199 472 LINE",
"447 472 LINE",
"462 560 LINE",
"120 560 LINE",
"21 0 LINE"
);
}
);
width = 461;
},
{
background = {
paths = (
{
closed = 1;
nodes = (
"418 0 LINE",
"440 120 LINE",
"168 120 LINE",
"190 243 LINE",
"391 243 LINE",
"412 362 LINE",
"211 362 LINE",
"228 461 LINE",
"491 461 LINE",
"512 581 LINE",
"122 581 LINE",
"20 0 LINE"
);
}
);
};
layerId = "D879A026-05F7-4E99-AC55-D533E46CE7AB";
paths = (
{
closed = 1;
nodes = (
"418 0 LINE",
"440 120 LINE",
"168 120 LINE",
"190 243 LINE",
"391 243 LINE",
"412 362 LINE",
"211 362 LINE",
"228 461 LINE",
"491 461 LINE",
"512 581 LINE",
"122 581 LINE",
"20 0 LINE"
);
}
);
width = 502;
}
);
},
{
glyphname = F.sc;
lastChange = "2016-08-30 19:21:11 +0000";
layers = (
{
background = {
paths = (
{
closed = 1;
nodes = (
"437 472 LINE",
"452 560 LINE",
"120 560 LINE",
"21 0 LINE",
"113 0 LINE",
"157 248 LINE",
"343 248 LINE",
"358 336 LINE",
"173 336 LINE",
"197 472 LINE"
);
}
);
};
layerId = UUID0;
paths = (
{
closed = 1;
nodes = (
"113 0 LINE",
"157 248 LINE",
"343 248 LINE",
"358 336 LINE",
"173 336 LINE",
"197 472 LINE",
"437 472 LINE",
"452 560 LINE",
"120 560 LINE",
"21 0 LINE"
);
}
);
width = 432;
},
{
background = {
paths = (
{
closed = 1;
nodes = (
"470 461 LINE",
"491 581 LINE",
"122 581 LINE",
"20 0 LINE",
"143 0 LINE",
"186 243 LINE",
"375 243 LINE",
"396 362 LINE",
"207 362 LINE",
"224 461 LINE"
);
}
);
};
layerId = "D879A026-05F7-4E99-AC55-D533E46CE7AB";
paths = (
{
closed = 1;
nodes = (
"143 0 LINE",
"186 243 LINE",
"375 243 LINE",
"396 362 LINE",
"207 362 LINE",
"224 461 LINE",
"470 461 LINE",
"491 581 LINE",
"122 581 LINE",
"20 0 LINE"
);
}
);
width = 464;
}
);
},
{
glyphname = G.sc;
lastChange = "2016-08-30 22:39:19 +0000";
layers = (
{
background = {
paths = (
{
closed = 1;
nodes = (
"316 -11 OFFCURVE",
"403 8 OFFCURVE",
"447 31 CURVE",
"491 281 LINE",
"333 281 LINE",
"319 202 LINE",
"385 202 LINE",
"364 88 LINE",
"336 80 OFFCURVE",
"307 77 OFFCURVE",
"284 77 CURVE SMOOTH",
"184 77 OFFCURVE",
"137 143 OFFCURVE",
"137 237 CURVE SMOOTH",
"137 366 OFFCURVE",
"207 483 OFFCURVE",
"349 483 CURVE SMOOTH",
"398 483 OFFCURVE",
"454 469 OFFCURVE",
"494 452 CURVE",
"519 539 LINE",
"483 558 OFFCURVE",
"415 571 OFFCURVE",
"363 571 CURVE SMOOTH",
"181 571 OFFCURVE",
"35 430 OFFCURVE",
"35 227 CURVE SMOOTH",
"35 82 OFFCURVE",
"123 -11 OFFCURVE",
"254 -11 CURVE SMOOTH"
);
}
);
};
layerId = UUID0;
paths = (
{
closed = 1;
nodes = (
"316 -11 OFFCURVE",
"403 8 OFFCURVE",
"447 31 CURVE",
"491 281 LINE",
"333 281 LINE",
"319 202 LINE",
"385 202 LINE",
"364 88 LINE",
"336 80 OFFCURVE",
"307 77 OFFCURVE",
"284 77 CURVE SMOOTH",
"184 77 OFFCURVE",
"137 143 OFFCURVE",
"137 237 CURVE SMOOTH",
"137 366 OFFCURVE",
"207 483 OFFCURVE",
"349 483 CURVE SMOOTH",
"398 483 OFFCURVE",
"454 469 OFFCURVE",
"494 452 CURVE",
"519 539 LINE",
"483 558 OFFCURVE",
"415 571 OFFCURVE",
"363 571 CURVE SMOOTH",
"181 571 OFFCURVE",
"35 430 OFFCURVE",
"35 227 CURVE SMOOTH",
"35 82 OFFCURVE",
"123 -11 OFFCURVE",
"254 -11 CURVE"
);
}
);
width = 544;
},
{
background = {
paths = (
{
closed = 1;
nodes = (
"341 -12 OFFCURVE",
"440 8 OFFCURVE",
"485 32 CURVE",
"531 291 LINE",
"357 291 LINE",
"340 194 LINE",
"391 194 LINE",
"377 113 LINE",
"349 110 OFFCURVE",
"327 107 OFFCURVE",
"303 107 CURVE SMOOTH",
"212 107 OFFCURVE",
"168 166 OFFCURVE",
"168 254 CURVE SMOOTH",
"168 373 OFFCURVE",
"231 474 OFFCURVE",
"367 474 CURVE SMOOTH",
"419 474 OFFCURVE",
"483 459 OFFCURVE",
"524 439 CURVE",
"559 558 LINE",
"521 580 OFFCURVE",
"443 593 OFFCURVE",
"385 593 CURVE SMOOTH",
"187 593 OFFCURVE",
"31 445 OFFCURVE",
"31 238 CURVE SMOOTH",
"31 88 OFFCURVE",
"127 -12 OFFCURVE",
"274 -12 CURVE SMOOTH"
);
}
);
};
layerId = "D879A026-05F7-4E99-AC55-D533E46CE7AB";
paths = (
{
closed = 1;
nodes = (
"341 -12 OFFCURVE",
"440 8 OFFCURVE",
"485 32 CURVE",
"531 291 LINE",
"357 291 LINE",
"340 194 LINE",
"391 194 LINE",
"377 113 LINE",
"349 110 OFFCURVE",
"327 107 OFFCURVE",
"303 107 CURVE SMOOTH",
"212 107 OFFCURVE",
"168 166 OFFCURVE",
"168 254 CURVE SMOOTH",
"168 373 OFFCURVE",
"231 474 OFFCURVE",
"367 474 CURVE SMOOTH",
"419 474 OFFCURVE",
"483 459 OFFCURVE",
"524 439 CURVE",
"559 558 LINE",
"521 580 OFFCURVE",
"443 593 OFFCURVE",
"385 593 CURVE SMOOTH",
"187 593 OFFCURVE",
"31 445 OFFCURVE",
"31 238 CURVE SMOOTH",
"31 88 OFFCURVE",
"127 -12 OFFCURVE",
"274 -12 CURVE"
);
}
);
width = 578;
}
);
},
{
glyphname = H.sc;
lastChange = "2016-08-30 19:21:11 +0000";
layers = (
{
background = {
paths = (
{
closed = 1;
nodes = (
"474 0 LINE",
"573 560 LINE",
"481 560 LINE",
"441 337 LINE",
"173 337 LINE",
"212 560 LINE",
"120 560 LINE",
"21 0 LINE",
"113 0 LINE",
"157 248 LINE",
"425 248 LINE",
"382 0 LINE"
);
}
);
};
layerId = UUID0;
paths = (
{
closed = 1;
nodes = (
"113 0 LINE",
"157 248 LINE",
"425 248 LINE",
"382 0 LINE",
"474 0 LINE",
"573 560 LINE",
"481 560 LINE",
"441 337 LINE",
"173 337 LINE",
"212 560 LINE",
"120 560 LINE",
"21 0 LINE"
);
}
);
width = 600;
},
{
background = {
paths = (
{
closed = 1;
nodes = (
"518 0 LINE",
"621 581 LINE",
"497 581 LINE",
"458 362 LINE",
"207 362 LINE",
"245 581 LINE",
"122 581 LINE",
"20 0 LINE",
"143 0 LINE",
"186 243 LINE",
"437 243 LINE",
"394 0 LINE"
);
}
);
};
layerId = "D879A026-05F7-4E99-AC55-D533E46CE7AB";
paths = (
{
closed = 1;
nodes = (
"143 0 LINE",
"186 243 LINE",
"437 243 LINE",
"394 0 LINE",
"518 0 LINE",
"621 581 LINE",
"497 581 LINE",
"458 362 LINE",
"207 362 LINE",
"245 581 LINE",
"122 581 LINE",
"20 0 LINE"
);
}
);
width = 642;
}
);
},
{
glyphname = I.sc;
lastChange = "2016-08-25 20:35:28 +0000";
layers = (
{
background = {
paths = (
{
closed = 1;
nodes = (
"113 0 LINE",
"212 560 LINE",
"120 560 LINE",
"21 0 LINE"
);
}
);
};
layerId = UUID0;
paths = (
{
closed = 1;
nodes = (
"113 0 LINE",
"212 560 LINE",
"120 560 LINE",
"21 0 LINE"
);
}
);
width = 239;
},
{
background = {
paths = (
{
closed = 1;
nodes = (
"143 0 LINE",
"245 581 LINE",
"122 581 LINE",
"20 0 LINE"
);
}
);
};
layerId = "D879A026-05F7-4E99-AC55-D533E46CE7AB";
paths = (
{
closed = 1;
nodes = (
"143 0 LINE",
"245 581 LINE",
"122 581 LINE",
"20 0 LINE"
);
}
);
width = 267;
}
);
},
{
glyphname = J.sc;
lastChange = "2016-08-25 20:35:28 +0000";
layers = (
{
background = {
paths = (
{
closed = 1;
nodes = (
"-37 -138 LINE SMOOTH",
"43 -138 OFFCURVE",
"96 -99 OFFCURVE",
"109 -22 CURVE SMOOTH",
"212 560 LINE",
"120 560 LINE",
"21 1 LINE SMOOTH",
"12 -49 OFFCURVE",
"-3 -72 OFFCURVE",
"-41 -72 CURVE SMOOTH",
"-57 -72 LINE",
"-61 -138 LINE"
);
}
);
};
layerId = UUID0;
paths = (
{
closed = 1;
nodes = (
"-37 -138 LINE SMOOTH",
"43 -138 OFFCURVE",
"96 -99 OFFCURVE",
"109 -22 CURVE SMOOTH",
"212 560 LINE",
"120 560 LINE",
"21 1 LINE SMOOTH",
"12 -49 OFFCURVE",
"-3 -72 OFFCURVE",
"-41 -72 CURVE SMOOTH",
"-57 -72 LINE",
"-61 -138 LINE"
);
}
);
width = 238;
},
{
background = {
paths = (
{
closed = 1;
nodes = (
"-18 -143 LINE SMOOTH",
"60 -143 OFFCURVE",
"124 -104 OFFCURVE",
"140 -16 CURVE SMOOTH",
"245 581 LINE",
"122 581 LINE",
"21 6 LINE SMOOTH",
"15 -29 OFFCURVE",
"3 -45 OFFCURVE",
"-16 -45 CURVE SMOOTH",
"-48 -45 LINE",
"-57 -143 LINE"
);
}
);
};
layerId = "D879A026-05F7-4E99-AC55-D533E46CE7AB";
paths = (
{
closed = 1;
nodes = (
"-18 -143 LINE SMOOTH",
"60 -143 OFFCURVE",
"124 -104 OFFCURVE",
"140 -16 CURVE SMOOTH",
"245 581 LINE",
"122 581 LINE",
"21 6 LINE SMOOTH",
"15 -29 OFFCURVE",
"3 -45 OFFCURVE",
"-16 -45 CURVE SMOOTH",
"-48 -45 LINE",
"-57 -143 LINE"
);
}
);
width = 267;
}
);
},
{
glyphname = K.sc;
lastChange = "2016-08-25 20:35:28 +0000";
layers = (
{
background = {
paths = (
{
closed = 1;
nodes = (
"430 0 LINE",
"291 296 LINE",
"529 560 LINE",
"426 560 LINE",
"188 296 LINE",
"328 0 LINE"
);
},
{
closed = 1;
nodes = (
"113 0 LINE",
"212 560 LINE",
"120 560 LINE",
"21 0 LINE"
);
}
);
};
layerId = UUID0;
paths = (
{
closed = 1;
nodes = (
"430 0 LINE",
"291 296 LINE",
"529 560 LINE",
"426 560 LINE",
"188 296 LINE",
"328 0 LINE"
);
},
{
closed = 1;
nodes = (
"113 0 LINE",
"212 560 LINE",
"120 560 LINE",
"21 0 LINE"
);
}
);
width = 500;
},
{
background = {
paths = (
{
closed = 1;
nodes = (
"500 0 LINE",
"353 307 LINE",
"602 581 LINE",
"462 581 LINE",
"213 307 LINE",
"359 0 LINE"
);
},
{
closed = 1;
nodes = (
"143 0 LINE",
"245 581 LINE",
"122 581 LINE",
"20 0 LINE"
);
}
);
};
layerId = "D879A026-05F7-4E99-AC55-D533E46CE7AB";
paths = (
{
closed = 1;
nodes = (
"500 0 LINE",
"353 307 LINE",
"602 581 LINE",
"462 581 LINE",
"213 307 LINE",
"359 0 LINE"
);
},
{
closed = 1;
nodes = (
"143 0 LINE",
"245 581 LINE",
"122 581 LINE",
"20 0 LINE"
);
}
);
width = 563;
}
);
},
{
glyphname = L.sc;
lastChange = "2016-08-25 20:35:28 +0000";
layers = (
{
background = {
paths = (
{
closed = 1;
nodes = (
"343 0 LINE",
"359 88 LINE",
"129 88 LINE",
"212 560 LINE",
"120 560 LINE",
"21 0 LINE"
);
}
);
};
layerId = UUID0;
paths = (
{
closed = 1;
nodes = (
"343 0 LINE",
"359 88 LINE",
"129 88 LINE",
"212 560 LINE",
"120 560 LINE",
"21 0 LINE"
);
}
);
width = 406;
},
{
background = {
paths = (
{
closed = 1;
nodes = (
"373 0 LINE",
"394 120 LINE",
"164 120 LINE",
"245 581 LINE",
"122 581 LINE",
"20 0 LINE"
);
}
);
};
layerId = "D879A026-05F7-4E99-AC55-D533E46CE7AB";
paths = (
{
closed = 1;
nodes = (
"373 0 LINE",
"394 120 LINE",
"164 120 LINE",
"245 581 LINE",
"122 581 LINE",
"20 0 LINE"
);
}
);
width = 436;
}
);
},
{
glyphname = M.sc;
lastChange = "2016-08-30 19:21:11 +0000";
layers = (
{
background = {
paths = (
{
closed = 1;
nodes = (
"566 0 LINE",
"590 560 LINE",
"514 560 LINE",
"334 297 LINE",
"245 560 LINE",
"168 560 LINE",
"-5 0 LINE",
"92 0 LINE",
"208 392 LINE",
"303 123 LINE",
"491 392 LINE",
"469 0 LINE"
);
}
);
};
layerId = UUID0;
paths = (
{
closed = 1;
nodes = (
"92 0 LINE",
"208 392 LINE",
"303 123 LINE",
"491 392 LINE",
"469 0 LINE",
"566 0 LINE",
"590 560 LINE",
"514 560 LINE",
"334 297 LINE",
"245 560 LINE",
"168 560 LINE",
"-5 0 LINE"
);
}
);
width = 666;
},
{
background = {
paths = (
{
closed = 1;
nodes = (
"636 0 LINE",
"654 581 LINE",
"555 581 LINE",
"372 329 LINE",
"276 581 LINE",
"177 581 LINE",
"-9 0 LINE",
"119 0 LINE",
"230 361 LINE",
"333 113 LINE",
"524 362 LINE",
"509 0 LINE"
);
}
);
};
layerId = "D879A026-05F7-4E99-AC55-D533E46CE7AB";
paths = (
{
closed = 1;
nodes = (
"119 0 LINE",
"230 361 LINE",
"333 113 LINE",
"524 362 LINE",
"509 0 LINE",
"636 0 LINE",
"654 581 LINE",
"555 581 LINE",
"372 329 LINE",
"276 581 LINE",
"177 581 LINE",
"-9 0 LINE"
);
}
);
width = 731;
}
);
},
{
glyphname = N.sc;
lastChange = "2016-08-30 19:21:11 +0000";
layers = (
{
background = {
paths = (
{
closed = 1;
nodes = (
"447 0 LINE",
"546 560 LINE",
"453 560 LINE",
"386 178 LINE",
"212 560 LINE",
"120 560 LINE",
"21 0 LINE",
"113 0 LINE",
"185 405 LINE",
"370 0 LINE"
);
}
);
};
layerId = UUID0;
paths = (
{
closed = 1;
nodes = (
"113 0 LINE",
"185 405 LINE",
"370 0 LINE",
"447 0 LINE",
"546 560 LINE",
"453 560 LINE",
"386 178 LINE",
"212 560 LINE",
"120 560 LINE",
"21 0 LINE"
);
}
);
width = 573;
},
{
background = {
paths = (
{
closed = 1;
nodes = (
"494 0 LINE",
"597 581 LINE",
"474 581 LINE",
"414 238 LINE",
"239 581 LINE",
"122 581 LINE",
"20 0 LINE",
"143 0 LINE",
"207 366 LINE",
"394 0 LINE"
);
}
);
};
layerId = "D879A026-05F7-4E99-AC55-D533E46CE7AB";
paths = (
{
closed = 1;
nodes = (
"143 0 LINE",
"207 366 LINE",
"394 0 LINE",
"494 0 LINE",
"597 581 LINE",
"474 581 LINE",
"414 238 LINE",
"239 581 LINE",
"122 581 LINE",
"20 0 LINE"
);
}
);
width = 618;
}
);
},
{
glyphname = O.sc;
lastChange = "2016-08-30 22:39:34 +0000";
layers = (
{
background = {
paths = (
{
closed = 1;
nodes = (
"433 -11 OFFCURVE",
"580 130 OFFCURVE",
"580 334 CURVE SMOOTH",
"580 478 OFFCURVE",
"493 571 OFFCURVE",
"358 571 CURVE SMOOTH",
"181 571 OFFCURVE",
"34 430 OFFCURVE",
"34 226 CURVE SMOOTH",
"34 82 OFFCURVE",
"121 -11 OFFCURVE",
"256 -11 CURVE SMOOTH"
);
},
{
closed = 1;
nodes = (
"434 483 OFFCURVE",
"477 416 OFFCURVE",
"477 325 CURVE SMOOTH",
"477 193 OFFCURVE",
"403 77 OFFCURVE",
"271 77 CURVE SMOOTH",
"179 77 OFFCURVE",
"136 144 OFFCURVE",
"136 235 CURVE SMOOTH",
"136 367 OFFCURVE",
"211 483 OFFCURVE",
"343 483 CURVE SMOOTH"
);
}
);
};
layerId = UUID0;
paths = (
{
closed = 1;
nodes = (
"433 -11 OFFCURVE",
"580 130 OFFCURVE",
"580 334 CURVE SMOOTH",
"580 478 OFFCURVE",
"493 571 OFFCURVE",
"358 571 CURVE SMOOTH",
"181 571 OFFCURVE",
"34 430 OFFCURVE",
"34 226 CURVE SMOOTH",
"34 82 OFFCURVE",
"121 -11 OFFCURVE",
"256 -11 CURVE"
);
},
{
closed = 1;
nodes = (
"179 77 OFFCURVE",
"136 144 OFFCURVE",
"136 235 CURVE SMOOTH",
"136 367 OFFCURVE",
"211 483 OFFCURVE",
"343 483 CURVE",
"434 483 OFFCURVE",
"477 416 OFFCURVE",
"477 325 CURVE SMOOTH",
"477 193 OFFCURVE",
"403 77 OFFCURVE",
"271 77 CURVE SMOOTH"
);
}
);
width = 620;
},
{
background = {
paths = (
{
closed = 1;
nodes = (
"470 -12 OFFCURVE",
"629 136 OFFCURVE",
"629 344 CURVE SMOOTH",
"629 493 OFFCURVE",
"533 593 OFFCURVE",
"384 593 CURVE SMOOTH",
"191 593 OFFCURVE",
"31 446 OFFCURVE",
"31 238 CURVE SMOOTH",
"31 88 OFFCURVE",
"128 -12 OFFCURVE",
"277 -12 CURVE SMOOTH"
);
},
{
closed = 1;
nodes = (
"451 474 OFFCURVE",
"493 417 OFFCURVE",
"493 332 CURVE SMOOTH",
"493 207 OFFCURVE",
"425 107 OFFCURVE",
"298 107 CURVE SMOOTH",
"210 107 OFFCURVE",
"167 164 OFFCURVE",
"167 250 CURVE SMOOTH",
"167 375 OFFCURVE",
"237 474 OFFCURVE",
"363 474 CURVE SMOOTH"
);
}
);
};
layerId = "D879A026-05F7-4E99-AC55-D533E46CE7AB";
paths = (
{
closed = 1;
nodes = (
"470 -12 OFFCURVE",
"629 136 OFFCURVE",
"629 344 CURVE SMOOTH",
"629 493 OFFCURVE",
"533 593 OFFCURVE",
"384 593 CURVE SMOOTH",
"191 593 OFFCURVE",
"31 446 OFFCURVE",
"31 238 CURVE SMOOTH",
"31 88 OFFCURVE",
"128 -12 OFFCURVE",
"277 -12 CURVE"
);
},
{
closed = 1;
nodes = (
"210 107 OFFCURVE",
"167 164 OFFCURVE",
"167 250 CURVE SMOOTH",
"167 375 OFFCURVE",
"237 474 OFFCURVE",
"363 474 CURVE",
"451 474 OFFCURVE",
"493 417 OFFCURVE",
"493 332 CURVE SMOOTH",
"493 207 OFFCURVE",
"425 107 OFFCURVE",
"298 107 CURVE SMOOTH"
);
}
);
width = 662;
}
);
},
{
glyphname = OE.sc;
lastChange = "2016-08-30 22:39:41 +0000";
layers = (
{
background = {
paths = (
{
closed = 1;
nodes = (
"760 0 LINE",
"775 88 LINE",
"537 88 LINE",
"565 248 LINE",
"743 248 LINE",
"759 336 LINE",
"580 336 LINE",
"604 472 LINE",
"836 472 LINE",
"851 560 LINE",
"526 560 LINE",
"517 508 LINE",
"472 551 OFFCURVE",
"420 571 OFFCURVE",
"357 571 CURVE SMOOTH",
"181 571 OFFCURVE",
"34 430 OFFCURVE",
"34 226 CURVE SMOOTH",
"34 82 OFFCURVE",
"121 -11 OFFCURVE",
"254 -11 CURVE SMOOTH",
"317 -11 OFFCURVE",
"377 9 OFFCURVE",
"436 52 CURVE",
"427 0 LINE"
);
},
{
closed = 1;
nodes = (
"432 483 OFFCURVE",
"476 417 OFFCURVE",
"476 326 CURVE SMOOTH",
"476 192 OFFCURVE",
"402 77 OFFCURVE",
"270 77 CURVE SMOOTH",
"178 77 OFFCURVE",
"135 143 OFFCURVE",
"135 234 CURVE SMOOTH",
"135 368 OFFCURVE",
"209 483 OFFCURVE",
"341 483 CURVE SMOOTH"
);
}
);
};
layerId = UUID0;
paths = (
{
closed = 1;
nodes = (
"317 -11 OFFCURVE",
"377 9 OFFCURVE",
"436 52 CURVE",
"427 0 LINE",
"760 0 LINE",
"775 88 LINE",
"537 88 LINE",
"565 248 LINE",
"743 248 LINE",
"759 336 LINE",
"580 336 LINE",
"604 472 LINE",
"836 472 LINE",
"851 560 LINE",
"526 560 LINE",
"517 508 LINE",
"472 551 OFFCURVE",
"420 571 OFFCURVE",
"357 571 CURVE SMOOTH",
"181 571 OFFCURVE",
"34 430 OFFCURVE",
"34 226 CURVE SMOOTH",
"34 82 OFFCURVE",
"121 -11 OFFCURVE",
"254 -11 CURVE SMOOTH"
);
},
{
closed = 1;
nodes = (
"178 77 OFFCURVE",
"135 143 OFFCURVE",
"135 234 CURVE SMOOTH",
"135 368 OFFCURVE",
"209 483 OFFCURVE",
"341 483 CURVE",
"432 483 OFFCURVE",
"476 417 OFFCURVE",
"476 326 CURVE SMOOTH",
"476 192 OFFCURVE",
"402 77 OFFCURVE",
"270 77 CURVE SMOOTH"
);
}
);
width = 849;
},
{
background = {
paths = (
{
closed = 1;
nodes = (
"830 0 LINE",
"851 120 LINE",
"598 120 LINE",
"620 243 LINE",
"809 243 LINE",
"830 362 LINE",
"641 362 LINE",
"658 461 LINE",
"904 461 LINE",
"925 581 LINE",
"551 581 LINE",
"545 548 LINE",
"515 572 OFFCURVE",
"456 593 OFFCURVE",
"386 593 CURVE SMOOTH",
"192 593 OFFCURVE",
"31 446 OFFCURVE",
"31 239 CURVE SMOOTH",
"31 88 OFFCURVE",
"129 -12 OFFCURVE",
"280 -12 CURVE SMOOTH",
"349 -12 OFFCURVE",
"416 9 OFFCURVE",
"455 33 CURVE",
"449 0 LINE"
);
},
{
closed = 1;
nodes = (
"454 474 OFFCURVE",
"498 415 OFFCURVE",
"498 330 CURVE SMOOTH",
"498 206 OFFCURVE",
"426 107 OFFCURVE",
"301 107 CURVE SMOOTH",
"212 107 OFFCURVE",
"168 165 OFFCURVE",
"168 251 CURVE SMOOTH",
"168 375 OFFCURVE",
"240 474 OFFCURVE",
"365 474 CURVE SMOOTH"
);
}
);
};
layerId = "D879A026-05F7-4E99-AC55-D533E46CE7AB";
paths = (
{
closed = 1;
nodes = (
"349 -12 OFFCURVE",
"416 9 OFFCURVE",
"455 33 CURVE",
"449 0 LINE",
"830 0 LINE",
"851 120 LINE",
"598 120 LINE",
"620 243 LINE",
"809 243 LINE",
"830 362 LINE",
"641 362 LINE",
"658 461 LINE",
"904 461 LINE",
"925 581 LINE",
"551 581 LINE",
"545 548 LINE",
"515 572 OFFCURVE",
"456 593 OFFCURVE",
"386 593 CURVE SMOOTH",
"192 593 OFFCURVE",
"31 446 OFFCURVE",
"31 239 CURVE SMOOTH",
"31 88 OFFCURVE",
"129 -12 OFFCURVE",
"280 -12 CURVE SMOOTH"
);
},
{
closed = 1;
nodes = (
"212 107 OFFCURVE",
"168 165 OFFCURVE",
"168 251 CURVE SMOOTH",
"168 375 OFFCURVE",
"240 474 OFFCURVE",
"365 474 CURVE",
"454 474 OFFCURVE",
"498 415 OFFCURVE",
"498 330 CURVE SMOOTH",
"498 206 OFFCURVE",
"426 107 OFFCURVE",
"301 107 CURVE SMOOTH"
);
}
);
width = 914;
}
);
},
{
glyphname = P.sc;
lastChange = "2016-08-30 19:21:11 +0000";
layers = (
{
background = {
paths = (
{
closed = 1;
nodes = (
"250 188 LINE SMOOTH",
"336 188 OFFCURVE",
"473 237 OFFCURVE",
"473 428 CURVE SMOOTH",
"473 540 OFFCURVE",
"398 560 OFFCURVE",
"278 560 CURVE SMOOTH",
"120 560 LINE",
"21 0 LINE",
"115 0 LINE",
"148 188 LINE"
);
},
{
closed = 1;
nodes = (
"281 481 LINE SMOOTH",
"351 481 OFFCURVE",
"377 459 OFFCURVE",
"377 410 CURVE SMOOTH",
"377 326 OFFCURVE",
"350 274 OFFCURVE",
"252 274 CURVE SMOOTH",
"163 274 LINE",
"200 481 LINE"
);
}
);
};
layerId = UUID0;
paths = (
{
closed = 1;
nodes = (
"115 0 LINE",
"148 188 LINE",
"250 188 LINE SMOOTH",
"336 188 OFFCURVE",
"473 237 OFFCURVE",
"473 428 CURVE SMOOTH",
"473 540 OFFCURVE",
"398 560 OFFCURVE",
"278 560 CURVE SMOOTH",
"120 560 LINE",
"21 0 LINE"
);
},
{
closed = 1;
nodes = (
"200 481 LINE",
"281 481 LINE SMOOTH",
"351 481 OFFCURVE",
"377 459 OFFCURVE",
"377 410 CURVE SMOOTH",
"377 326 OFFCURVE",
"350 274 OFFCURVE",
"252 274 CURVE SMOOTH",
"163 274 LINE"
);
}
);
width = 483;
},
{
background = {
paths = (
{
closed = 1;
nodes = (
"268 184 LINE SMOOTH",
"366 184 OFFCURVE",
"531 227 OFFCURVE",
"531 440 CURVE SMOOTH",
"531 561 OFFCURVE",
"447 581 OFFCURVE",
"280 581 CURVE SMOOTH",
"122 581 LINE",
"20 0 LINE",
"141 0 LINE",
"174 184 LINE"
);
},
{
closed = 1;
nodes = (
"315 482 LINE SMOOTH",
"384 482 OFFCURVE",
"405 460 OFFCURVE",
"405 419 CURVE SMOOTH",
"405 327 OFFCURVE",
"378 299 OFFCURVE",
"274 299 CURVE SMOOTH",
"194 299 LINE",
"226 482 LINE"
);
}
);
};
layerId = "D879A026-05F7-4E99-AC55-D533E46CE7AB";
paths = (
{
closed = 1;
nodes = (
"141 0 LINE",
"174 184 LINE",
"268 184 LINE SMOOTH",
"366 184 OFFCURVE",
"531 227 OFFCURVE",
"531 440 CURVE SMOOTH",
"531 561 OFFCURVE",
"447 581 OFFCURVE",
"280 581 CURVE SMOOTH",
"122 581 LINE",
"20 0 LINE"
);
},
{
closed = 1;
nodes = (
"226 482 LINE",
"315 482 LINE SMOOTH",
"384 482 OFFCURVE",
"405 460 OFFCURVE",
"405 419 CURVE SMOOTH",
"405 327 OFFCURVE",
"378 299 OFFCURVE",
"274 299 CURVE SMOOTH",
"194 299 LINE"
);
}
);
width = 536;
}
);
},
{
glyphname = Q.sc;
lastChange = "2016-08-30 22:39:49 +0000";
layers = (
{
background = {
paths = (
{
closed = 1;
nodes = (
"532 58 LINE",
"491 99 LINE",
"548 170 OFFCURVE",
"580 245 OFFCURVE",
"580 334 CURVE SMOOTH",
"580 478 OFFCURVE",
"493 571 OFFCURVE",
"358 571 CURVE SMOOTH",
"181 571 OFFCURVE",
"34 430 OFFCURVE",
"34 226 CURVE SMOOTH",
"34 82 OFFCURVE",
"121 -11 OFFCURVE",
"256 -11 CURVE SMOOTH",
"315 -11 OFFCURVE",
"373 6 OFFCURVE",
"423 40 CURVE",
"468 -4 LINE"
);
},
{
closed = 1;
nodes = (
"435 483 OFFCURVE",
"479 417 OFFCURVE",
"479 325 CURVE SMOOTH",
"479 238 OFFCURVE",
"454 198 OFFCURVE",
"428 159 CURVE",
"368 224 LINE",
"304 160 LINE",
"362 100 LINE",
"334 83 OFFCURVE",
"302 77 OFFCURVE",
"271 77 CURVE SMOOTH",
"180 77 OFFCURVE",
"136 143 OFFCURVE",
"136 234 CURVE SMOOTH",
"136 368 OFFCURVE",
"211 483 OFFCURVE",
"343 483 CURVE SMOOTH"
);
}
);
};
layerId = UUID0;
paths = (
{
closed = 1;
nodes = (
"532 58 LINE",
"491 99 LINE",
"548 170 OFFCURVE",
"580 245 OFFCURVE",
"580 334 CURVE SMOOTH",
"580 478 OFFCURVE",
"493 571 OFFCURVE",
"358 571 CURVE SMOOTH",
"181 571 OFFCURVE",
"34 430 OFFCURVE",
"34 226 CURVE SMOOTH",
"34 82 OFFCURVE",
"121 -11 OFFCURVE",
"256 -11 CURVE SMOOTH",
"315 -11 OFFCURVE",
"373 6 OFFCURVE",
"423 40 CURVE",
"468 -4 LINE"
);
},
{
closed = 1;
nodes = (
"180 77 OFFCURVE",
"136 143 OFFCURVE",
"136 234 CURVE SMOOTH",
"136 368 OFFCURVE",
"211 483 OFFCURVE",
"343 483 CURVE",
"435 483 OFFCURVE",
"479 417 OFFCURVE",
"479 325 CURVE SMOOTH",
"479 238 OFFCURVE",
"454 198 OFFCURVE",
"428 159 CURVE",
"368 224 LINE",
"304 160 LINE",
"362 100 LINE",
"334 83 OFFCURVE",
"302 77 OFFCURVE",
"271 77 CURVE SMOOTH"
);
}
);
width = 620;
},
{
background = {
paths = (
{
closed = 1;
nodes = (
"591 73 LINE",
"544 116 LINE",
"592 171 OFFCURVE",
"629 252 OFFCURVE",
"629 344 CURVE SMOOTH",
"629 493 OFFCURVE",
"533 593 OFFCURVE",
"384 593 CURVE SMOOTH",
"191 593 OFFCURVE",
"31 446 OFFCURVE",
"31 238 CURVE SMOOTH",
"31 88 OFFCURVE",
"128 -12 OFFCURVE",
"277 -12 CURVE SMOOTH",
"341 -12 OFFCURVE",
"404 5 OFFCURVE",
"451 35 CURVE",
"502 -14 LINE"
);
},
{
closed = 1;
nodes = (
"449 474 OFFCURVE",
"489 417 OFFCURVE",
"489 334 CURVE SMOOTH",
"489 269 OFFCURVE",
"465 228 OFFCURVE",
"455 205 CURVE",
"397 258 LINE",
"308 172 LINE",
"362 119 LINE",
"345 114 OFFCURVE",
"328 107 OFFCURVE",
"298 107 CURVE SMOOTH",
"210 107 OFFCURVE",
"167 164 OFFCURVE",
"167 250 CURVE SMOOTH",
"167 375 OFFCURVE",
"237 474 OFFCURVE",
"363 474 CURVE SMOOTH"
);
}
);
};
layerId = "D879A026-05F7-4E99-AC55-D533E46CE7AB";
paths = (
{
closed = 1;
nodes = (
"591 73 LINE",
"544 116 LINE",
"592 171 OFFCURVE",
"629 252 OFFCURVE",
"629 344 CURVE SMOOTH",
"629 493 OFFCURVE",
"533 593 OFFCURVE",
"384 593 CURVE SMOOTH",
"191 593 OFFCURVE",
"31 446 OFFCURVE",
"31 238 CURVE SMOOTH",
"31 88 OFFCURVE",
"128 -12 OFFCURVE",
"277 -12 CURVE SMOOTH",
"341 -12 OFFCURVE",
"404 5 OFFCURVE",
"451 35 CURVE",
"502 -14 LINE"
);
},
{
closed = 1;
nodes = (
"210 107 OFFCURVE",
"167 164 OFFCURVE",
"167 250 CURVE SMOOTH",
"167 375 OFFCURVE",
"237 474 OFFCURVE",
"363 474 CURVE",
"449 474 OFFCURVE",
"489 417 OFFCURVE",
"489 334 CURVE SMOOTH",
"489 269 OFFCURVE",
"465 228 OFFCURVE",
"455 205 CURVE",
"397 258 LINE",
"308 172 LINE",
"362 119 LINE",
"345 114 OFFCURVE",
"328 107 OFFCURVE",
"298 107 CURVE SMOOTH"
);
}
);
width = 662;
}
);
},
{
glyphname = R.sc;
lastChange = "2016-08-30 19:21:11 +0000";
layers = (
{
background = {
paths = (
{
closed = 1;
nodes = (
"430 0 LINE",
"348 236 LINE",
"419 274 OFFCURVE",
"474 332 OFFCURVE",
"474 431 CURVE SMOOTH",
"474 528 OFFCURVE",
"406 560 OFFCURVE",
"312 560 CURVE SMOOTH",
"120 560 LINE",
"21 0 LINE",
"115 0 LINE",
"152 212 LINE",
"256 212 LINE",
"333 0 LINE"
);
},
{
closed = 1;
nodes = (
"281 483 LINE SMOOTH",
"351 483 OFFCURVE",
"375 457 OFFCURVE",
"375 414 CURVE SMOOTH",
"375 348 OFFCURVE",
"351 300 OFFCURVE",
"251 300 CURVE SMOOTH",
"168 300 LINE",
"200 483 LINE"
);
}
);
};
layerId = UUID0;
paths = (
{
closed = 1;
nodes = (
"115 0 LINE",
"152 212 LINE",
"256 212 LINE",
"333 0 LINE",
"430 0 LINE",
"348 236 LINE",
"419 274 OFFCURVE",
"474 332 OFFCURVE",
"474 431 CURVE SMOOTH",
"474 528 OFFCURVE",
"406 560 OFFCURVE",
"312 560 CURVE SMOOTH",
"120 560 LINE",
"21 0 LINE"
);
},
{
closed = 1;
nodes = (
"200 483 LINE",
"281 483 LINE SMOOTH",
"351 483 OFFCURVE",
"375 457 OFFCURVE",
"375 414 CURVE SMOOTH",
"375 348 OFFCURVE",
"351 300 OFFCURVE",
"251 300 CURVE SMOOTH",
"168 300 LINE"
);
}
);
width = 507;
},
{
background = {
paths = (
{
closed = 1;
nodes = (
"489 0 LINE",
"399 242 LINE",
"469 286 OFFCURVE",
"530 328 OFFCURVE",
"530 445 CURVE SMOOTH",
"530 545 OFFCURVE",
"451 581 OFFCURVE",
"353 581 CURVE SMOOTH",
"122 581 LINE",
"20 0 LINE",
"141 0 LINE",
"178 210 LINE",
"281 210 LINE",
"363 0 LINE"
);
},
{
closed = 1;
nodes = (
"298 479 LINE SMOOTH",
"379 479 OFFCURVE",
"399 457 OFFCURVE",
"399 423 CURVE SMOOTH",
"399 367 OFFCURVE",
"379 322 OFFCURVE",
"253 322 CURVE SMOOTH",
"198 322 LINE",
"226 479 LINE"
);
}
);
};
layerId = "D879A026-05F7-4E99-AC55-D533E46CE7AB";
paths = (
{
closed = 1;
nodes = (
"141 0 LINE",
"178 210 LINE",
"281 210 LINE",
"363 0 LINE",
"489 0 LINE",
"399 242 LINE",
"469 286 OFFCURVE",
"530 328 OFFCURVE",
"530 445 CURVE SMOOTH",
"530 545 OFFCURVE",
"451 581 OFFCURVE",
"353 581 CURVE SMOOTH",
"122 581 LINE",
"20 0 LINE"
);
},
{
closed = 1;
nodes = (
"226 479 LINE",
"298 479 LINE SMOOTH",
"379 479 OFFCURVE",
"399 457 OFFCURVE",
"399 423 CURVE SMOOTH",
"399 367 OFFCURVE",
"379 322 OFFCURVE",
"253 322 CURVE SMOOTH",
"198 322 LINE"
);
}
);
width = 559;
}
);
},
{
glyphname = S.sc;
lastChange = "2016-08-30 22:39:58 +0000";
layers = (
{
background = {
paths = (
{
closed = 1;
nodes = (
"361 -11 OFFCURVE",
"418 87 OFFCURVE",
"418 176 CURVE SMOOTH",
"418 277 OFFCURVE",
"331 306 OFFCURVE",
"257 331 CURVE SMOOTH",
"205 349 OFFCURVE",
"160 367 OFFCURVE",
"160 408 CURVE SMOOTH",
"160 466 OFFCURVE",
"228 484 OFFCURVE",
"278 484 CURVE SMOOTH",
"330 484 OFFCURVE",
"376 464 OFFCURVE",
"427 434 CURVE",
"453 530 LINE",
"428 548 OFFCURVE",
"362 571 OFFCURVE",
"289 571 CURVE SMOOTH",
"124 571 OFFCURVE",
"61 459 OFFCURVE",
"61 384 CURVE SMOOTH",
"61 303 OFFCURVE",
"133 276 OFFCURVE",
"201 251 CURVE SMOOTH",
"261 229 OFFCURVE",
"313 209 OFFCURVE",
"313 158 CURVE SMOOTH",
"313 98 OFFCURVE",
"262 77 OFFCURVE",
"195 77 CURVE SMOOTH",
"115 77 OFFCURVE",
"61 106 OFFCURVE",
"35 135 CURVE",
"5 28 LINE",
"33 8 OFFCURVE",
"96 -11 OFFCURVE",
"177 -11 CURVE SMOOTH"
);
}
);
};
layerId = UUID0;
paths = (
{
closed = 1;
nodes = (
"361 -11 OFFCURVE",
"418 87 OFFCURVE",
"418 176 CURVE SMOOTH",
"418 277 OFFCURVE",
"331 306 OFFCURVE",
"257 331 CURVE SMOOTH",
"205 349 OFFCURVE",
"160 367 OFFCURVE",
"160 408 CURVE SMOOTH",
"160 466 OFFCURVE",
"228 484 OFFCURVE",
"278 484 CURVE SMOOTH",
"330 484 OFFCURVE",
"376 464 OFFCURVE",
"427 434 CURVE",
"453 530 LINE",
"428 548 OFFCURVE",
"362 571 OFFCURVE",
"289 571 CURVE SMOOTH",
"124 571 OFFCURVE",
"61 459 OFFCURVE",
"61 384 CURVE SMOOTH",
"61 303 OFFCURVE",
"133 276 OFFCURVE",
"201 251 CURVE SMOOTH",
"261 229 OFFCURVE",
"313 209 OFFCURVE",
"313 158 CURVE SMOOTH",
"313 98 OFFCURVE",
"262 77 OFFCURVE",
"195 77 CURVE SMOOTH",
"115 77 OFFCURVE",
"61 106 OFFCURVE",
"35 135 CURVE",
"5 28 LINE",
"33 8 OFFCURVE",
"96 -11 OFFCURVE",
"177 -11 CURVE"
);
}
);
width = 478;
},
{
background = {
paths = (
{
closed = 1;
nodes = (
"441 -12 OFFCURVE",
"456 140 OFFCURVE",
"456 189 CURVE SMOOTH",
"456 295 OFFCURVE",
"362 327 OFFCURVE",
"288 350 CURVE SMOOTH",
"234 367 OFFCURVE",
"185 382 OFFCURVE",
"185 420 CURVE SMOOTH",
"185 471 OFFCURVE",
"249 475 OFFCURVE",
"290 475 CURVE SMOOTH",
"346 475 OFFCURVE",
"397 460 OFFCURVE",
"457 423 CURVE",
"491 545 LINE",
"466 566 OFFCURVE",
"393 593 OFFCURVE",
"309 593 CURVE SMOOTH",
"131 593 OFFCURVE",
"59 476 OFFCURVE",
"59 392 CURVE SMOOTH",
"59 305 OFFCURVE",
"134 276 OFFCURVE",
"199 252 CURVE SMOOTH",
"256 231 OFFCURVE",
"315 213 OFFCURVE",
"315 165 CURVE SMOOTH",
"315 120 OFFCURVE",
"284 107 OFFCURVE",
"217 107 CURVE SMOOTH",
"124 107 OFFCURVE",
"63 138 OFFCURVE",
"40 170 CURVE",
"2 33 LINE",
"32 10 OFFCURVE",
"101 -12 OFFCURVE",
"193 -12 CURVE SMOOTH"
);
}
);
};
layerId = "D879A026-05F7-4E99-AC55-D533E46CE7AB";
paths = (
{
closed = 1;
nodes = (
"441 -12 OFFCURVE",
"456 140 OFFCURVE",
"456 189 CURVE SMOOTH",
"456 295 OFFCURVE",
"362 327 OFFCURVE",
"288 350 CURVE SMOOTH",
"234 367 OFFCURVE",
"185 382 OFFCURVE",
"185 420 CURVE SMOOTH",
"185 471 OFFCURVE",
"249 475 OFFCURVE",
"290 475 CURVE SMOOTH",
"346 475 OFFCURVE",
"397 460 OFFCURVE",
"457 423 CURVE",
"491 545 LINE",
"466 566 OFFCURVE",
"393 593 OFFCURVE",
"309 593 CURVE SMOOTH",
"131 593 OFFCURVE",
"59 476 OFFCURVE",
"59 392 CURVE SMOOTH",
"59 305 OFFCURVE",
"134 276 OFFCURVE",
"199 252 CURVE SMOOTH",
"256 231 OFFCURVE",
"315 213 OFFCURVE",
"315 165 CURVE SMOOTH",
"315 120 OFFCURVE",
"284 107 OFFCURVE",
"217 107 CURVE SMOOTH",
"124 107 OFFCURVE",
"63 138 OFFCURVE",
"40 170 CURVE",
"2 33 LINE",
"32 10 OFFCURVE",
"101 -12 OFFCURVE",
"193 -12 CURVE"
);
}
);
width = 510;
}
);
},
{
glyphname = T.sc;
lastChange = "2016-08-30 19:21:11 +0000";
layers = (
{
background = {
paths = (
{
closed = 1;
nodes = (
"462 472 LINE",
"477 560 LINE",
"76 560 LINE",
"60 472 LINE",
"214 472 LINE",
"131 0 LINE",
"224 0 LINE",
"307 472 LINE"
);
}
);
};
layerId = UUID0;
paths = (
{
closed = 1;
nodes = (
"224 0 LINE",
"307 472 LINE",
"462 472 LINE",
"477 560 LINE",
"76 560 LINE",
"60 472 LINE",
"214 472 LINE",
"131 0 LINE"
);
}
);
width = 458;
},
{
background = {
paths = (
{
closed = 1;
nodes = (
"506 461 LINE",
"527 581 LINE",
"73 581 LINE",
"52 461 LINE",
"217 461 LINE",
"136 0 LINE",
"260 0 LINE",
"341 461 LINE"
);
}
);
};
layerId = "D879A026-05F7-4E99-AC55-D533E46CE7AB";
paths = (
{
closed = 1;
nodes = (
"260 0 LINE",
"341 461 LINE",
"506 461 LINE",
"527 581 LINE",
"73 581 LINE",
"52 461 LINE",
"217 461 LINE",
"136 0 LINE"
);
}
);
width = 498;
}
);
},
{
glyphname = U.sc;
lastChange = "2016-08-30 22:40:07 +0000";
layers = (
{
background = {
paths = (
{
closed = 1;
nodes = (
"391 -11 OFFCURVE",
"479 87 OFFCURVE",
"506 239 CURVE SMOOTH",
"563 560 LINE",
"470 560 LINE",
"420 274 LINE SMOOTH",
"401 168 OFFCURVE",
"364 77 OFFCURVE",
"254 77 CURVE SMOOTH",
"143 77 OFFCURVE",
"137 168 OFFCURVE",
"156 274 CURVE SMOOTH",
"206 560 LINE",
"115 560 LINE",
"58 239 LINE SMOOTH",
"31 87 OFFCURVE",
"86 -11 OFFCURVE",
"238 -11 CURVE SMOOTH"
);
}
);
};
layerId = UUID0;
paths = (
{
closed = 1;
nodes = (
"391 -11 OFFCURVE",
"479 87 OFFCURVE",
"506 239 CURVE SMOOTH",
"563 560 LINE",
"470 560 LINE",
"420 274 LINE SMOOTH",
"401 168 OFFCURVE",
"364 77 OFFCURVE",
"254 77 CURVE SMOOTH",
"173 77 OFFCURVE",
"148 126 OFFCURVE",
"148 194 CURVE SMOOTH",
"148 219 OFFCURVE",
"151 246 OFFCURVE",
"156 274 CURVE SMOOTH",
"206 560 LINE",
"115 560 LINE",
"58 239 LINE SMOOTH",
"54 214 OFFCURVE",
"51 191 OFFCURVE",
"51 169 CURVE SMOOTH",
"51 57 OFFCURVE",
"111 -11 OFFCURVE",
"238 -11 CURVE"
);
}
);
width = 583;
},
{
background = {
paths = (
{
closed = 1;
nodes = (
"424 -12 OFFCURVE",
"522 94 OFFCURVE",
"549 250 CURVE SMOOTH",
"607 581 LINE",
"484 581 LINE",
"432 285 LINE SMOOTH",
"413 180 OFFCURVE",
"379 107 OFFCURVE",
"277 107 CURVE SMOOTH",
"176 107 OFFCURVE",
"166 180 OFFCURVE",
"185 285 CURVE SMOOTH",
"237 581 LINE",
"115 581 LINE",
"57 250 LINE SMOOTH",
"30 94 OFFCURVE",
"89 -12 OFFCURVE",
"256 -12 CURVE SMOOTH"
);
}
);
};
layerId = "D879A026-05F7-4E99-AC55-D533E46CE7AB";
paths = (
{
closed = 1;
nodes = (
"424 -12 OFFCURVE",
"522 94 OFFCURVE",
"549 250 CURVE SMOOTH",
"607 581 LINE",
"484 581 LINE",
"432 285 LINE SMOOTH",
"413 180 OFFCURVE",
"379 107 OFFCURVE",
"277 107 CURVE SMOOTH",
"203 107 OFFCURVE",
"178 147 OFFCURVE",
"177 209 CURVE SMOOTH",
"177 232 OFFCURVE",
"180 257 OFFCURVE",
"185 285 CURVE SMOOTH",
"237 581 LINE",
"115 581 LINE",
"57 250 LINE SMOOTH",
"53 225 OFFCURVE",
"51 200 OFFCURVE",
"51 178 CURVE SMOOTH",
"52 62 OFFCURVE",
"116 -12 OFFCURVE",
"256 -12 CURVE"
);
}
);
width = 621;
}
);
},
{
glyphname = V.sc;
lastChange = "2016-08-30 19:21:11 +0000";
layers = (
{
background = {
paths = (
{
closed = 1;
nodes = (
"555 560 LINE",
"458 560 LINE",
"227 118 LINE",
"149 560 LINE",
"52 560 LINE",
"152 0 LINE",
"261 0 LINE"
);
}
);
};
layerId = UUID0;
paths = (
{
closed = 1;
nodes = (
"261 0 LINE",
"555 560 LINE",
"458 560 LINE",
"227 118 LINE",
"149 560 LINE",
"52 560 LINE",
"152 0 LINE"
);
}
);
width = 523;
},
{
background = {
paths = (
{
closed = 1;
nodes = (
"614 581 LINE",
"489 581 LINE",
"262 167 LINE",
"179 581 LINE",
"51 581 LINE",
"156 0 LINE",
"313 0 LINE"
);
}
);
};
layerId = "D879A026-05F7-4E99-AC55-D533E46CE7AB";
paths = (
{
closed = 1;
nodes = (
"313 0 LINE",
"614 581 LINE",
"489 581 LINE",
"262 167 LINE",
"179 581 LINE",
"51 581 LINE",
"156 0 LINE"
);
}
);
width = 570;
}
);
},
{
glyphname = W.sc;
lastChange = "2016-08-30 19:21:11 +0000";
layers = (
{
background = {
paths = (
{
closed = 1;
nodes = (
"802 560 LINE",
"705 560 LINE",
"524 142 LINE",
"468 556 LINE",
"400 556 LINE",
"202 135 LINE",
"166 560 LINE",
"69 560 LINE",
"123 0 LINE",
"213 0 LINE",
"408 404 LINE",
"458 0 LINE",
"544 0 LINE"
);
}
);
};
layerId = UUID0;
paths = (
{
closed = 1;
nodes = (
"213 0 LINE",
"408 404 LINE",
"458 0 LINE",
"544 0 LINE",
"802 560 LINE",
"705 560 LINE",
"524 142 LINE",
"468 556 LINE",
"400 556 LINE",
"202 135 LINE",
"166 560 LINE",
"69 560 LINE",
"123 0 LINE"
);
}
);
width = 772;
},
{
background = {
paths = (
{
closed = 1;
nodes = (
"872 581 LINE",
"746 581 LINE",
"577 227 LINE",
"509 587 LINE",
"433 587 LINE",
"242 211 LINE",
"196 581 LINE",
"68 581 LINE",
"134 0 LINE",
"243 0 LINE",
"428 340 LINE",
"497 0 LINE",
"596 0 LINE"
);
}
);
};
layerId = "D879A026-05F7-4E99-AC55-D533E46CE7AB";
paths = (
{
closed = 1;
nodes = (
"243 0 LINE",
"428 340 LINE",
"497 0 LINE",
"596 0 LINE",
"872 581 LINE",
"746 581 LINE",
"577 227 LINE",
"509 587 LINE",
"433 587 LINE",
"242 211 LINE",
"196 581 LINE",
"68 581 LINE",
"134 0 LINE"
);
}
);
width = 835;
}
);
},
{
glyphname = X.sc;
lastChange = "2016-08-30 19:21:11 +0000";
layers = (
{
background = {
paths = (
{
closed = 1;
nodes = (
"444 0 LINE",
"305 290 LINE",
"534 560 LINE",
"430 560 LINE",
"270 355 LINE",
"177 560 LINE",
"70 560 LINE",
"203 279 LINE",
"-35 0 LINE",
"70 0 LINE",
"239 214 LINE",
"338 0 LINE"
);
}
);
};
layerId = UUID0;
paths = (
{
closed = 1;
nodes = (
"70 0 LINE",
"239 214 LINE",
"338 0 LINE",
"444 0 LINE",
"305 290 LINE",
"534 560 LINE",
"430 560 LINE",
"270 355 LINE",
"177 560 LINE",
"70 560 LINE",
"203 279 LINE",
"-35 0 LINE"
);
}
);
width = 511;
},
{
background = {
paths = (
{
closed = 1;
nodes = (
"507 0 LINE",
"355 302 LINE",
"591 581 LINE",
"446 581 LINE",
"306 389 LINE",
"211 581 LINE",
"68 581 LINE",
"218 290 LINE",
"-48 0 LINE",
"97 0 LINE",
"265 200 LINE",
"360 0 LINE"
);
}
);
};
layerId = "D879A026-05F7-4E99-AC55-D533E46CE7AB";
paths = (
{
closed = 1;
nodes = (
"97 0 LINE",
"265 200 LINE",
"360 0 LINE",
"507 0 LINE",
"355 302 LINE",
"591 581 LINE",
"446 581 LINE",
"306 389 LINE",
"211 581 LINE",
"68 581 LINE",
"218 290 LINE",
"-48 0 LINE"
);
}
);
width = 563;
}
);
},
{
glyphname = Y.sc;
lastChange = "2016-08-30 19:21:11 +0000";
layers = (
{
background = {
paths = (
{
closed = 1;
nodes = (
"519 560 LINE",
"421 560 LINE",
"246 335 LINE",
"151 560 LINE",
"53 560 LINE",
"185 252 LINE",
"140 0 LINE",
"234 0 LINE",
"278 252 LINE"
);
}
);
};
layerId = UUID0;
paths = (
{
closed = 1;
nodes = (
"234 0 LINE",
"278 252 LINE",
"519 560 LINE",
"421 560 LINE",
"246 335 LINE",
"151 560 LINE",
"53 560 LINE",
"185 252 LINE",
"140 0 LINE"
);
}
);
width = 484;
},
{
background = {
paths = (
{
closed = 1;
nodes = (
"586 581 LINE",
"455 581 LINE",
"279 359 LINE",
"180 581 LINE",
"49 581 LINE",
"199 251 LINE",
"155 0 LINE",
"275 0 LINE",
"319 251 LINE"
);
}
);
};
layerId = "D879A026-05F7-4E99-AC55-D533E46CE7AB";
paths = (
{
closed = 1;
nodes = (
"275 0 LINE",
"319 251 LINE",
"586 581 LINE",
"455 581 LINE",
"279 359 LINE",
"180 581 LINE",
"49 581 LINE",
"199 251 LINE",
"155 0 LINE"
);
}
);
width = 540;
}
);
},
{
glyphname = Z.sc;
lastChange = "2016-08-30 19:21:11 +0000";
layers = (
{
background = {
paths = (
{
closed = 1;
nodes = (
"478 560 LINE",
"101 560 LINE",
"85 472 LINE",
"310 472 LINE",
"-33 0 LINE",
"345 0 LINE",
"360 88 LINE",
"135 88 LINE"
);
}
);
};
layerId = UUID0;
paths = (
{
closed = 1;
nodes = (
"345 0 LINE",
"360 88 LINE",
"135 88 LINE",
"478 560 LINE",
"101 560 LINE",
"85 472 LINE",
"310 472 LINE",
"-33 0 LINE"
);
}
);
width = 451;
},
{
background = {
paths = (
{
closed = 1;
nodes = (
"519 581 LINE",
"105 581 LINE",
"84 461 LINE",
"296 461 LINE",
"-36 0 LINE",
"378 0 LINE",
"399 120 LINE",
"188 120 LINE"
);
}
);
};
layerId = "D879A026-05F7-4E99-AC55-D533E46CE7AB";
paths = (
{
closed = 1;
nodes = (
"378 0 LINE",
"399 120 LINE",
"188 120 LINE",
"519 581 LINE",
"105 581 LINE",
"84 461 LINE",
"296 461 LINE",
"-36 0 LINE"
);
}
);
width = 484;
}
);
},
